<svg id="Layer_1" data-name="Layer 1" xmlns="http://www.w3.org/2000/svg" viewBox="0 0 573.74 313.08"><defs><style>.cls-1{fill:#e22027;}.cls-2{fill:#f5f5f5;}.cls-12,.cls-15,.cls-2,.cls-5,.cls-8,.cls-9{stroke:#1d1d1b;stroke-miterlimit:10;}.cls-3{fill:#e02228;}.cls-4{fill:#e02027;}.cls-5{fill:#f4f3f3;}.cls-6{fill:#863e3d;}.cls-7{fill:#883e3c;}.cls-8{fill:#f1f3f4;}.cls-9{fill:#e9eaeb;}.cls-10{fill:#8e3f41;}.cls-11{fill:#84393a;}.cls-12{fill:#fbfcfd;}.cls-13{fill:#bc383b;}.cls-14{fill:#282c2c;}.cls-15,.cls-16{fill:#f9dcd6;}.cls-17{fill:#6f2f30;}.cls-18{fill:#ec1d24;}.cls-19{fill:#361d1c;}</style></defs><path class="cls-1" d="M217.19,281.63c0,16.16-.13,32.32.08,48.47.06,4.38-1.44,5.91-5.7,5.62a98.05,98.05,0,0,0-12,0c-4.19.22-5.4-1.66-5.35-5.6.17-12.34-.09-24.67.14-37,.08-4.43-1.27-6.3-5.91-6.2-10.26.22-20.53,0-30.79.09-5,0-6.12,1.65-6,6.81.24,11.63.42,23.26.27,34.89-.1,6.86-.56,7-7.24,7-3.66,0-7.32-.15-11,0-3.9.19-5.2-1.62-5.14-5.31.13-9.55.07-19.11.07-28.66q0-33.61,0-67.23c0-8.07,0-8.06,8.35-8.07,3.48,0,7,.1,10.43-.07s4.89,1.35,4.84,4.93c-.15,10.08.13,20.16-.08,30.23-.09,4.16,1,5.89,5.53,5.77,10.6-.27,21.22-.17,31.83,0,3.61.05,4.91-1.26,4.85-4.87-.16-10.07.18-20.16-.15-30.22-.16-4.76,1.66-6.14,6.07-5.83a77,77,0,0,0,11.47,0c4.5-.36,5.56,1.62,5.51,5.77C217.08,248.63,217.19,265.13,217.19,281.63Z" transform="translate(-109.13 -149.46)"/><path class="cls-2" d="M455.94,330.82c-3.74,18.71-13.73,33.71-27.5,46.55a7.09,7.09,0,0,0-1.85,4.93c.33,8.66.72,17.34,1.6,25.95,1,9.53,5.67,12.11,13.7,7,10.34-6.62,18.05-15.11,18.78-28.65,1.19-22,4.37-43.69,14.67-63.67,4.61-8.95,9.32-12,17.25-11.13l.15,5.64-4.09-.32c-2.17,1.94-5.51,3.49-6.31,5.89-3.53,10.54-6.75,21.23-9.26,32-1.87,8.06-2.49,16.41-3.66,24.63a34.33,34.33,0,0,0,8.42-7.64c8-9.91,16.06-19.86,18.09-33.06.3-1,.59-2.05.88-3.07.08-2.54.21-5.08.23-7.62,0-4.73,0-9.47,0-14.2l1.91,1.29q2.19,7.63,4.4,15.26l-.09,2.15-.42,2.72-.51,3.49c-4.07,18.23-15.56,31.83-28.38,44.42-3.78,3.71-5.82,7.4-5.2,12.7.35,3.07.06,6.22.06,11l41.44-16.76,1,.84c-1.22,1.41-2.17,3.32-3.7,4.14-11.72,6.28-23.54,12.36-35.35,18.49-1.06.55-2.18,1-3,1.36-1.43,5.93.34,10,5.21,13.57,7.11,5.23,12.71,11.8,13.49,21.28.41,5-.92,8.83-5.73,11.09s-8.5.25-11.62-3.05c-6.16-6.51-7.74-15-8.81-23.37-.52-4-1.85-6.67-5.22-8.83-3.19-2-6-4.64-9.1-7.06a75.81,75.81,0,0,1-6.82,4.92c-7.16,4.11-14.65,2.07-17.64-5.62-2.45-6.33-3.45-13.22-4.94-19.24-7.48,5.41-15.12,11.65-23.47,16.73a73,73,0,0,1-18.17,7.4,16.69,16.69,0,0,1-18.74-7c-4.22-6.45-2.48-12.57,1.4-18.43a35.94,35.94,0,0,1,22.58-15.49c2-.47,5.29.24,6.45,1.66s1.19,4.75.36,6.65c-3.27,7.46-10.58,8.93-17.53,10.39-3.64.77-6.45,1.75-7.51,5.74-1.44,5.43,1.16,10.16,6.77,10.52a28.68,28.68,0,0,0,11.7-1.43c12.8-4.81,24-12.43,34.06-21.6a7.92,7.92,0,0,0,2.37-5.29c-.21-16.86,0-33.66,3.76-50.21l.68-2.69c.34-1,.67-2.06,1-3.08L429,320.3c.7-1,1.41-2.08,2.11-3.13,4.52-5.81,10-9.08,17.65-6.69l1.33,1.22c5,3.67,5.48,9.21,6,14.72Zm-23.47,1.83-.69,2.7c-4.51,12.54-5,25.54-5.1,39.38,10.89-9.58,21.85-28.55,23.43-39.87.22-1.4.43-2.8.65-4.2,0-2.41.7-5.07-.1-7.17-1.11-3-3.32-5.51-5.06-8.24-2.8,2-6.32,3.5-8.23,6.15C435,324.64,434,328.86,432.47,332.65Zm44.67,120.5,1.71-.69c.77-6-3.27-12.57-8.19-12.81Zm-93.48-63.72-1.44-2.17-10.4,7.21,1.18,1.81Z" transform="translate(-109.13 -149.46)"/><path class="cls-3" d="M281.9,334.82l-1.93-.25c0-33.85.07-67.7-.16-101.55,0-5.08,2.25-6.38,6.47-6.33,15.11.17,30.23.25,45.33.6,11.27.27,20.29,5.56,27.49,13.83,8,9.17,11.85,20.11,12.94,32.22,1.48,16.45-1.57,31.75-10.8,45.55-1.29,1.94-3.85,3.05-5.82,4.54l-17-9.17.09-.44c9.39-10.71,12.06-23.45,11.3-37.24C349,261.4,341.63,251,327.9,248c-6.64-1.49-13.83-.46-20.75-.93-4.44-.3-5.6,1.49-5.57,5.67.16,19.8.05,39.6.11,59.39a22.85,22.85,0,0,0,.93,4.46C293.65,320.3,287,326.66,281.9,334.82Z" transform="translate(-109.13 -149.46)"/><path class="cls-4" d="M259.53,281.07c0,16.15-.13,32.29.08,48.44.06,4.77-1.59,6.63-6.38,6.21a74.44,74.44,0,0,0-11.47-.06c-4.45.32-5.72-1.68-5.65-5.81.17-11.11.07-22.22.07-33.33q0-31.51,0-63c0-6.73.24-6.91,7.09-6.95,3.13,0,6.26,0,9.39,0,6.77,0,6.86.11,6.87,7.12Q259.56,257.38,259.53,281.07Z" transform="translate(-109.13 -149.46)"/><path class="cls-5" d="M281.9,334.82c5.08-8.16,11.75-14.52,20.72-18.27,6.71-1.41,13.36-3.4,20.14-4,5.16-.47,10.48.8,15.73,1.3l-.09.44,5.42,4.8-15-.91-6.17,0-11.57,2a.72.72,0,0,1-.78.2l-1.26.56-2,.73-2.09.8h0c-3.36-.2-6.67-.31-7.24,4.24l0,0c-4.7.25-6.74,3.1-7.28,7.42l-.2,1.2c-4.54,5.93-3.9,12.33-1.34,18.67a40.83,40.83,0,0,0,15.74,18.91c7.36,4.88,14.95,9.42,22.6,13.84,1.29.74,3.5.54,5.07.06a60.65,60.65,0,0,0,7.4-3.28l.76,1.17-7.9,5.91c1.57,1.38,3,2.52,4.3,3.83,5,5.11,9.18,10.69,6.79,18.42-2.46,8-8.05,13.09-16.26,14.24a45.44,45.44,0,0,1-15.91-.38c-9.65-2.15-12.35-9.25-7.11-17.6a39.12,39.12,0,0,1,7.33-8c3.35-3,7.06-5.6,11-8.65-3.84-2.25-7.52-4.47-11.26-6.6a78.36,78.36,0,0,1-23.18-19.82C280.86,356.54,278.25,346.35,281.9,334.82Zm44.67,57.79c-6.7,7.28-12.43,12.76-17.24,19-3.45,4.45-1.42,9.21,4.05,9.23a52.57,52.57,0,0,0,18.49-3.16c5.95-2.24,7-9.09,3.24-14.36C332.82,400.07,330.19,397.1,326.57,392.61Z" transform="translate(-109.13 -149.46)"/><path class="cls-6" d="M615.68,265.93c0,21.48.08,43,0,64.43,0,1.41-1.14,2.82-1.76,4.23,0-17.42,0-34.85,0-52.27a36.08,36.08,0,0,0-1-5.93V266l0-4.18c-.32,0-.63,0-.94-.05l2-6.61,8.28,11c3.57,6.66,7,13.4,10.74,20,5.35,9.4,10.91,18.68,16.37,28,.85,1.9,1.6,3.85,2.57,5.67,6.9,13,6.92,12.75,21.48,13.07,5,.11,6.53-1.26,6.49-6.36-.23-29-.08-58-.13-87.05,0-12.09,1.1-9.36-9.95-10-4.7-.26-5.89,1.39-5.84,5.91.21,21.19.09,42.39,0,63.59a15.62,15.62,0,0,1-.62,5.62c-1.06,2.67-2.58,2.58-3.71-.15.44-2.49,1.26-5,1.27-7.47.15-23.48.15-47,.2-70.44l21.73-.06,0,0q.06,54.19.13,108.39c-.59.57-1.19,1.65-1.76,1.64-7.25-.15-14.51-.33-21.74-.82a5.38,5.38,0,0,1-3.55-2.54q-11.6-19.91-22.91-40c-4.48-7.91-8.76-15.94-13.26-23.85-.82-1.44-2.28-2.51-3.45-3.75l-.39-1.84-.73.18Z" transform="translate(-109.13 -149.46)"/><path class="cls-6" d="M455.94,330.82l.18-4.4c7.46-2.89,10.81-9.79,13.67-16.12,9.44-20.94,9.68-42.1-2.27-62.3a35.46,35.46,0,0,0-24.7-17.5,16.57,16.57,0,0,0-3.91-1c-15.09-.07-30.19,0-45.28-.1-3.57,0-4.34,1.49-4.34,4.69.08,31.18.13,62.36,0,93.54,0,4.28,1.48,5.68,5.47,5l29,.09c-.34,1-.67,2.05-1,3.08-10.42,0-20.85-.17-31.26.12-4.24.11-5.36-1.43-5.28-5.41.22-10.05.05-20.12.08-30.18q.09-36.93.24-73.87c17.74,0,35.48-.39,53.21.07,7.4.2,14.19,3.21,20.35,7.84,10.76,8.07,15.38,20,19.43,31.71,2.2,6.36,1.47,14.29.2,21.17a125.14,125.14,0,0,1-8.35,28.5C468.45,322.21,465.05,329.9,455.94,330.82Z" transform="translate(-109.13 -149.46)"/><path class="cls-7" d="M502.84,335.48l.42-2.72c21.38,0,42.76-.24,64.14.1,5.73.09,6-2.54,6-6.9s-.21-7.06-6-6.92c-16.33.38-32.68,0-49,.25-4.71.08-6-1.45-5.83-6,.33-7.62.3-15.27,0-22.9-.17-4.48,1.67-5.67,5.83-5.62,13.9.17,27.82-.18,41.71.18,5.18.14,6.07-1.95,6-6.38-.08-4.14-.28-6.77-5.77-6.62-14.24.38-28.5,0-42.75.18-4,.05-5.17-1.32-5-5.13.26-5.72.07-11.45.09-17.18,0-7,0-7,7.28-6.81l-2.27,2.19c-.64,1.42-1.77,2.82-1.84,4.26-.23,4.86.12,9.74-.15,14.58-.22,3.86,1.07,5.15,5,5.07,11.82-.23,23.65-.07,35.47-.07,12.92,0,12.73,0,13,12.72.08,4.62-1,6.35-6,6.23-14.25-.33-28.51,0-42.77-.15-3.2,0-4.8.73-4.68,4.33.22,6.59.17,13.2,0,19.79-.07,3.21,1.13,4.54,4.32,3.94l56.09.17c.08,5.2,0,10.4.28,15.59.15,3.26-1.29,4.23-4.33,4.18-6.77-.13-13.54,0-20.31-.06Q527.31,335.69,502.84,335.48Z" transform="translate(-109.13 -149.46)"/><path class="cls-8" d="M265.55,206.39l2.82,2.28c-7.72,9.74-22.7,12.09-33.53,5.48-9.9-6.06-13.66-19.91-8.48-31.28s17.83-16.64,30.66-12.69c10.54,3.26,16.23,13.28,14.08,25.3H229.71c-.82,6.07,2.53,12,8.41,15.29C246.26,215.35,256.61,213.82,265.55,206.39Zm1.4-14.9c.91-10.07-5.85-17.6-16.15-18.26-12.44-.79-21.34,6.68-21.62,18.26Z" transform="translate(-109.13 -149.46)"/><path class="cls-9" d="M177.5,216.88h-4.59V150.4c2.83-.86,4.51-.74,4.42,3-.18,7.75-.05,15.5-.05,24.27,6.33-7.54,13.62-10.07,22.26-8.16s14.14,8.05,14.46,16.74c.38,10,.09,20.12.09,30.48h-4.33c0-8.92,0-17.75,0-26.58,0-10.68-5.3-16.59-14.87-16.81s-17.18,6.93-17.35,16.84C177.38,199.06,177.5,207.89,177.5,216.88Z" transform="translate(-109.13 -149.46)"/><path class="cls-10" d="M612.86,276.39a36.08,36.08,0,0,1,1,5.93c.07,17.42,0,34.85,0,52.27-3.13.59-6.28,1.74-9.41,1.69-11.56-.2-11.56-.35-11.54-12l.15-97.68H618q11.34,20.1,22.67,40.21c1.43,2.52,2.94,5,4.41,7.49,2.74,5.3,5.62,10.54,8.16,15.94,2.08,4.41,3.75,9,5.6,13.53a45.08,45.08,0,0,1-4-5.25c-12-21.28-23.87-42.63-35.89-63.9-1-1.86-2.81-4.6-4.35-4.67-6.15-.28-12.33.32-18.51.6-.25.41-.5.82-.76,1.23,0,2.33,0,4.67,0,7,0,2.86,0,5.73,0,8.59q0,41.05,0,82.11l.06,1.34c2.27,2,13.77,3,15.9,1.22.53-.43.48-1.58.7-2.4a43,43,0,0,0,.83-6C612.88,307.85,612.85,292.12,612.86,276.39Z" transform="translate(-109.13 -149.46)"/><path class="cls-11" d="M497.05,314.06c0,4.73,0,9.47,0,14.2,0,2.54-.15,5.08-.23,7.62-3.31.13-3.92-1.91-3.9-4.66,0-4.6-.11-9.21-.17-13.82l-.15-5.64q.14-35.37.27-70.74c0-14.69,0-14.68,14.56-14.68,20.49,0,41-.08,61.47.09,2.13,0,4.25,1.53,6.38,2.35l-1.17,1.71-3.22-.89-67.79,0c-6.77,0-7,.22-7,7,0,22.56-.05,45.13,0,67.7A98.17,98.17,0,0,0,497.05,314.06Z" transform="translate(-109.13 -149.46)"/><path class="cls-12" d="M134.19,154.44H110c-.6-2.71-.89-4.44,2.75-4.41,16,.13,32,0,47.94.18,1.2,0,2.38,1.68,3.57,2.57l-.81,1.54H139.2v62.07c-4.9.7-5,.7-5-3.61q0-26,0-52Z" transform="translate(-109.13 -149.46)"/><path class="cls-13" d="M290.22,335.22c.06-.4.13-.8.2-1.2l7.28-7.42,0,0,7.24-4.24h0l2.09-.8,2-.73,1.26-.56a.72.72,0,0,0,.78-.2l11.57-2,6.17,0c9.1,1.5,17.79,4,24.76,10.46l-.06.48c-7,5.16-14.45,8-23.46,7.46-11.05-.63-22.17-.09-33.25-.2A40.74,40.74,0,0,1,290.22,335.22Zm7.23-3c16.4-1.22,33,3.53,49.52-2.41-4.3-8.85-12.82-9.4-19.23-9.16C316.92,321.12,305.28,322.1,297.45,332.27Z" transform="translate(-109.13 -149.46)"/><path class="cls-8" d="M353.52,329.09l.06-.48,3.43-2.16a2.11,2.11,0,0,0,.75.17c8.26,13.1,1.59,29.19-9.21,36a22.65,22.65,0,0,1,1.37-4.39c2.05-3.77,4.75-7.25,6.4-11.18C359,340.68,358,334.52,353.52,329.09Z" transform="translate(-109.13 -149.46)"/><path class="cls-7" d="M562.88,245.84l-4.39,0h-.86l-16.92.06c-4.7-.27-9.41-.4-14.09-.9-1.58-.16-3-1.28-4.57-2,14.61,0,29.23,0,43.85-.17,1.74,0,3.47-1.26,5.21-1.94l3,0c0,1.63,0,3.27,0,4.9h-4.16l-4.24-.62-1.64,0Z" transform="translate(-109.13 -149.46)"/><path class="cls-7" d="M570.88,229.6l3.22.89v5.3l-3,0C571,233.69,571,231.65,570.88,229.6Z" transform="translate(-109.13 -149.46)"/><path class="cls-11" d="M571.13,235.74l3,0c0,1.73,0,3.46,0,5.19l-3,0C571.11,239.22,571.12,237.48,571.13,235.74Z" transform="translate(-109.13 -149.46)"/><path class="cls-6" d="M448.8,310.48a24.24,24.24,0,0,1,1.23-3.9c7.28-14,8-28.45,3-43.29-2.63-7.76-13.53-15.56-22.74-16-5.73-.26-11.48.06-17.22-.11-3.44-.1-4.69,1.54-4.69,4.69,0,20.49.05,41,0,61.47,0,3.16,1.47,3.81,4.15,3.78,6.24-.06,12.48,0,18.71,0-.7,1.05-1.41,2.09-2.11,3.13-6.44,0-12.87-.13-19.29,0-3.21.08-4.68-.74-4.66-4.33.11-22.56,0-45.12.13-67.68,0-1.4,1.7-4,2.54-4,10.16.36,20.73-.43,30.37,2.14,14,3.73,19.84,15.5,21.09,29.18,1.19,12.93-1.59,25.16-9.09,36.05Z" transform="translate(-109.13 -149.46)"/><path class="cls-10" d="M432.47,332.65l18.29-2c-.22,1.41-.43,2.81-.65,4.21l-18.33.49Z" transform="translate(-109.13 -149.46)"/><path class="cls-14" d="M382.22,387.26l1.44,2.17L373,396.28l-1.18-1.81" transform="translate(-109.13 -149.46)"/><path class="cls-15" d="M357,326.45l-3.43,2.16c-7-6.51-15.66-9-24.76-10.46l15,.91-5.42-4.8,17,9.17Z" transform="translate(-109.13 -149.46)"/><path class="cls-16" d="M322.65,318.1l-11.57,2Z" transform="translate(-109.13 -149.46)"/><path class="cls-16" d="M297.7,326.6,290.42,334C291,329.7,293,326.85,297.7,326.6Z" transform="translate(-109.13 -149.46)"/><path class="cls-16" d="M304.92,322.38l-7.24,4.24C298.25,322.07,301.56,322.18,304.92,322.38Z" transform="translate(-109.13 -149.46)"/><path class="cls-16" d="M307,321.58l-2.09.8Z" transform="translate(-109.13 -149.46)"/><path class="cls-16" d="M310.3,320.29l-1.26.56Z" transform="translate(-109.13 -149.46)"/><path class="cls-10" d="M612.86,266l0-4.18Z" transform="translate(-109.13 -149.46)"/><path class="cls-17" d="M615.68,265.93l-.6-2.06.73-.18.39,1.84A.64.64,0,0,1,615.68,265.93Z" transform="translate(-109.13 -149.46)"/><path class="cls-11" d="M520,243.05l2.1,0c1.52.69,3,1.81,4.57,2,4.68.5,9.39.63,14.09.9l-23-.7Z" transform="translate(-109.13 -149.46)"/><path class="cls-17" d="M595.32,238.75c0,2.86,0,5.73,0,8.59C595.33,244.48,595.32,241.61,595.32,238.75Z" transform="translate(-109.13 -149.46)"/><path class="cls-17" d="M596.07,230.51l-.76,1.22C595.57,231.33,595.82,230.92,596.07,230.51Z" transform="translate(-109.13 -149.46)"/><path class="cls-17" d="M595.32,329.45a6,6,0,0,1,.29.91c0,.13-.15.29-.23.43Z" transform="translate(-109.13 -149.46)"/><path class="cls-18" d="M297.45,332.27c7.83-10.17,19.47-11.15,30.29-11.57,6.41-.24,14.93.31,19.23,9.16C330.47,335.8,313.85,331.05,297.45,332.27Z" transform="translate(-109.13 -149.46)"/><path class="cls-11" d="M565.67,245.25l4.24.62Z" transform="translate(-109.13 -149.46)"/><path class="cls-11" d="M557.63,245.88h.86l-.43.08Z" transform="translate(-109.13 -149.46)"/><path class="cls-11" d="M562.88,245.84l1.15-.62Z" transform="translate(-109.13 -149.46)"/><path class="cls-19" d="M559.08,277.74l-.81.11a4.36,4.36,0,0,1,.08-.81.56.56,0,0,1,.42-.06A3.91,3.91,0,0,1,559.08,277.74Z" transform="translate(-109.13 -149.46)"/></svg>