<svg id="Layer_1" data-name="Layer 1" xmlns="http://www.w3.org/2000/svg" viewBox="0 0 603.36 262.28"><defs><style>.cls-1,.cls-3{fill:#e3a22b;}.cls-2{fill:#ededed;}.cls-2,.cls-3{stroke:#1d1d1b;stroke-miterlimit:10;stroke-width:2px;}.cls-4{fill:#010101;}</style></defs><path class="cls-1" d="M259.27,360c0,21.46-.33,42.92.17,64.37.18,8-2.7,11.22-10.52,11.54a279.1,279.1,0,0,1-32.85-.1c-7.6-.58-10.89-2.74-9.31-11.61,1.76-9.87.92-20.2,1.27-30.33.19-5.66-2.06-8.92-8.17-8.76-2,.06-3.91-.16-5.87-.27-31-1.76-31-1.76-32.78,29.67-.13,2.34-.34,4.68-.28,7,.31,10.88-3.06,16.83-15.71,14-6-1.36-12.53-.75-18.74-.14-9.41.91-13-2.06-13-12.16.25-44.05.88-88.14-3.2-132.08-.57-6.2,2.38-7.49,7.44-7.45,11.75.1,23.5.33,35.25.17,6-.08,8,2.56,8.44,8.36.8,11.27,2.8,22.45,3.55,33.71,1,15.43,13,10.68,20.13,9.47,8.73-1.49,24.14,7.52,24.69-11.75.3-10.53.88-21.05.9-31.58,0-6.1,2.65-8.55,8.54-8,.39,0,.78,0,1.17,0,12.45.47,28.11-4.68,36.43,2.61,8.11,7.1,2.15,22.84,2.63,34.77.52,12.85.12,25.74.12,38.61ZM235.8,327.66c-3.52,7.78-2.73,13-2.24,17.83,1,10.11-3.3,12.56-12.81,12.28-21.15-.61-42.32-.14-63.48-.14-15.49,0-15.35,0-15.55-15.07-.15-12.1.86-24.31-3.32-36.14V412l3.09.07c0-13.43.53-26.89-.19-40.29-.49-9.06,3-11.21,11.47-11,23.1.6,46.24.76,69.35.28,9.08-.19,11.58,3.19,11.25,11.6-.51,12.7-.14,25.44-.14,38.17l2.57,0Z" transform="translate(-94.32 -174.86)"/><path class="cls-1" d="M347.56,283.64c36.48-.49,60.25,8.92,75.91,35.78,9.39,16.1,8.85,32.72,7.46,49.84-2.08,25.43-15.16,44.32-35.91,58.44a44.2,44.2,0,0,1-4.1,2.28c-32.62,17.53-85.15,1.46-107.17-32.77-20.23-31.46-10.66-78.76,20.49-101.27C316.73,286.93,329.85,283.71,347.56,283.64Zm39.87,77.61c.66-19.66-13.52-34.57-33.85-35.57-16.57-.81-33.62,14.89-34.09,31.4-.46,16.24,17.56,34.6,34.21,34.85S386.9,377.17,387.43,361.25Zm-65.32,43.47c19.86,14.51,46.35,13.79,67.45-1,16.89-11.79,28.8-37.12,24-52.07-6.58-20.71-17.8-37.3-40-43.47,29.48,18.63,41.76,43.27,29.87,70.81C387,417.06,355.5,415.54,322.11,404.72Zm42.22-98.9c-23.33-5-43.35-.28-57.24,20.11-8.84,13-12.32,27.23-10.08,42.56,3.42-17,6.93-32.47,20.08-46.7C331.06,306.67,347.41,307.87,364.33,305.82ZM299.79,375c.63,11,5.52,16.52,13.39,19.94C309.13,388.88,305.07,382.83,299.79,375Z" transform="translate(-94.32 -174.86)"/><path class="cls-1" d="M569.19,361.35c0-21.45.17-42.9-.1-64.34-.09-7.1,1.7-9.75,9.74-10.42,28.49-2.38,57.08-.21,85.51-2.69,7.34-.64,10.87,1.7,12.23,8.81,1.68,8.78,3.83,17.49,6,26.16,2.45,9.6-1.85,11.62-10.47,10.3a284.79,284.79,0,0,0-46.76-3.58c-5.21.06-11.66-1.48-11.72,7.27-.06,8,5.28,8.4,11.14,8.38q15.86-.06,31.71-.11c.78,0,1.56-.21,2.34-.24,6.68-.22,16,17.06,16.78,30.65.62,11.15-7.53,8.7-13.75,8.79-12.53.2-25.07.28-37.6,0-6.51-.16-10.26,1.41-10.64,8.81-.4,7.73,4.21,9.29,10.12,9.69,15.66,1.06,31.29.28,46.93-.6,12.22-.69,13.74,1.44,10.87,13.32-6,24.85-6,24.83-31.22,24.82-23.5,0-47-.22-70.5.19-8.2.15-11-2.78-10.89-10.85.37-21.44.13-42.89.13-64.33Zm85-55.9v-1.57c-18.63,0-37.26.07-55.88,0-6.47,0-8.8,2.66-8.68,9.21.53,28.4-.81,56.84,1.29,85.21,1.72,23.42,1.86,23.38,25.81,23.29,12.93-.06,25.87,0,38.8,0-.66-3.59-1.21-4.47-1.77-4.48-12.89-.12-25.79-.15-38.68-.19-21.14-.07-21.16-.06-21-20.94.09-12,3.29-24.68,1.74-35.62-2.14-15.07-1.53-30-2.93-44.87-.72-7.64,2.05-10.34,9.82-10.14C619.87,305.75,637,305.45,654.21,305.45Z" transform="translate(-94.32 -174.86)"/><path class="cls-1" d="M475.49,285.19c15-.9,29.58,2.25,44.34,4.1,20.36,2.56,41,32.66,38.34,57.37-2.31,21.7-20.6,39.24-45.14,41-18.2,1.34-19.52,2.9-19.18,21.74.14,8.41,5.5,18.84-.75,24.65-6,5.57-16.46.36-25,.65-7.38.26-16.07,1.5-21.92-1.73-8.57-4.74-.21-13.32-.28-20.23-.38-38.21.35-76.42.61-114.64.1-14.7,0-14.72,14.89-13.87C466.12,284.54,470.8,284.88,475.49,285.19ZM515.38,340c0-9.8-8.12-18-16.72-17.61-8.13.35-8.79,6.44-8.31,12.49.5,6.39-1.38,15.27,8.21,15.93C506.35,351.37,514.57,349.38,515.38,340ZM470.29,319c-2.43,10-3.39,91.77,0,96.83C470.32,382.62,473.36,351.74,470.29,319Zm60.84,37.35c-5.73,4.93-12.72,7.83-19.16,11.58C520.43,367.45,527.71,365,531.13,356.31Z" transform="translate(-94.32 -174.86)"/><path class="cls-2" d="M586.17,225.58c-2.09,9.18-3.59,17.22.71,25.67,4.78,9.41.69,14.06-10.09,14.16q-3.51,0-7,0c-10.33-.16-13.06-4.73-9.85-14.76,6.24-19.51,5.8-39.13.27-58.82-1.36-4.85-4.17-12.76,2.82-13.6,7.3-.89,17.54-6.08,22.71,5.06s10,22.29,16.13,33.09c1.66-8.5,3-16.22-1.4-24.5-5-9.3-1-14.32,9.46-14.45,2.74,0,5.53.33,8.2-.07,10.27-1.54,12.37,5.49,9.42,11.83-6.12,13.22-3,26.7-3.77,40.05-.47,8.54.12,17.14-.18,25.69-.13,3.81,2.29,10-4.29,10.16-6.3.19-14.18,3.75-18-5.88C596.7,247.81,591.24,236.77,586.17,225.58Z" transform="translate(-94.32 -174.86)"/><path class="cls-2" d="M317.9,265.41c-15.81,0-16.33-2.41-12.59-17.75,4.32-17.72,4.73-36.24-.47-54-3.77-12.89-2.2-16.21,11-16.2,9.4,0,18.88-.56,28.19.38C365,179.93,374.3,200,362.5,217.4c-2.84,4.19-2.23,5.93-.38,10.5,3.68,9.09,4.71,19.3,6.42,29.11,1,5.51-1.05,9.49-7.6,8.36-6.07-1.06-15.37,4.2-16.43-7.41-.53-5.81-.21-11.7-.24-17.55,0-6.8-3.51-10.2-10.27-9.65-7.83.64-4.18,6.88-4.81,10.87-.28,1.78.42,3.83,1.06,5.62C336,263.41,334.63,265.42,317.9,265.41ZM329,205.24c.34,3.61-1.5,9.18,6.19,9.09,6.42-.08,10.68-2.51,10.75-9.35.06-6.62-3.54-9.55-10.29-9.76C328.18,195,329,199.84,329,205.24Z" transform="translate(-94.32 -174.86)"/><path class="cls-2" d="M424.33,265.2c-6.86,1.16-7.79-2.81-7.54-8.27.51-11.09-5.14-19.73-12.29-30-1.57,8.39-1.2,14.5,1.46,20.58,6.36,14.54,4.19,18-11.08,18-18.46,0-17.28-1-13-19.25,4-17,5-35.4-1.34-52.63-4.45-12.14-2.28-16.11,10.75-16.13l2.34,0c17.36,0,18.57,2,11.76,18.63a21.08,21.08,0,0,0-.68,15.52c6.92-7.53,12-14.76,12.23-24.73.07-3.39-2.21-9.06,4-9.09,6.71,0,14.83-3.58,19.83,2.19,2.68,3.1,2,9.5-1.12,14.19-17.7,26.2-17.83,26.34,1.22,52.58,4.74,6.54,5.79,12.24.63,18.63A32.64,32.64,0,0,0,424.33,265.2Z" transform="translate(-94.32 -174.86)"/><path class="cls-2" d="M638.67,221.42c0-8.18-.35-16.38.09-24.54.6-11.21,7-18.12,17.92-20a66.84,66.84,0,0,1,32.4,2.43c11.41,3.66,6.28,12.58,7.33,19.52.46,3,.46,7.34-4,6.76-6-.79-14.58,4.83-17.23-6.26-.92-3.84-4.91-4.66-8.74-4.14-4.71.63-6.79,3.78-6.85,8.08q-.25,18.12,0,36.24c.06,4.8,2.44,8.24,7.64,8.72,4,.36,7-1.48,8.2-5.22,1.32-4.13,2.39-8-4.16-9.72-5.09-1.34-2.43-6.67-2.5-10.18-.09-4.41,3.68-4,6.84-4.29,20.85-1.76,20.85-1.79,20.86,19.85,0,23.42-5.21,28.44-29.35,28.23-21.42-.18-28.55-7.42-28.63-29.07,0-5.46,0-10.91,0-16.37Z" transform="translate(-94.32 -174.86)"/><path class="cls-2" d="M96.82,243.47c.46-1.22-4.17-8.7,4.41-8.72,6,0,14.75-4.55,16.17,7.31.49,4.09,4.57,6.11,9,5.8a7.62,7.62,0,0,0,7.08-5.24c1.62-4.3.13-8.23-3.36-10.25-5.35-3.1-11.31-5.2-17.06-7.6-13.84-5.75-19.57-15-17.29-28.15,2-11.78,11.55-19.7,25.12-20.52,7.44-.45,14.8-.16,21.89,3,10.8,4.81,14.25,11.89,11.38,23.29-.88,3.47-2.87,4.68-5.75,4.24-5-.75-11.25,3.08-14.64-3.7-.69-1.37-.77-3.06-1.49-4.42-1.85-3.52-5-4.83-8.83-4.26-3.3.5-6,2.16-6.71,5.65-.81,4.12,1.66,6.78,5.07,8.27,5.37,2.35,11,4.1,16.39,6.39,14.61,6.19,19.32,14.89,16.88,30.73-1.93,12.48-11.36,20.45-25.58,21.44a54.42,54.42,0,0,1-22-3C99.24,260.79,93.91,256.09,96.82,243.47Z" transform="translate(-94.32 -174.86)"/><path class="cls-2" d="M282.07,265.41c-17.89,0-18.9-1.22-12.89-17.37,1.09-2.93,1.93-6.13-1.1-6.86a25.8,25.8,0,0,0-12.65.28c-3.2.91-2.73,4.22-.55,6.68,4.49,5.06,4.94,13.39,1.09,15.62-6.8,3.92-16.17,3.08-23.77.38-4.07-1.44-3.14-8.34-1.65-11.79,8.89-20.68,10.17-43.06,15-64.6,1.82-8.18,4.69-11.57,13-10.43a44.65,44.65,0,0,0,11.72,0c6.58-.84,8.91,2.37,10.06,8.24,3,15.3,6.3,30.53,9.66,45.74,1.4,6.37,2.56,12.54,6.07,18.61C302.12,260.4,297.16,265.4,282.07,265.41Zm-21.42-57.55a34.16,34.16,0,0,0-3.25,14.79c.08,3.08,1.84,3.93,4.43,3.92s4.8-1,4-4.07C264.6,217.86,265.84,212.39,260.65,207.86Z" transform="translate(-94.32 -174.86)"/><path class="cls-2" d="M170.12,220.64c-.83-10.79,1.14-21-3.92-31.24-2.94-5.91-1.54-13.07,9.11-12.15,9.72.85,19.59-.17,29.36.37,16.53.92,23.83,8.64,24.66,25.21.14,2.72.09,5.46,0,8.18-.95,20.18-6.95,26.6-27.09,27.36-9.09.34-13.55.83-7.85,11.7,5.51,10.51,1.32,15.28-11,15.33-2.35,0-4.75-.32-7,.06-10.81,1.82-13.43-5.53-10.13-12.32C171.58,242.13,168.94,231.1,170.12,220.64Zm21.23-12.81c.49,4.24-2.46,10.94,7.05,10.65,6.92-.21,10-3,10-9.88s-2.09-11-9.91-11.4C190.14,196.77,191.3,202.17,191.35,207.83Z" transform="translate(-94.32 -174.86)"/><path class="cls-2" d="M480.26,191.22c-6.46,7.26-3.68,16.1-4,24.35-.35,8.07-.15,16.17-.19,24.25V240c-.11,4.58.12,8.5,6.68,7.86,7.14-.69,9.71-5.22,9-11.1-1.38-11.24,4.28-13.28,13.58-11.9,2.11.31,4.19,1,4.09,3.17-.59,12.48,3.31,25.25-2.28,37.41a273.37,273.37,0,0,0-53.13-.11c-6.72-7.05-3.55-13.7.84-20.26a243.9,243.9,0,0,0,.05-47.57c-3-4.13-5.2-8.41-4.4-13.78.35-2.28.09-5.57,2.79-5.55,9.2,0,18.89-4.17,27.49,2.43C479.09,184,479.44,187.62,480.26,191.22Z" transform="translate(-94.32 -174.86)"/><path class="cls-2" d="M534.34,177.42c15.09,0,15.82,2.72,12,16.93a101.61,101.61,0,0,0,.09,53.86c3.92,13.86,2.64,17.22-12.07,17.21-18.7,0-17.45-.33-13.06-19.09a113.59,113.59,0,0,0,.08-49.91C517.08,177,515.43,177.39,534.34,177.42Z" transform="translate(-94.32 -174.86)"/><path class="cls-3" d="M476,240v-.16l1.8.15Z" transform="translate(-94.32 -174.86)"/><path class="cls-4" d="M235.8,327.66v83.19l-2.57,0c0-12.73-.37-25.47.14-38.17.33-8.41-2.17-11.79-11.25-11.6-23.11.48-46.25.32-69.35-.28-8.51-.23-12,1.92-11.47,11,.72,13.4.19,26.86.19,40.29L138.4,412V306.42c4.18,11.83,3.17,24,3.32,36.14.2,15.05.06,15.07,15.55,15.07,21.16,0,42.33-.47,63.48.14,9.51.28,13.83-2.17,12.81-12.28C233.07,340.65,232.28,335.44,235.8,327.66Z" transform="translate(-94.32 -174.86)"/><path class="cls-4" d="M322.11,404.72C355.5,415.54,387,417.06,403.44,379c11.89-27.54-.39-52.18-29.87-70.81C395.8,314.4,407,331,413.6,351.7c4.76,14.95-7.15,40.28-24,52.07C368.46,418.51,342,419.23,322.11,404.72Z" transform="translate(-94.32 -174.86)"/><path class="cls-4" d="M364.33,305.82c-16.92,2.05-33.27.85-47.24,16C303.94,336,300.43,351.5,297,368.49c-2.24-15.33,1.24-29.59,10.08-42.56C321,305.54,341,300.85,364.33,305.82Z" transform="translate(-94.32 -174.86)"/><path class="cls-4" d="M299.79,375c5.28,7.85,9.34,13.9,13.39,19.94C305.31,391.5,300.42,386,299.79,375Z" transform="translate(-94.32 -174.86)"/><path class="cls-4" d="M654.21,305.45c-17.17,0-34.34.3-51.49-.14-7.77-.2-10.54,2.5-9.82,10.14,1.4,14.9.79,29.8,2.93,44.87,1.55,10.94-1.65,23.64-1.74,35.62-.15,20.88-.13,20.87,21,20.94,12.89,0,25.79.07,38.68.19.56,0,1.11.89,1.77,4.48-12.93,0-25.87-.05-38.8,0-24,.09-24.09.13-25.81-23.29-2.1-28.37-.76-56.81-1.29-85.21-.12-6.55,2.21-9.25,8.68-9.21,18.62.1,37.25,0,55.88,0Z" transform="translate(-94.32 -174.86)"/><path class="cls-4" d="M470.29,319c3.07,32.78,0,63.66,0,96.83C466.9,410.73,467.86,329,470.29,319Z" transform="translate(-94.32 -174.86)"/><path class="cls-4" d="M531.13,356.31c-3.42,8.73-10.7,11.14-19.16,11.58C518.41,364.14,525.4,361.24,531.13,356.31Z" transform="translate(-94.32 -174.86)"/></svg>