<svg id="Layer_1" data-name="Layer 1" xmlns="http://www.w3.org/2000/svg" viewBox="0 0 759.56 242.26"><defs><style>.cls-1{fill:#ececeb;}.cls-1,.cls-2,.cls-8{stroke:#1d1d1b;stroke-miterlimit:10;}.cls-2{fill:#edede9;}.cls-3{fill:#bc9535;}.cls-4{fill:#706f6f;}.cls-5{fill:#c49a30;}.cls-6{fill:#c1952e;}.cls-7{fill:#b0903b;}.cls-22,.cls-8{fill:#e8e8e5;}.cls-9{fill:#ac8836;}.cls-10{fill:#9a7c30;}.cls-11{fill:#7c6120;}.cls-12{fill:#9e863e;}.cls-13{fill:#b48d32;}.cls-14{fill:#080a0b;}.cls-15{fill:#8a702c;}.cls-16{fill:#796632;}.cls-17{fill:#ac8633;}.cls-18{fill:#aa8f4d;}.cls-19{fill:#161615;}.cls-20{fill:#11100d;}.cls-21{fill:#2d2b24;}.cls-23{fill:#0c0b0a;}.cls-24{fill:#09080a;}.cls-25{fill:#524723;}.cls-26{fill:#130e08;}.cls-27{fill:#cb9f2c;}.cls-28{fill:#c09835;}.cls-29{fill:#22201b;}</style></defs><path class="cls-1" d="M607.86,310.93c4.93,2.78,9.6,6.67,14.89,7.9,2.77.64,7.84-2.57,9.78-5.44,6.18-9.19,9.92-9.2,15.89,1.08l4,8.77C641,338.79,629.86,354.53,618,369.7c-2.15,2.74-7.28,3.16-11,4.65-.27-3.4-1.82-7.39-.58-10.12,4.84-10.63,10.56-20.86,16-31.24l1.68-3.9-3.87-.18-4,0L611,330.38c-3.84,14.61-9.81,28-21.69,38.07-10.94,9.24-20.93,9.39-32.29.7-2.08-1.59-4.34-2.92-6.45-4.33-22.79,14.49-22.79,14.49-35.71,4.05-4.91,2-10.09,3.41-14.44,6.14-5.85,3.66-10.23,2.15-13.83-2.59-2.5-3.3-4.08-7.28-6.37-11.52l-6.57,4.54-4.22,3.14-19.78,7.87h-4.37c-11.36-.43-16.12-8.78-19.95-17.7-7,5.17-13.13,9.94-19.51,14.32-9,6.22-24.3,5.08-32.47-2.12-1.45-3.84-2.9-7.69-4.79-12.68l-10.52,12.11-21.41,5.74c-9.76-14.17-2.16-24.29,1.08-34.94.37-1.29.73-2.58,1.1-3.87l-3.94,1.15-7.82,1.29L322.94,343l-8.19,31.25c-1.32,2.1-2.65,4.19-4,6.29l-20,17.39c-21.7-1.16-13.65-16.7-12.81-29.14-4.7,2.08-8.18,4.11-11.93,5.18-8.79,2.53-17.94,4.09-25.54-2.6-7.85-6.89-7.1-16.14-4.3-25,4.74-14.92,13.24-27.31,26.69-35.91l1.88-1.55.54-.21c9.44-4.41,17.71-1.36,25.62,4,5.64,24.72-16.86,41.56-42.39,29.8,0,7.26-1.09,13.76.6,19.44.59,2,8.66,3.74,12.26,2.52,24.19-8.21,39.58-25.54,48.39-49.1l9.76-16.15c2.5-3.23,5.16-6.36,7.47-9.73,2.91-4.25,5.53-8.7,8.27-13.06,7.76,1.06,6.74,6.92,6.73,12.24L328.88,312.9l-8.67,12.35c9.94,3.84,17.7,3.66,24.88-2.23q6.18-7.77,12.34-15.56l15.84-30.31,6-.13,2.36,1.83c-.67,4.82-.19,10.21-2.25,14.35-5.13,10.35-11.31,20.19-17.27,30.11-7.42,12.33-15.22,24.46-18,42.09,20.18-10.5,29.84-26.33,39-42.65l24.23-16.52,5.91-.06c17.31,8,19.3,21.18,4.95,33.77-9.77,8.57-20.68,9.56-34.35,2.05,0,8.08-2.43,16.92.65,19.71,3.45,3.13,13.59,3.25,17.82.34,11.57-8,22-17.74,32-27.65,6.49-6.41,11.49-14.32,17.16-21.55l8.08-4,.42-.42.57.17,16.19,0L482,314q.76,5.35,1.54,10.71c-.1,1,.12,2.15-.35,2.87-3.08,4.71-6.32,10.14-12.92,6.92-1-.49,1.36-7.42,1.79-11.42.2-2,.2-4.79-.95-5.79s-4.81-.87-5.69.17c-7.8,9.26-16.07,18.31-22.34,28.55-2.54,4.13-.46,11.07-.49,16.73,5.68-.08,12,1.46,16.93-.53,24.84-10.09,36.54-31.77,46.92-53.72-2.94-3.93-12.23,5.42-9.73-6.21L497,302l11.37-4.73c2.95-1.91,6.64-3.26,8.69-5.88,3-3.84,4.83-8.59,7.16-12.95,15.48-1.52,2.84,10.07,5.43,13,4.5.94,8.47.7,10.44,2.56,1.23,1.17-.52,5.49-.93,8.39-3.45,1-7.15,1.62-10.27,3.29-3.41,1.83-6.28,4.67-9.39,7.07-10.08,15.49-20.6,30.77-24.93,52.33,20.77-10.48,30.88-26.5,39.25-44.1,2.36-5.18,4.61-10.52,12.09-8h0c.22,3.48.44,7,.67,10.43l-.36.32-1.51,1.28-17.16,36.53,3.89,2.42c16.88-7.95,25.68-23.76,35.31-38.77L584,310.5C592,308.83,600,303.57,607.86,310.93Zm-204.18,8.94-12.39,11.78c12.81,7.21,18.55,0,24.47-6.7q1.51-4.87,3-9.74c-2.64-.75-5.78-2.75-7.81-1.95C408.13,314.37,406.08,317.56,403.68,319.87Zm162,34.07c-.39,8.89,4.24,12,11.12,8.22C589.91,355,597,342.91,600.49,329c.79-3.18-3.13-8-5.8-11.28-.78-1-5.32-.17-7.13,1.17C575.25,328.08,570,341.63,565.68,353.94ZM286,383l4.35,2.21c13.35-12.23,20.09-27.8,23.4-45.12l-3.19-1.67Zm-3.82-63.16-4.65-4.54L257,329.87l1.64,4.77c4.68-.58,10.31.25,13.8-2.09C276.67,329.73,279,324.21,282.2,319.85Z" transform="translate(-16.22 -184.87)"/><path class="cls-2" d="M226.35,283.11c12.74,9.18,9.56,23.57,11,33.54-15,31.56-38.09,52.41-69.75,64,21.64,9.21,42.21,17.88,62.69,26.74,4.57,2,9.61,3.87,13,7.22,3,3,4,7.91,5.94,12-3.88,0-7.77.06-11.65,0a10.24,10.24,0,0,1-2.81-.91,1,1,0,0,0-1.34-.68l-22.5-12.66Q183,402,155.13,391.62c-2.77-1-5.62-1.81-8.44-2.7,1.55-3.79,2.11-8.79,4.9-11.08,3.95-3.24,9.66-4.25,14.43-6.6C188.49,360.16,208,345.69,220,323c9.25-22.07,2.62-35.67-17.4-35.71-14.47-2.19-27.49,2.33-40.14,8.58l-7,4.49L136.38,313.7c-1.39,2.16-2.79,4.31-4.19,6.47-6.53,6.34-13.18,12.57-19.56,19.05-3.74,3.8-7.31,9.43-13.09,4.79-5.48-4.4-5.21-11.17-.5-16,9.49-9.7,19.68-18.72,29.69-27.89,2.67-2.45,5.77-4.43,8.67-6.63l17.13-8.91,7.86-2.57,38.33-7.14Z" transform="translate(-16.22 -184.87)"/><path class="cls-3" d="M651.94,210.72a9.29,9.29,0,0,0,.19-1.67c.64-6.65,4.48-8.65,10.87-8.42,4.42.17,8.9-1.11,13.35-1.74l46.72,1.56c11.62,7.93,15.28,21.93,9.29,35.87-1.17,2.72-2.7,5.29-4.06,7.93L709.18,257c3.94,6.72,7.72,13.19,11.5,19.66-6-.48-16.36,3.39-9.71-9.83.41-.83-1.69-3.46-3.15-4.59-3.72-2.9-7.73-5.42-11.63-8.09,19.36-11.59,19.46-36.23.21-47.06l-19.64.72c-.11,3.65-.23,7.3-.34,10.95l-2.25,30.08c0,3.32,0,6.63-.07,9.95l0,4.08c0,4,0,8,0,11.93q0,3,0,6.09L671,291.87c-11.19,1.5-14.63-1.08-14.71-11.36-.15-18.58-.07-37.16-.08-55.74,0-2,0-3.94,0-5.91Q654.07,214.8,651.94,210.72Z" transform="translate(-16.22 -184.87)"/><path class="cls-4" d="M720.68,276.69c-3.78-6.47-7.56-12.94-11.5-19.66l19.12-12.78c-1.49,2.46-2.4,5.83-4.58,7.21-8.86,5.61-7.35,12.75-2.5,19.23,10.95,14.63,22.55,28.77,34.07,43,3.79,4.68,3.78,8.26-1.81,11.11-2.92,1.48-5.93,2.79-8.89,4.18h-4l-6-3.95-2,3.93-12,0-4-4-29.31-49.15-4.27.68q-1.26,18.15-2.51,36.3c-.73-3.29-1.65-6.55-2.14-9.88-.77-5.31-1.24-10.66-1.85-16V218.79c.11-3.65.23-7.3.34-10.95l19.64-.72c19.25,10.83,19.15,35.47-.21,47.06L692.37,257c-9.51.41-10.39,1.79-6,9.1,8.67,14.37,18.12,28.36,25.66,43.31,5.9,11.67,14.17,15.67,26.3,13.56,4.1-.71,8.09-2.06,12.13-3.11-2.31-2.58-4.67-5.1-6.9-7.74a34.54,34.54,0,0,1-2-3.4q-10.46-16-20.93-32Z" transform="translate(-16.22 -184.87)"/><path class="cls-5" d="M620.67,284a.69.69,0,0,1-.22,1c-1.47,1.47-3,2.88-4.4,4.43-3,3.42-5.58,7.49-9.17,10.17-2,1.46-5.68.91-8.53.59-.79-.09-2.05-2.7-1.84-4,1.1-6.69,1.1-14.15,4.24-19.82,8.71-15.66-1.68-30.14-1.6-45.17,0-3.37-4.9-6.76-7.55-10.15-3.2-9.59-10.25-14.25-20-15.51-4.27-6.47-13.83-6.81-19.77-.71a1.86,1.86,0,0,1-1.61.14c-6.72-.83-12.4.21-14.34,8l0,0c-6.24-1.06-8.91,1.62-8.23,7.81l-8-3.9.15-5.91,2-2,23.93-12.19,0,0,34,.15c12.26,5.31,27.06,6.33,34.32,20.13.22,1.48.12,3.1.72,4.41C620.57,234,625.73,246.69,624,261,623.06,268.64,621.79,276.29,620.67,284Z" transform="translate(-16.22 -184.87)"/><path class="cls-6" d="M104.88,289c-4,9.68-7.88,19.41-12.08,29-.82,1.86-2.9,3.17-4.39,4.73-1.54-1.48-3.47-2.74-4.51-4.52s-1.4-4.33-2.05-6.53c-2-7.75-3.22-15.87-6.34-23.16-5-11.67-13.41-22.25-16.43-34.28-3.74-15-10.23-27.61-20.74-40.46,10.22-.26,7.45-7.34,7.7-13h8.09l4,7.95c2.68,5.1,5.52,10.13,8,15.32,7.11,14.78,14.09,29.63,21.12,44.45l3,6.6C90.28,288.65,90.28,288.65,104.88,289ZM57.14,218l-2.64.15.91,5.71,1.73-.24Z" transform="translate(-16.22 -184.87)"/><path class="cls-4" d="M459.54,362.17c-4.9,2-11.25.45-16.93.53,0-5.66-2.05-12.6.49-16.73,6.27-10.24,14.54-19.29,22.34-28.55.88-1,4.59-1.13,5.69-.17s1.15,3.83.95,5.79c-.43,4-2.79,10.93-1.79,11.42,6.6,3.22,9.84-2.21,12.92-6.92.47-.72.25-1.9.35-2.87Q482.8,319.32,482,314l-5.3-5.39-3.21-3.08-2-8.57c3.45,2,6.91,4,11.71,6.72,1.81-3.85,4.05-8.59,6.13-13l7.39,11.63c-2.5,11.63,6.79,2.28,9.73,6.21" transform="translate(-16.22 -184.87)"/><path class="cls-7" d="M104.88,289c-14.6-.38-14.6-.38-14.7-13.9,2,2.54,3.94,5.07,7,9.08,5.44-11.78,10.53-22.38,15.26-33.13C119.19,235.8,126,220.56,132,205c2.64-6.82,6.32-9,13.43-8.33,7.28.71,14.71-.19,22,.23,2.73.16,5.37,2.06,8,3.16l-7.4,4.59-5.79,0c-5.11-5.2-22.08-6-25.69-.74-1.37,2-1.36,5.49-.88,8.09,2,10.44,5.16,20.71,6.33,31.22,1.11,9.87.23,19.95.24,29.94,0,13.25.66,13.65,12.14,7.75l0,3.64L137.4,293.5v-61l-4.05-.61Z" transform="translate(-16.22 -184.87)"/><path class="cls-4" d="M387.35,270.85c-1.35-3.25-3.8-6.48-3.87-9.77-.4-16.88-.19-33.78-2.17-51.21-1.22,1.88-2.45,3.75-3.69,5.65-8.26-6.34-11.27-23.94-7.09-28,6.56,2,11.68,4.77,16.91,5,13.11.58,26.59,2.2,38.16-7,1.73-1.38,5.52-.2,11.44-.2l-8.44,5.08c0,.78,0,1.57,0,2.36,5.4,0,10.88.61,16.18-.11,21.54-2.95,34.75,17,30.38,36.52-1.6,7.12-2.9,12.53,3.59,17.43.84.62.32,3,.34,3.34-8.76,2.57-16.83,4.71-24.68,7.46-1.26.44-1.56,3.6-2.3,5.51,8.38,3.21,10.17,12.07,15.45,17.95h0q-.34,4.22-.67,8.45l-7.06-7.17c-4.88-8.45-9.76-16.91-14-24.31,7.17-5.87,14.62-10.2,19.67-16.45,12.81-15.85,4.84-39.22-14.18-43.81l-39.73,0c-10.29-.17-20.58-.49-30.86-.39-1.78,0-3.53,1.84-5.3,2.82q1.5,1.58,3,3.16l9.28,7.51.3,2.26c.07,1.29.14,2.58.2,3.87Q387.78,243.83,387.35,270.85Z" transform="translate(-16.22 -184.87)"/><path class="cls-8" d="M682.73,341.13l8.32-7.16,2.92,2.11c-3.93,7.05-6.84,15-12.06,20.9-6.15,7-9.87,16.6-21.55,18.61-6.11,1.05-10.9,1.71-13.48-3.54-2.37-4.82-4.74-11.58-3.1-16,3.79-10.27,10-19.65,15.21-29.41.71-1.32,1.18-2.77,2.82-6.67l-9.42,3.27-4-8.77,2.08-1.76c7.08-3.13,13.93-9.2,21.82-1.63q1.32,6.06,2.65,12.11l-19.38,38.62c12.08-1.4,18.48-9.92,25.27-17.92Z" transform="translate(-16.22 -184.87)"/><path class="cls-8" d="M162.79,313.75c3.74-4.16,7.08-8.82,11.38-12.29,2.53-2,6.6-2.17,10-3.16-.26,3.51.7,7.81-1,10.41-11.85,18.36-24.64,36.13-36.26,54.63-4.88,7.77-7.66,16.86-11.39,25.35l-10.07,4c-.32-3.89-2.24-8.62-.71-11.55,9.79-18.77,20.34-37.15,30.63-55.65l3.57-6.31-.09.14Z" transform="translate(-16.22 -184.87)"/><path class="cls-3" d="M335.28,276.41c-2.74,4.36-5.36,8.81-8.27,13.06-2.31,3.37-5,6.5-7.47,9.73l-20.62-34.32c-.67-2.75-1.35-5.5-2-8.24l2.44,2,23.47-16.39q-1.08,4.89-2.17,9.77l2.44,2.11c6.72-7.24,13.71-14.26,20-21.86,2.05-2.48,3.72-6.79,3-9.68-1.44-6.18-4.52-12-6.93-17.93l3.55.28c8.37,10.89,8.54,24.73.44,35.88l-.8-.42.78.45L330,260.51l-5.36-3.67Q330,266.62,335.28,276.41Z" transform="translate(-16.22 -184.87)"/><path class="cls-9" d="M46,200.8c-.25,5.67,2.52,12.75-7.7,13,10.51,12.85,17,25.51,20.74,40.46,3,12,11.45,22.61,16.43,34.28,3.12,7.29,4.29,15.41,6.34,23.16L45.66,231.4,40,224.85c-.65,2.81-1.85,5.61-1.87,8.42q-.24,31.5,0,63c0,2.83,1.13,5.65,1.73,8.48q1,2.1,2,4.2a3.42,3.42,0,0,1,.37,1.63L44,312.91l.07,0,6,9L22,321.82,28,313l.1-.06h2c1.31-3.28,3.72-6.56,3.76-9.86.3-28.92.26-57.85.1-86.77,0-4.75-1.1-9.5-1.84-15.5Z" transform="translate(-16.22 -184.87)"/><path class="cls-4" d="M383.06,322.75c-9.15,16.32-18.81,32.15-39,42.65,2.8-17.63,10.6-29.76,18-42.09,6-9.92,12.14-19.76,17.27-30.11,2.06-4.14,1.58-9.53,2.25-14.35l5.8.11c.12,5,.44,10,.29,15-.26,8.69,2.62,18.31-6.72,24.65C380.81,318.68,382.33,321.29,383.06,322.75Z" transform="translate(-16.22 -184.87)"/><path class="cls-10" d="M264.41,213c-.4-1.39-.81-2.78-1.21-4.17a64.68,64.68,0,0,1-7.29-4.19c-1.63-1.23-2.74-3.14-4.08-4.75,1.73-1.06,3.45-3,5.19-3.06,23.83-.15,47.66-.15,71.49.18,3,.05,6,2.2,9,3.37l-.66.77-62-.34h-9.81c2,12.57,4.88,24,5.51,35.52.93,16.94-.36,34,.72,50.92.3,4.71,4.77,11.85,8.77,13,7.28,2.17,7-5.56,8.1-10.56.09-.4,1.11-.59,1.69-.88.4,1.38.81,2.77,1.21,4.16l.37,13.85.57,3.89-1.09,2c-7.91-5.35-16.18-8.4-25.62-4-.05-1.23-.1-2.44-.16-3.66Q264.78,259,264.41,213Z" transform="translate(-16.22 -184.87)"/><path class="cls-11" d="M383.06,322.75c-.73-1.46-2.25-4.07-2.08-4.19,9.34-6.34,6.46-16,6.72-24.65.15-5-.17-10-.29-15l-.06-8.11q.42-27,.85-54.05c.4,3.57,1,7.14,1.17,10.73.68,15.23,1.23,30.46,1.83,45.7-.31,2.34-.62,4.68-1,7.6,13.51-5.75,17.06-3.3,17.14,10.65,0,4.91,0,9.83,0,14.75Z" transform="translate(-16.22 -184.87)"/><path class="cls-4" d="M614.09,217c-7.26-13.8-22.06-14.82-34.32-20.13l-34-.15,0,0-26,10c1.13-11.12,11.53-10.08,18.28-13.79,1.31-.72,3.08-.61,5.62-1-2.09-2.32-3.53-3.91-5.33-5.89l44.92,7.4c-1-3.71-1.45-5.69-2-7.9h19.15c-2.49,13.94,3,17.26,20.93,11.6-1.91,7.09-3.66,13.58-5.4,20.07A11.19,11.19,0,0,0,614.09,217Z" transform="translate(-16.22 -184.87)"/><path class="cls-10" d="M672.32,311.08c-7.89-7.57-14.74-1.5-21.82,1.63q.25-48.93.52-97.84l5.2,4c0,2,0,3.94,0,5.91-.66,2.47-1.87,4.94-1.89,7.42-.16,18.34.21,36.7-.22,55-.19,8.53,4.08,9.56,11.17,9.9,8.23.39,9.83-3.4,9-10.2-.23-2-.14-4-.2-6s0-4.06,0-6.09c0-4,0-7.95,0-11.93l0-4.08.06-9.95,2.25-30.08q0,34.05,0,68.09Q674.37,299,672.32,311.08Z" transform="translate(-16.22 -184.87)"/><path class="cls-12" d="M46,200.8H32.09c.74,6,1.82,10.75,1.84,15.5.16,28.92.2,57.85-.1,86.77,0,3.3-2.45,6.58-3.76,9.86.67-5.56,1.85-11.12,1.9-16.69.23-24.57.19-49.15.09-73.73,0-3.88-.89-7.75-1.37-11.63-3.4-2.15-6.93-4.13-10.15-6.52C19,203.2,18,201.28,16.69,199.7c1.5-1,3-2.84,4.49-2.87,11-.27,22-.34,33,0a7.14,7.14,0,0,1,5.21,3.55c9.38,21.33,18.5,42.77,27.6,64.22.48,1.15.17,2.63.21,3.95-7-14.82-14-29.67-21.13-44.45-2.5-5.19-5.34-10.22-8-15.32l-4-7.95Z" transform="translate(-16.22 -184.87)"/><path class="cls-12" d="M591.6,221c2.65,3.39,7.57,6.78,7.55,10.15-.08,15,10.31,29.51,1.6,45.17-3.14,5.67-3.14,13.13-4.24,19.82-.21,1.26,1,3.87,1.84,4,2.85.32,6.57.87,8.53-.59,3.59-2.68,6.13-6.75,9.17-10.17,1.38-1.55,2.93-3,4.4-4.43-2.83,5.52-5.72,11-8.45,16.56-1.51,3.08-2.77,6.28-4.14,9.42-7.82-7.36-15.87-2.1-23.86-.43-.12-.67-.23-1.34-.35-2,4.84-9.29,12-18.09,14-28C601.94,260.47,600.61,240.16,591.6,221Z" transform="translate(-16.22 -184.87)"/><path class="cls-4" d="M508.35,297.26,497,302c.3-5.68,3.08-10.74-.6-17.2-2.69-4.72-.53-12.18-.53-18.68H485.12c1.56-3.45,2.38-8,3.93-8.22,7.88-1.34,6.48-6.91,6.66-12.06.51-14.06,6.75-26,14.59-37.14,1.06-1.5,5-1,7.61-1.4l-6.79,10.83.07.15L509.48,220a2.55,2.55,0,0,0-1.66,1.06c-11,21.69-13.54,43.92-4.33,66.92Z" transform="translate(-16.22 -184.87)"/><path class="cls-13" d="M459.86,282.17l7.06,7.17.18,0,3.89,6.49a.81.81,0,0,0,.51,1.07l2,8.56-13,3.12-.57-.17-.42.42-7.4,2.26L431,277.45c5.34-1.18,6.41,1.92,9,6.1,3.37,5.47,10.14,8.85,15.45,13.13,2-2.68,4.44-5.15,5.65-8.14C461.73,286.85,460.33,284.32,459.86,282.17Z" transform="translate(-16.22 -184.87)"/><path class="cls-14" d="M233.42,425" transform="translate(-16.22 -184.87)"/><path class="cls-15" d="M328.88,312.9,342,288.65c2.76,3.79,5.38,7.69,8.32,11.34,2.15,2.66,4.72,5,7.1,7.47L345.1,323l-1.78-2.52c1.95-2.55,4.33-4.88,5.7-7.71.94-1.94.48-4.56.65-6.88-2.26.55-4.92.54-6.7,1.79-2.6,1.81-4.56,4.53-6.8,6.87l2.82,6Z" transform="translate(-16.22 -184.87)"/><path class="cls-16" d="M226.35,283.11l-25.63-8.23,1.2-14.73c.3,6.66,3.18,9.87,10.43,9,3.38-.42,7,.92,10.49,1.46.63-16.72,1.13-33.45,1.95-50.16.25-5.17,1.37-10.3,2.09-15.45l5.92-.13c-6.85,3.53-6.42,9.72-5.88,15.95Z" transform="translate(-16.22 -184.87)"/><path class="cls-12" d="M154.53,284.59l0-3.64c1.31-2.93,3.7-5.85,3.75-8.8.37-19.5.08-39,.44-58.52.06-3,2.39-6,3.67-8.94l5.79,0c-2,2.62-5.76,5.2-5.8,7.85-.36,23.16-.06,46.34,0,69.51Z" transform="translate(-16.22 -184.87)"/><path class="cls-11" d="M136.38,313.7l19.09-13.37q1.69,9.51,3.38,19l.09-.14-4.86,1.91-16.18-1.26C137.4,317.82,136.89,315.76,136.38,313.7Z" transform="translate(-16.22 -184.87)"/><path class="cls-17" d="M222.84,270.6c-3.5-.54-7.11-1.88-10.49-1.46-7.25.88-10.13-2.33-10.43-9,0-.87.06-1.73.1-2.6q.48-7.43.95-14.82c1.22,3.38,3.43,6.76,3.44,10.15,0,6.06,2.09,8.66,8.21,8,2.64-.27,5.34-.07,8-.08Z" transform="translate(-16.22 -184.87)"/><path class="cls-4" d="M740.59,328.93h4c2.93,1.34,5.74,3.17,8.81,3.91,7.39,1.76,14.91,3,22.38,4.47l-.73,4.56c-7.28-1.07-14.57-2.1-21.84-3.23-2.89-.45-5.75-1.12-8.62-1.7l-8-8Z" transform="translate(-16.22 -184.87)"/><path class="cls-18" d="M232.8,204.86l-5.92.13-.16-.2c-5.19-5.63-21.82-5.89-28-.44l-4.27.53L186,201.1c.39-1.37.77-2.74,1.16-4.12h51.58c.17,2.08.33,4.15.5,6.23l-.22.06-6.25,1.59Z" transform="translate(-16.22 -184.87)"/><path class="cls-12" d="M614.09,217a11.19,11.19,0,0,1,1.83.13c12,21.54,14.2,43.77,4.75,66.83,1.12-7.66,2.39-15.31,3.33-23,1.73-14.27-3.43-27-9.19-39.56C614.21,220.09,614.31,218.47,614.09,217Z" transform="translate(-16.22 -184.87)"/><path class="cls-16" d="M30.69,210.88c.48,3.88,1.35,7.75,1.37,11.63.1,24.58.14,49.16-.09,73.73,0,5.57-1.23,11.13-1.9,16.69h-2q1.13-44.58,2.27-89.17C30.44,219.46,30.57,215.17,30.69,210.88Z" transform="translate(-16.22 -184.87)"/><path class="cls-11" d="M40,224.85l5.68,6.55c-1.26,2.74-3.58,5.46-3.61,8.21-.29,23.12-.16,46.24-.16,69.36l-2-4.2Q39.91,264.81,40,224.85Z" transform="translate(-16.22 -184.87)"/><path class="cls-10" d="M723.07,200.45l-46.72-1.57-36.56-.6c3.5-.48,7-1.33,10.49-1.36,20.29-.17,40.58-.35,60.87,0C715.14,197,719.1,199.21,723.07,200.45Z" transform="translate(-16.22 -184.87)"/><path class="cls-9" d="M511.11,218.11q3.4-5.42,6.8-10.83c.62-.2,1.23-.41,1.85-.6l26-10-23.93,12.19-2,2-.15,5.91Z" transform="translate(-16.22 -184.87)"/><path class="cls-7" d="M639.79,198.28l36.56.6c-4.45.64-8.93,1.92-13.35,1.75-6.39-.23-10.23,1.77-10.87,8.42l-12.28-5.77-.06-4.72Z" transform="translate(-16.22 -184.87)"/><path class="cls-16" d="M203,242.73q-.47,7.4-.95,14.82-.71-24.39-1.4-48.77l.64-.53Z" transform="translate(-16.22 -184.87)"/><path class="cls-16" d="M50.08,321.91l-6-9c2.57.18,5.42-.25,7.62.74,1.84.83,2.93,3.33,4.35,5.08Z" transform="translate(-16.22 -184.87)"/><path class="cls-16" d="M28,313l-6,8.84-5.75-2.31c1-1.85,1.58-4.66,3.1-5.32C21.89,313.07,25.05,313.31,28,313Z" transform="translate(-16.22 -184.87)"/><path class="cls-16" d="M136.38,313.7c.51,2.06,1,4.12,1.52,6.16-1.91.09-3.81.2-5.71.31C133.59,318,135,315.86,136.38,313.7Z" transform="translate(-16.22 -184.87)"/><path class="cls-19" d="M379.25,277l-6,.13c.28-2.41.55-4.83.82-7.24l2.38-.54Z" transform="translate(-16.22 -184.87)"/><path class="cls-7" d="M656.22,218.86l-5.2-4c.3-1.38.61-2.76.92-4.15Q654.07,214.8,656.22,218.86Z" transform="translate(-16.22 -184.87)"/><path class="cls-20" d="M487.65,232.82l1.09-6.94,3,1.26-4.07,5.68Z" transform="translate(-16.22 -184.87)"/><path class="cls-16" d="M239.26,203.21c-.17-2.08-.33-4.15-.5-6.23l3.15,1.92Z" transform="translate(-16.22 -184.87)"/><path class="cls-20" d="M467.58,280.88l1.05-5.09,2.49.9-3.53,4.2Z" transform="translate(-16.22 -184.87)"/><path class="cls-16" d="M154.08,321.12l4.86-1.91-3.57,6.31Z" transform="translate(-16.22 -184.87)"/><path class="cls-20" d="M517.24,193.66l1.59.69c-.23.53-.34,1.36-.72,1.5s-1-.37-1.57-.6C516.78,194.72,517,194.19,517.24,193.66Z" transform="translate(-16.22 -184.87)"/><path class="cls-16" d="M232.79,204.86l6.25-1.59Z" transform="translate(-16.22 -184.87)"/><path class="cls-16" d="M194.49,204.88l4.27-.52a8.3,8.3,0,0,0,.78,1.65l-.62.49Z" transform="translate(-16.22 -184.87)"/><path class="cls-10" d="M342.73,205l-3.55-.28c-.06-.59-.13-1.19-.22-1.77l1-.93C340.86,203,341.8,204,342.73,205Z" transform="translate(-16.22 -184.87)"/><path class="cls-10" d="M639.79,198.56l.06,4.72Z" transform="translate(-16.22 -184.87)"/><path class="cls-16" d="M44,312.91l-1.75-2.31Z" transform="translate(-16.22 -184.87)"/><path class="cls-16" d="M200.62,208.78l-1.7-2.28.61-.49c.58.75,1.16,1.49,1.73,2.24Z" transform="translate(-16.22 -184.87)"/><path class="cls-10" d="M337.52,200.34l2.4,1.64c-.31.31-.63.62-1,.92l-2.1-1.79Z" transform="translate(-16.22 -184.87)"/><path class="cls-4" d="M591.6,221c9,19.12,10.34,39.43,6.09,59.49-2.08,9.87-9.2,18.67-14,28-11.92,7.17-24.67,7.28-37.77,4.41h0l-6.75-10.56c.41-2.9,2.16-7.22.93-8.39-2-1.86-5.94-1.62-10.44-2.56-2.59-2.91,10-14.5-5.43-13q1.95-27.24,3.91-54.47L536,212.89l0,0,14.34-8a1.86,1.86,0,0,0,1.61-.14l19.77.71C581.35,206.79,588.4,211.45,591.6,221Zm-38.93,64.25c-3.09,5.95-6.11,9.15-5.84,12.06.21,2.34,4.87,6.4,6.7,6,2.9-.66,7-4.36,7.07-6.91C560.71,293.68,556.82,290.77,552.67,285.29Z" transform="translate(-16.22 -184.87)"/><path class="cls-4" d="M431,277.45l21.18,33.66a11.72,11.72,0,0,1-.68,1.73c-5.67,7.23-10.67,15.14-17.16,21.55-10,9.91-20.46,19.7-32,27.65-4.23,2.91-14.37,2.79-17.82-.34-3.08-2.79-.65-11.63-.65-19.71,13.67,7.51,24.58,6.52,34.35-2.05,14.35-12.59,12.36-25.77-4.95-33.77l0-97.41.11-.22,2.36-1.53c2.64,0,5.29-.09,7.93-.07,16.54.1,23.31,7.14,23.3,23.61,0,15.86-10.55,22.17-23.42,26.59l-4.05,1.36,4,6.43,0,0q2.7,4.24,5.41,8.47l.54-.36-.58.29,2.29,3.93Z" transform="translate(-16.22 -184.87)"/><path class="cls-17" d="M528.11,224q-2,27.24-3.91,54.47c-2.33,4.36-4.15,9.11-7.16,12.95-2,2.62-5.74,4-8.69,5.88L503.49,288c1.43-19-4-38.44,4.14-57,1.75-4,2.4-8.46,3.56-12.71l-.07-.15,8.6-1.31,8,3.9Z" transform="translate(-16.22 -184.87)"/><path class="cls-4" d="M290.92,312.69l1.09-2,2.81.37,15,4.27c-8.81,23.56-24.2,40.89-48.39,49.1-3.6,1.22-11.67-.54-12.26-2.52-1.69-5.68-.6-12.18-.6-19.44C274.06,354.25,296.56,337.41,290.92,312.69Z" transform="translate(-16.22 -184.87)"/><path class="cls-4" d="M565.68,353.94c4.33-12.31,9.57-25.86,21.88-35,1.81-1.34,6.35-2.13,7.13-1.17,2.67,3.31,6.59,8.1,5.8,11.28-3.45,13.88-10.58,26-23.69,33.13C569.92,365.91,565.29,362.83,565.68,353.94Z" transform="translate(-16.22 -184.87)"/><path class="cls-4" d="M533.8,320.94c-8.37,17.6-18.48,33.62-39.25,44.1,4.33-21.56,14.85-36.84,24.93-52.33Z" transform="translate(-16.22 -184.87)"/><path class="cls-4" d="M309.78,315.35l-15-4.28c1.07-7,2.93-13.93,3-20.91s-2-13.66-2.58-20.54c-.12-1.48,2.4-3.16,3.71-4.74l20.62,34.32Z" transform="translate(-16.22 -184.87)"/><path class="cls-4" d="M566.72,325.11c-9.63,15-18.43,30.82-35.31,38.77l-3.89-2.42,17.16-36.52,1.51-1.29.35-.32Z" transform="translate(-16.22 -184.87)"/><path class="cls-15" d="M413.17,208.76l0,97.41-5.91.06c0-4.92.07-9.84,0-14.75-.08-14-3.63-16.4-17.14-10.65.38-2.92.69-5.26,1-7.61,3.26-.11,6.56-.6,9.77-.23,8,.9,11.9-1.75,10-10.26.08-8.92-.06-17.85.3-26.76C411.67,226.89,412.53,217.83,413.17,208.76Z" transform="translate(-16.22 -184.87)"/><path class="cls-4" d="M286,383l24.56-44.58,3.19,1.67c-3.31,17.32-10,32.89-23.4,45.12Z" transform="translate(-16.22 -184.87)"/><path class="cls-16" d="M566.72,325.11l-20.18-1.78-.66-10.43c13.1,2.87,25.85,2.76,37.77-4.41.12.67.23,1.34.35,2Z" transform="translate(-16.22 -184.87)"/><path class="cls-21" d="M415.76,325c-5.92,6.72-11.66,13.91-24.47,6.7l12.39-11.78,11.63-3.81C415.51,319.93,415.63,322.44,415.76,325Z" transform="translate(-16.22 -184.87)"/><path class="cls-21" d="M282.2,319.85c-3.16,4.36-5.53,9.88-9.72,12.7-3.49,2.34-9.12,1.51-13.8,2.09L257,329.87l20.51-14.56Z" transform="translate(-16.22 -184.87)"/><path class="cls-16" d="M533.8,320.94l-14.32-8.23c3.11-2.4,6-5.24,9.39-7.07,3.12-1.67,6.82-2.24,10.27-3.29l6.75,10.56C538.41,310.42,536.16,315.76,533.8,320.94Z" transform="translate(-16.22 -184.87)"/><path class="cls-21" d="M343.32,320.5,345.1,323c-7.19,5.89-15,6.07-24.89,2.23l8.67-12.35L339,320.61Z" transform="translate(-16.22 -184.87)"/><path class="cls-4" d="M373.39,371l-15.31-.57,10.52-12.11C370.49,363.26,371.94,367.11,373.39,371Z" transform="translate(-16.22 -184.87)"/><path class="cls-22" d="M415.76,325c-.13-2.51-.25-5-.45-8.89l-11.63,3.81c2.4-2.31,4.45-5.5,7.31-6.61,2-.8,5.17,1.2,7.81,1.95Q417.27,320.08,415.76,325Z" transform="translate(-16.22 -184.87)"/><path class="cls-22" d="M460.53,308.6l13-3.12,3.21,3.09Z" transform="translate(-16.22 -184.87)"/><path class="cls-22" d="M482,314q.76,5.35,1.54,10.71Q482.8,319.32,482,314Z" transform="translate(-16.22 -184.87)"/><path class="cls-22" d="M451.46,312.84a11.72,11.72,0,0,0,.68-1.73l7.4-2.26Z" transform="translate(-16.22 -184.87)"/><path class="cls-23" d="M314.75,374.21c.35,7.69.35,7.69-4,6.29C312.1,378.4,313.43,376.31,314.75,374.21Z" transform="translate(-16.22 -184.87)"/><path class="cls-21" d="M622.33,333l-2.19-4.08,3.87.18Z" transform="translate(-16.22 -184.87)"/><path class="cls-21" d="M473.69,365.44l-4.22,3.14Z" transform="translate(-16.22 -184.87)"/><path class="cls-21" d="M616.12,328.93,611,330.38Z" transform="translate(-16.22 -184.87)"/><path class="cls-23" d="M337.75,341.18l-2.84-2.72,3.94-1.15C338.48,338.6,338.12,339.89,337.75,341.18Z" transform="translate(-16.22 -184.87)"/><path class="cls-23" d="M327.09,339.75,322.94,343Z" transform="translate(-16.22 -184.87)"/><path class="cls-21" d="M449.69,376.45h0Z" transform="translate(-16.22 -184.87)"/><path class="cls-24" d="M262.88,310.46l1.88-1.55Z" transform="translate(-16.22 -184.87)"/><path class="cls-16" d="M546.19,323.65l-1.51,1.29Z" transform="translate(-16.22 -184.87)"/><path class="cls-25" d="M672.32,311.08q2-12.1,4.09-24.2c.61,5.33,1.08,10.68,1.85,16,.49,3.33,1.41,6.59,2.14,9.88l3.77.28,4.1,1.4,3.42,5.94c-1.63.82-3.19,2.15-4.88,2.35-3.91.45-7.89.34-11.84.46Q673.65,317.14,672.32,311.08Z" transform="translate(-16.22 -184.87)"/><path class="cls-24" d="M716.49,324.92l4,4Z" transform="translate(-16.22 -184.87)"/><path class="cls-26" d="M688.27,314.43l-4.1-1.4Z" transform="translate(-16.22 -184.87)"/><path class="cls-21" d="M682.73,341.13l-1.87,2.76Z" transform="translate(-16.22 -184.87)"/><path class="cls-24" d="M264.41,213q.38,46,.73,92.08c-.76-2.06-2.18-4.12-2.19-6.19q-.22-40.67,0-81.33C262.93,216,263.89,214.48,264.41,213Z" transform="translate(-16.22 -184.87)"/><path class="cls-15" d="M220,323c-9-.2-17.92-.24-26.87-.73-1.95-.11-3.95-1.71-5.58-3.05-.29-.24,1-3.62,1.76-3.74,17.12-2.48,11.46-16.16,13.11-26.22.11-.65.12-1.31.17-2C222.62,287.3,229.25,300.9,220,323Z" transform="translate(-16.22 -184.87)"/><path class="cls-16" d="M158.85,319.35q-1.69-9.51-3.38-19l7-4.49q.16,9,.32,17.91Z" transform="translate(-16.22 -184.87)"/><path class="cls-27" d="M692.37,257l3.82-2.83c3.9,2.67,7.91,5.19,11.63,8.09,1.46,1.13,3.56,3.76,3.15,4.59-6.65,13.22,3.7,9.35,9.71,9.83l0,.05c1.84,5.3,3.17,10.85,5.63,15.84,3.91,8,8.58,15.56,13,23.52H721.19c-.46-4.39-.83-8-1.2-11.52l-2.6,1.54c-6.37-10.3-12.74-20.6-19.43-31.4.67-2.12,1.59-5.07,2.7-8.64l-11.39-2.25Z" transform="translate(-16.22 -184.87)"/><path class="cls-7" d="M674.11,280.92c.06,2,0,4,.2,6,.81,6.8-.79,10.59-9,10.2-7.09-.34-11.36-1.37-11.17-9.9.43-18.33.06-36.69.22-55,0-2.48,1.23-4.95,1.89-7.42,0,18.58-.07,37.16.08,55.74.08,10.28,3.52,12.86,14.71,11.36Z" transform="translate(-16.22 -184.87)"/><path class="cls-10" d="M696.4,207.12l-19.64.72Z" transform="translate(-16.22 -184.87)"/><path class="cls-7" d="M674.08,262.9c0,4,0,8,0,11.93C674.07,270.85,674.08,266.87,674.08,262.9Z" transform="translate(-16.22 -184.87)"/><path class="cls-7" d="M674.17,248.87l-.06,9.95Z" transform="translate(-16.22 -184.87)"/><path class="cls-3" d="M692.37,257l-3.1,6.82,11.39,2.25c-1.11,3.57-2,6.52-2.7,8.64,6.69,10.8,13.06,21.1,19.43,31.4l2.6-1.54c.37,3.56.74,7.13,1.2,11.52H739.3c-4.46-8-9.13-15.56-13-23.52-2.46-5-3.79-10.54-5.63-15.84q10.49,16,20.94,32a34.54,34.54,0,0,0,2,3.4c2.23,2.64,4.59,5.16,6.9,7.74-4,1.05-8,2.4-12.13,3.11-12.13,2.11-20.4-1.89-26.3-13.56-7.54-14.95-17-28.94-25.66-43.31C682,258.8,682.86,257.42,692.37,257Z" transform="translate(-16.22 -184.87)"/><path class="cls-24" d="M736.56,329l-2-4,6,3.95Z" transform="translate(-16.22 -184.87)"/><path class="cls-9" d="M571.64,205.53l-19.77-.71C557.81,198.72,567.37,199.06,571.64,205.53Z" transform="translate(-16.22 -184.87)"/><path class="cls-9" d="M545.79,196.71l34,.15Z" transform="translate(-16.22 -184.87)"/><path class="cls-9" d="M528.11,224l-.39-3.25c-.68-6.19,2-8.87,8.23-7.81Z" transform="translate(-16.22 -184.87)"/><path class="cls-9" d="M550.26,205l-14.34,8C537.86,205.17,543.54,204.13,550.26,205Z" transform="translate(-16.22 -184.87)"/><path class="cls-17" d="M519.87,210.89l2-2Z" transform="translate(-16.22 -184.87)"/><path class="cls-9" d="M57.14,218v5.62l-1.73.24-.91-5.71Z" transform="translate(-16.22 -184.87)"/><path class="cls-9" d="M54.13,200.81l4,7.95Z" transform="translate(-16.22 -184.87)"/><path class="cls-27" d="M162.36,204.69c-1.28,3-3.61,5.94-3.67,8.94-.36,19.5-.07,39-.44,58.52-.05,3-2.44,5.87-3.75,8.8-11.48,5.9-12.11,5.5-12.14-7.75,0-10,.87-20.07-.24-29.94-1.17-10.51-4.37-20.78-6.33-31.22-.48-2.6-.49-6.1.88-8.09C140.28,198.7,157.25,199.49,162.36,204.69Z" transform="translate(-16.22 -184.87)"/><path class="cls-28" d="M413.17,208.76c-.64,9.07-1.5,18.13-1.87,27.21-.36,8.91-.22,17.84-.3,26.76-3-4.05-8.32-8-8.58-12.2-1-16.34-.41-32.78-.41-50.74l-23.59,3.37q-1.49-1.59-3-3.16c1.77-1,3.52-2.8,5.3-2.82,10.28-.1,20.57.22,30.86.39l39.73,0c19,4.59,27,28,14.18,43.81-5.05,6.25-12.5,10.58-19.67,16.45,4.26,7.4,9.14,15.86,14,24.31.47,2.15,1.87,4.68,1.19,6.37-1.21,3-3.69,5.46-5.65,8.14-5.31-4.28-12.08-7.66-15.45-13.13-2.58-4.18-3.65-7.28-9-6.1l.05-.22-2.29-3.92.58-.29-.54.36c.66-2.43,1.32-4.85,2.16-8l-7.57-.48,0,0c0-2.6.05-5.19.08-7.79,12.87-4.42,23.42-10.73,23.42-26.59,0-16.47-6.76-23.51-23.3-23.61-2.64,0-5.29.05-7.93.07l-2.36,1.53Zm25,47.83L437.08,258l4.48,6.33,2.46-2.77Z" transform="translate(-16.22 -184.87)"/><path class="cls-13" d="M378.42,203.16,402,199.79c0,18-.61,34.4.41,50.74.26,4.23,5.59,8.15,8.58,12.2,1.87,8.51-2,11.16-10,10.26-3.21-.37-6.51.12-9.77.23-.6-15.23-1.15-30.46-1.83-45.69-.16-3.59-.77-7.16-1.17-10.73-.06-1.29-.13-2.58-.2-3.87.18-.25.56-.57.5-.75a9.52,9.52,0,0,0-.8-1.51Z" transform="translate(-16.22 -184.87)"/><path class="cls-13" d="M451.33,197.6l-39.73,0Z" transform="translate(-16.22 -184.87)"/><path class="cls-11" d="M387.7,210.67a9.52,9.52,0,0,1,.8,1.51c.06.18-.32.5-.5.75Z" transform="translate(-16.22 -184.87)"/><path class="cls-6" d="M336.86,201.11l2.1,1.79c.09.59.16,1.19.22,1.78,2.41,5.95,5.49,11.75,6.93,17.93.68,2.89-1,7.2-3,9.68-6.28,7.6-13.27,14.62-20,21.86L320.64,252c.73-3.25,1.45-6.51,2.17-9.76.12-1.78.24-3.56.37-5.34h0c4.12-11.36.45-20.45-8.22-28.08-3.5-3.76-23.06-6.05-26.36-2.93a5.14,5.14,0,0,0-1.47,3.48c.4,13.15,1,26.29,1.48,39.43a2.9,2.9,0,0,0,1.09.21l-.35,31.7L279,284c-.63-12.75.11-24.9-2.15-36.47-2.79-14.31-3.21-27.83,2.72-40.87l-4.66-5.86Z" transform="translate(-16.22 -184.87)"/><path class="cls-4" d="M323.18,236.94c-.13,1.78-.25,3.56-.37,5.34l-23.47,16.38-2.44-2c.67,2.74,1.35,5.49,2,8.24-1.31,1.58-3.83,3.26-3.71,4.74.54,6.88,2.62,13.7,2.58,20.54s-1.9,13.94-3,20.91l-2.81-.36-.57-3.89q-.19-6.93-.37-13.85c-.4-1.39-.81-2.78-1.21-4.16l-.51-8.05q.18-15.84.35-31.7l2.4-42L315,208.87c8.67,7.63,12.34,16.72,8.22,28.08.32-12.78-4.92-22-17.07-27-7.14-3-10.94-1-11.11,6.45-.19,9-.34,18,.11,26.93.16,3.14,2.16,6.18,3.32,9.26,3.95-1.78,8.19-3.13,11.78-5.47C314.8,244.15,318.88,240.37,323.18,236.94Z" transform="translate(-16.22 -184.87)"/><path class="cls-6" d="M343.15,240.87l-.78-.45.8.42Z" transform="translate(-16.22 -184.87)"/><path class="cls-18" d="M40,224.85q-.06,40-.13,79.92c-.61-2.83-1.72-5.65-1.74-8.48q-.22-31.52,0-63C38.13,230.46,39.33,227.66,40,224.85Z" transform="translate(-16.22 -184.87)"/><path class="cls-13" d="M289.35,280.76l.51,8.05c-.58.29-1.6.48-1.69.88-1.06,5-.82,12.73-8.1,10.56-4-1.19-8.47-8.33-8.77-13-1.08-16.92.21-34-.72-50.92-.63-11.53-3.48-22.95-5.51-35.52h9.81l4.66,5.86c-5.93,13-5.51,26.56-2.72,40.87,2.26,11.57,1.52,23.72,2.15,36.47Z" transform="translate(-16.22 -184.87)"/><path class="cls-29" d="M291.07,293q.18,6.93.37,13.85Q291.26,299.89,291.07,293Z" transform="translate(-16.22 -184.87)"/><path class="cls-9" d="M511.19,218.26c-1.16,4.25-1.81,8.72-3.56,12.71-8.11,18.56-2.71,38-4.14,57-9.21-23-6.7-45.22,4.33-66.91l1.66-1.06Z" transform="translate(-16.22 -184.87)"/><path class="cls-17" d="M509.48,220l-1.66,1.06A2.55,2.55,0,0,1,509.48,220Z" transform="translate(-16.22 -184.87)"/><path class="cls-11" d="M343.32,320.5l-4.33.11-2.82-6c2.24-2.34,4.2-5.06,6.8-6.87,1.78-1.25,4.44-1.24,6.7-1.79-.17,2.32.29,4.94-.65,6.88C347.65,315.62,345.27,318,343.32,320.5Z" transform="translate(-16.22 -184.87)"/><path class="cls-18" d="M222.84,270.6l-.21-9.77c0-15.79-.15-31.58.25-47.36.08-2.92,2.5-5.79,3.84-8.68l.16.2c-.72,5.15-1.84,10.28-2.09,15.45C224,237.15,223.47,253.88,222.84,270.6Z" transform="translate(-16.22 -184.87)"/><path class="cls-6" d="M226.72,204.79c-1.34,2.89-3.76,5.76-3.84,8.68-.4,15.78-.22,31.57-.25,47.36-2.67,0-5.37-.19-8,.08-6.12.63-8.19-2-8.21-8,0-3.39-2.22-6.77-3.44-10.15l-1.71-34.48c-.57-.75-1.15-1.49-1.73-2.24a8.86,8.86,0,0,1-.77-1.65C204.9,198.9,221.53,199.16,226.72,204.79Z" transform="translate(-16.22 -184.87)"/><path class="cls-22" d="M552.67,285.29c4.15,5.48,8,8.39,7.93,11.13-.11,2.55-4.17,6.25-7.07,6.91-1.83.42-6.49-3.64-6.7-6C546.56,294.44,549.58,291.24,552.67,285.29Z" transform="translate(-16.22 -184.87)"/><path class="cls-13" d="M423.35,264.91l7.57.48c-.84,3.14-1.5,5.56-2.16,8Q426,269.15,423.35,264.91Z" transform="translate(-16.22 -184.87)"/><path class="cls-13" d="M423.45,257.14c0,2.6-.05,5.19-.08,7.79l-4-6.43Z" transform="translate(-16.22 -184.87)"/><path class="cls-13" d="M428.72,273.31l2.29,3.92Z" transform="translate(-16.22 -184.87)"/><path class="cls-15" d="M413.28,208.54l2.36-1.53Z" transform="translate(-16.22 -184.87)"/><path class="cls-13" d="M438.19,256.59l5.83,5-2.46,2.77L437.08,258Z" transform="translate(-16.22 -184.87)"/><path class="cls-18" d="M315,208.87l-22.87-1.79c-1,2.78-2.91,5.53-3,8.34-.45,11.14-.36,22.29-.46,33.43-.52-13.14-1.08-26.28-1.48-39.43a5.14,5.14,0,0,1,1.47-3.48C291.9,202.82,311.46,205.11,315,208.87Z" transform="translate(-16.22 -184.87)"/><path class="cls-10" d="M288.61,248.85c.1-11.14,0-22.29.46-33.43.11-2.81,2-5.56,3-8.34q-1.18,21-2.39,42A2.9,2.9,0,0,1,288.61,248.85Z" transform="translate(-16.22 -184.87)"/></svg>