<svg id="Layer_1" data-name="Layer 1" xmlns="http://www.w3.org/2000/svg" viewBox="0 0 499.47 271.16"><defs><style>.cls-1{fill:#878787;}.cls-2{fill:#ea9e24;}.cls-3{fill:#f0ac4d;}.cls-4{fill:#e59d2b;}.cls-5{fill:#ea9e26;}.cls-6{fill:#e29d2f;}.cls-7{fill:#d49b41;}.cls-8{fill:#b9965c;}.cls-9{fill:#d29c4c;}.cls-10{fill:#3f341e;}.cls-11{fill:#323024;}.cls-12{fill:#4a3815;}.cls-13{fill:#d5a762;}.cls-14{fill:#e79e28;}.cls-15{fill:#ea9f25;}.cls-16{fill:#e99d25;}.cls-17{fill:#ec9e22;}.cls-18{fill:#e89e27;}.cls-19{fill:#4a2f05;}.cls-20{fill:#706f6f;}.cls-21{fill:#473617;}.cls-22{fill:#42351c;}.cls-23{fill:#724f17;}</style></defs><path class="cls-1" d="M545.39,346.49c-12.63,0-25.15.08-37.65-.17-1,0-2.42-2.22-2.82-3.64q-11.51-40.53-22.8-81.12a22.93,22.93,0,0,0-2.53-6.27v91h-32V170.52H469c6.12,0,12.25.1,18.38-.08,2.83-.08,4.05.72,4.85,3.69,6.33,23.53,12.92,47,19.44,70.46a7.41,7.41,0,0,0,1.83,3.51V170.75h31.91Z" transform="translate(-146.26 -170.42)"/><path class="cls-1" d="M183.49,282v64.26H146.26V171a17.9,17.9,0,0,1,2.8-.42c16.74.14,33.49,0,50.2.64,6.59.27,13.24,2.07,19.62,4,8.94,2.68,14.2,9.57,14.53,18.49.76,20.41,1.25,40.89.35,61.28-.73,16.68-8.74,23.72-25.49,25.41C200.27,281.13,192.22,281.42,183.49,282Zm.27-25.74c9.87.21,13-2.75,13-11.91q0-18.37,0-36.73c0-8.92-3.47-12.13-13-11.81Z" transform="translate(-146.26 -170.42)"/><path class="cls-1" d="M586,346.31V193.59H564.47V170.82h81.27v22.52H624.31v153Z" transform="translate(-146.26 -170.42)"/><path class="cls-1" d="M429.94,192V346.22H391.49v-4.49c0-41.52.06-83-.11-124.55,0-3.58,1.28-5.24,4.19-6.77C406.89,204.49,418.11,198.38,429.94,192Z" transform="translate(-146.26 -170.42)"/><path class="cls-2" d="M304.54,342.82c-10.85-10.62-22.71-20.41-32.34-32.05-17.5-21.14-29-45.25-28.56-73.54.26-16.47,5.5-31.29,16.87-43.62q4.11,12.67,8.23,25.33c-.23.86-.4,1.74-.7,2.57-5.62,15.65-3.63,30.38,6.11,43.73,9.62,13.17,23.27,18.59,39.28,18.77,7.82,7.37,15.68,14.7,23.44,22.13,3.08,3,5.95,6.15,8.91,9.23l0-.07-.94,1,.07-.07-1,1,0-.07-.95.95.05-.05c-.31.46-.62.93-.94,1.39-8,7.48-15.72,15.21-24,22.35C311.82,347.26,311.53,346.93,304.54,342.82Z" transform="translate(-146.26 -170.42)"/><path class="cls-3" d="M345.78,315.37c-3-3.08-5.83-6.27-8.91-9.23-7.76-7.43-15.62-14.76-23.44-22.13,3.21-.63,6.48-1.08,9.63-1.93A43.57,43.57,0,0,0,348,265c2-2.89,3.4-6.29,5.06-9.45.86-1.64,2.33-3.24,2.46-4.94.52-7,.62-14,.88-21-.42-3-.28-6.24-1.37-9-2.93-7.44-6.22-14.75-13.68-19.08-4.67-2.71-9-6-13.83-8.44a23.39,23.39,0,0,0-8.91-2.21,77.82,77.82,0,0,0-15.64.09c-4,.55-8.74.43-11.07,5l-12.64,9.08-10.5,13.89q-4.11-12.66-8.23-25.33l9.95-9.77c14.54-10,30.51-14.79,48.21-12.78,21,2.39,36.94,13,48.62,30.3-.92,3.72,2,5.88,3.37,8.72a60,60,0,0,1,5.64,30.45c-.28,4.29.3,8.7-.52,12.87a97.44,97.44,0,0,1-5,17.13c-2.73,6.9-6.27,13.49-9.33,20.27a26.68,26.68,0,0,0-1.18,4.95l0,0q-1.85,2.86-3.71,5.71l-.18.35c-3.55.73-6.72,5-7,9.42Z" transform="translate(-146.26 -170.42)"/><path class="cls-2" d="M198.61,439.84l-.27.16H198c-7.17-.61-14.77,1.23-21.24-3.62-.38-.28-1.15-.05-1.73-.05l-1.66-1.95c0-.42.08-.84.11-1.26q.08-20.79.13-41.58c1.93-1.85,3.58-4.74,5.84-5.33a64.81,64.81,0,0,1,14.8-1.8c5.27-.15,9.72,4.71,9.74,10q0,12.74,0,25.48C204,427,205.49,434.55,198.61,439.84Zm-7.38-48.35c-3.72-1.51-4.5.57-4.5,3.65,0,11.05,0,22.09.05,33.14,0,1.4.73,2.8,1.12,4.2.62,2.48,2.21,2.37,3.51.88a7.28,7.28,0,0,0,1.74-4.27q.21-17.11,0-34.24C193.12,393.72,191.89,392.61,191.23,391.49Z" transform="translate(-146.26 -170.42)"/><path class="cls-4" d="M238.86,383.43c.29,6.27.29,6.27-8.07,8.26,0,2.95,0,6,0,9.13,0,11.79-.16,23.58.07,35.37.07,3.67-1.21,4.74-4.62,4.51-3.07-.21-6.18,0-9.76,0V421.34c0-8.51-.1-17,.05-25.52.06-3.23-.34-5.71-4.5-5.64v-7.39l2.81-.48c2-4.47,3.7-8.4,5.42-12.32l18.36-1.32c.17,2.93.28,4.7.38,6.46a36.39,36.39,0,0,1-4,1.22c-3.44.64-4.77,2.42-3.73,5.76Z" transform="translate(-146.26 -170.42)"/><path class="cls-5" d="M430,174.44c.5,11.8.5,11.81-10.09,17.41q-9.26,4.89-18.52,9.75l-9,2.79c0-8.62.34-16.95-.11-25.23-.33-6,1.27-7.72,8.12-8,6.69-.28,13.4,0,20.1-.08C424.13,171,427.83,170.53,430,174.44Z" transform="translate(-146.26 -170.42)"/><path class="cls-6" d="M338.6,436.35c-2,1.35-3.93,3.45-6.15,3.9a39.91,39.91,0,0,1-12.36.81c-9.64-1.09-12.55-4.71-12.58-14.4,0-10.27-.06-20.54,0-30.81.08-9,3.54-12.75,12.52-13.49,6.67-.56,13.49-1.2,18.65,4.6,0,.91-.09,1.81-.13,2.71-1-1.13-1.85-2.82-3.13-3.3-7.13-2.64-14.26-3.3-21.27.72-3,1.73-4.46,3.84-4.39,7.49q.31,16.11,0,32.23c-.07,4.21-.06,8,4.73,9.79,1.26.48,2.2,1.82,3.34,2.81l1.54-2.14c2.24.81,4.34,2.4,5.85,2,4.46-1.29,10.05-.79,12.47-6.26.08-.18.54-.19.82-.29C338.57,433.9,338.59,435.13,338.6,436.35Z" transform="translate(-146.26 -170.42)"/><path class="cls-7" d="M198.61,439.84c6.88-5.29,5.38-12.85,5.4-20q0-12.74,0-25.48c0-5.27-4.47-10.13-9.74-10a64.81,64.81,0,0,0-14.8,1.8c-2.26.59-3.91,3.48-5.84,5.33-.25,0-.49-.08-.74-.14l1-3.45c4.91-7.84,22.36-7.4,27.88-2.5,2,1.79,3.93,4.89,4,7.45.41,12.51.24,25,.15,37.55C205.84,435.29,203.49,438.6,198.61,439.84Z" transform="translate(-146.26 -170.42)"/><path class="cls-8" d="M393.46,439.79,379,441.07V369.16l.9-.48h13.59Zm-1.06-34.46c0-10.14,0-20.28,0-30.43,0-5-.07-4.77-7.27-5-4.14-.16-5.36,1.18-5.31,5.31.2,18.79,0,37.58.1,56.37,0,9.22-1.45,8.13,8.38,8.33,3.09.06,4.21-1,4.17-4.11C392.31,425.62,392.4,415.47,392.4,405.33Z" transform="translate(-146.26 -170.42)"/><path class="cls-8" d="M430,174.44c-2.17-3.91-5.87-3.4-9.48-3.36-6.7.08-13.41-.2-20.1.08-6.85.28-8.45,2-8.12,8,.45,8.28.11,16.61.11,25.23l9-2.79-9.87,5.26V170.42H430Z" transform="translate(-146.26 -170.42)"/><path class="cls-8" d="M338.58,389.67c0-.9.08-1.8.13-2.71.55.85,1.58,1.69,1.59,2.55.11,8.78.06,17.57.06,26.35l-18.59-.14c0-.29-.08-.59-.12-.88,5.05,0,10.11.07,15.16-.1,1.12,0,3.17-.94,3.18-1.48.11-7.08-.06-14.16-.23-21.24,0-.24-.71-.47-1.08-.71Z" transform="translate(-146.26 -170.42)"/><path class="cls-7" d="M175.05,436.32c.58,0,1.35-.23,1.73.05,6.47,4.85,14.07,3,21.24,3.62C189.34,443.11,179.42,441.52,175.05,436.32Z" transform="translate(-146.26 -170.42)"/><path class="cls-9" d="M328.42,418.25l11-.71c.38.22,1.07.43,1.09.68.49,6.16,2.2,12.46-1.94,18.13,0-1.22,0-2.45,0-3.67,0-.57.05-1.15.07-1.73,2.46-2.88,2.45-8.09,0-10.82h0c-1.18-.59-2.32-1.5-3.56-1.67A53.59,53.59,0,0,0,328.42,418.25Z" transform="translate(-146.26 -170.42)"/><path class="cls-10" d="M569,383.86l-.2-.8" transform="translate(-146.26 -170.42)"/><path class="cls-10" d="M571.79,427.29c0,1.21,0,2.41,0,3.62" transform="translate(-146.26 -170.42)"/><path class="cls-11" d="M528.84,436.23" transform="translate(-146.26 -170.42)"/><path class="cls-11" d="M528.81,439.88" transform="translate(-146.26 -170.42)"/><path class="cls-12" d="M305.8,383.35l-.57.44c-.07-.12-.23-.32-.21-.34a6.12,6.12,0,0,1,.56-.45Z" transform="translate(-146.26 -170.42)"/><path class="cls-11" d="M559.32,382.44l-1.85-1.72Z" transform="translate(-146.26 -170.42)"/><path class="cls-3" d="M345.8,315.3l-.94,1Z" transform="translate(-146.26 -170.42)"/><path class="cls-3" d="M344.93,316.2l-1,1Z" transform="translate(-146.26 -170.42)"/><path class="cls-3" d="M344,317.1l-.95.95Z" transform="translate(-146.26 -170.42)"/><path class="cls-3" d="M343.12,318c-.31.46-.62.93-.94,1.39C342.5,318.93,342.81,318.46,343.12,318Z" transform="translate(-146.26 -170.42)"/><path class="cls-13" d="M367.29,201.36l7,12.77c8.9,28.72,2,54.95-12.65,79.95a12.4,12.4,0,0,1-1.43,1.67,26.68,26.68,0,0,1,1.18-4.95c3.06-6.78,6.6-13.37,9.33-20.27a97.44,97.44,0,0,0,5-17.13c.82-4.17.24-8.58.52-12.87a60,60,0,0,0-5.64-30.45C369.29,207.24,366.37,205.08,367.29,201.36Z" transform="translate(-146.26 -170.42)"/><path class="cls-13" d="M329.49,196.17l-.33-.09a17.51,17.51,0,0,0-2-1.05c-11.91-4.7-23.67-3.55-35.33.94,2.33-4.6,7.11-4.48,11.07-5a77.82,77.82,0,0,1,15.64-.09,23.39,23.39,0,0,1,8.91,2.21c4.79,2.46,9.16,5.73,13.83,8.44,7.46,4.33,10.75,11.64,13.68,19.08,1.09,2.75.95,6,1.37,9-.5-1.54-1-3.08-1.49-4.62-2.44-7.77-6-14.84-12.57-20v0l-1.86-1.81,0,0Z" transform="translate(-146.26 -170.42)"/><path class="cls-13" d="M356.41,301.78l-7,9.42C349.69,306.76,352.86,302.51,356.41,301.78Z" transform="translate(-146.26 -170.42)"/><path class="cls-13" d="M360.3,295.72l-3.71,5.71Z" transform="translate(-146.26 -170.42)"/><path class="cls-9" d="M191.62,392.49l-.39-1c.66,1.12,1.89,2.23,1.91,3.36q.21,17.11,0,34.24a7.28,7.28,0,0,1-1.74,4.27c-1.3,1.49-2.89,1.6-3.51-.88l3.91-2.73c.17-10.54.39-21.08.49-31.61A43.33,43.33,0,0,0,191.62,392.49Z" transform="translate(-146.26 -170.42)"/><path class="cls-13" d="M173.5,433.11a8.33,8.33,0,0,1-.78-2.47c0-13.08.1-26.16.17-39.25.25.06.49.1.74.14Q173.57,412.32,173.5,433.11Z" transform="translate(-146.26 -170.42)"/><path class="cls-14" d="M471.4,435c-1.51,1.52-2.75,3.72-4.57,4.44a26.22,26.22,0,0,1-20.72-.08c-2.16-.95-3.57-3.59-5.31-5.46l0-44.39c2.24-7.92,14.34-8.07,22.88-6.63,6.6,1.12,9.3,5.31,9.35,13.09q0,5.79.07,11.59l-.05.1H458.81c0-4.47.21-8.62-.12-12.73-.11-1.34-1.63-2.57-2.5-3.86-.86,1.21-2.43,2.4-2.45,3.62-.19,11.47-.16,22.94,0,34.42a4.08,4.08,0,0,0,1.89,3.13c.78.31,2.16-.88,3.27-1.4.56-1.05,1.46-2.05,1.6-3.15a23.83,23.83,0,0,0,0-6.2c-.65-4.61,2-4.88,5.55-5,3.89-.09,5.73.86,5.39,5.16S471.39,430.52,471.4,435Z" transform="translate(-146.26 -170.42)"/><path class="cls-4" d="M500.24,429.06l6.94,1.82v10c-5.86-.41-11.33-.51-16.71-1.28-3.71-.53-4.74-3.79-4.8-7.1-.18-9.66-.24-19.32-.34-29,0-1.78,0-3.56,0-5.35-.07-4.15.87-9.08-6.55-7.39v-8.09l6-.32a13.26,13.26,0,0,0,.88-2.86c.6-8.2.57-8.11,8.92-7.85,2.64.08,3.74.91,3.73,3.64a50.1,50.1,0,0,0,.89,6.83l2.6.48a9.72,9.72,0,0,0,.63,1.14c1,1.35,1.94,2.68,2.91,4-1.27.66-2.55,1.32-3.81,2-.5.27-1,.6-1.44.9-.27.51-.77,1-.77,1.54q0,17.51.07,35c0,.4.37.79.57,1.18A.75.75,0,0,0,500.24,429.06Z" transform="translate(-146.26 -170.42)"/><path class="cls-4" d="M514.44,382.35l12.47.12c.12,9.08.3,18.17.36,27.25s-.09,17.9.07,26.85c.06,3.12-1,4.29-4.11,4.07s-6.18,0-9.81,0v-8.5c0-14.91,0-29.83,0-44.74A26.91,26.91,0,0,1,514.44,382.35Z" transform="translate(-146.26 -170.42)"/><path class="cls-9" d="M471.4,435c0-4.44-.29-8.9.06-13.31s-1.5-5.25-5.39-5.16c-3.6.09-6.2.36-5.55,5a23.83,23.83,0,0,1,0,6.2c-.14,1.1-1,2.1-1.6,3.15V415.89h14v4.3c-.06.09-.18.18-.17.26a4,4,0,0,0,.17.56v4.57c0,.56,0,1.12,0,1.68Q472.17,431.1,471.4,435Z" transform="translate(-146.26 -170.42)"/><path class="cls-13" d="M440.83,389.47l0,44.39a20,20,0,0,1-.95-4.22q-.11-18,0-36A19.32,19.32,0,0,1,440.83,389.47Z" transform="translate(-146.26 -170.42)"/><path class="cls-14" d="M472.92,427.26c0-.56,0-1.12,0-1.68C472.91,426.14,472.92,426.7,472.92,427.26Z" transform="translate(-146.26 -170.42)"/><path class="cls-14" d="M472.9,421a4,4,0,0,1-.17-.56c0-.08.11-.17.17-.26A1.16,1.16,0,0,1,472.9,421Z" transform="translate(-146.26 -170.42)"/><path class="cls-14" d="M366.32,382.37h7c2,6.61,1.28,8-4.54,8.34-3.2.21-3,2.16-3,4.3q0,19.44,0,38.9c0,6.69,0,6.69-6.77,6.69-2.2,0-4.4,0-7.11,0V429.83q0-17.43,0-34.87c0-2.16-.14-3.49-2.85-4.58-1.62-.66-1.92-4.58-2.95-7.42l5.68-.7q2.39-6.11,4.79-12.21a.75.75,0,0,1,.66-.13c4,0,8.08-.14,12.09.2,1.16.09,2.2,1.62,3.29,2.49-.89.9-1.74,1.86-2.7,2.69a28.62,28.62,0,0,1-2.61,1.86h0C364.29,378.38,365.31,380.37,366.32,382.37Z" transform="translate(-146.26 -170.42)"/><path class="cls-9" d="M367.3,377.16a28.62,28.62,0,0,0,2.61-1.86c1-.83,1.81-1.79,2.7-2.69-1.09-.87-2.13-2.4-3.29-2.49-4-.34-8.06-.17-12.09-.2,5.09-.33,10.2-1,15.25-.7.9,0,1.56,4,2.42,6.45Z" transform="translate(-146.26 -170.42)"/><path class="cls-9" d="M356.57,370.05q-2.4,6.1-4.79,12.21c.34-2.79.32-5.69,1.17-8.32C353.44,372.41,355.32,371.33,356.57,370.05Z" transform="translate(-146.26 -170.42)"/><path class="cls-9" d="M366.32,382.37c-1-2-2-4,1-5.22Z" transform="translate(-146.26 -170.42)"/><path class="cls-15" d="M598.85,382.29l1.59.25c4.46,2,5.94,5.49,5.83,10.39-.31,14.39-.21,28.8-.27,43.2-.49.32-1.24.53-1.42,1-2,4.95-6.16,2.16-9.31,2.31-.54,0-1.77-3.55-1.79-5.47-.16-12.53,0-25.07-.16-37.6,0-1.62-1.18-3.24-1.81-4.86l-2.7-.79-.8.78-.44,0c-.47,1.57-1.33,3.15-1.35,4.73-.15,14.5-.15,29-.2,43.5-3,.05-6,0-9,.15-2.52.12-3.41-1-3.4-3.46.12-17.92.16-35.84.23-53.75.25-.09.5-.18.74-.29h1.67l1,0,8.81,0,1,.31,1.78.51Z" transform="translate(-146.26 -170.42)"/><path class="cls-8" d="M573.88,382.63c-.07,17.91-.11,35.83-.23,53.75,0,2.46.88,3.58,3.4,3.46,3-.13,6-.1,9-.14l.44.05h.44l.31,0c-.11.32-.23.63-.34.94H572.62V384.32Z" transform="translate(-146.26 -170.42)"/><path class="cls-9" d="M592.21,439.82c.07-15,.15-29.95.16-44.93a14.15,14.15,0,0,0-.86-3.4c.63,1.62,1.79,3.24,1.81,4.86.15,12.53,0,25.07.16,37.6,0,1.92,1.25,5.5,1.79,5.47,3.15-.15,7.32,2.64,9.31-2.31.18-.45.93-.66,1.42-1,.91,3.45-.35,4.93-4,4.52C598.77,440.28,595.49,440.09,592.21,439.82Z" transform="translate(-146.26 -170.42)"/><path class="cls-7" d="M432.78,433.52c-.37.86-.74,1.72-1.1,2.59-5.48,6.83-20.72,6.16-26.41,3-3.94-2.21-5.45-5.84-5.48-10.09-.09-11.47-.18-22.95,0-34.42.11-7.22,4.06-11.68,11.2-12,5.23-.22,10.51.87,15.77,1.38l-.38.43c-4.61,0-9.22-.18-13.83-.11a11.22,11.22,0,0,0-11.12,10.93c-.1,11.17-.12,22.34.06,33.51a9.07,9.07,0,0,0,2,5.11c5.62,7,16.6,8.18,25.37,2.15,2.4-1.65,4.71-11.37,2.56-14.1-1.18-1.51-4.65-1.62-7.08-1.6-1.11,0-2.25,1.83-3.27,2.92a19.93,19.93,0,0,0-1.64,2.37c0-1,0-2.07-.15-3.09-.41-3.15.64-4.5,4.1-4.4,11.28.34,9.33-1.35,9.5,9.22C432.93,429.39,432.82,431.46,432.78,433.52Z" transform="translate(-146.26 -170.42)"/><path class="cls-7" d="M432.88,415.61l-1,.24L414,415.77c4.21-.35,8.48-.36,12.59-1.19,1.91-.38,5-2.44,5-3.61-.46-9.05,3.68-19.13-5.16-26.55l.38-.43,6,5.73Z" transform="translate(-146.26 -170.42)"/><path class="cls-16" d="M299.07,434.46l-10.41,5.44-21.76-.17c0-21.89,0-43.77-.17-65.65,0-3.12,1-4.21,4.15-4.14,6.54.14,13.09,0,19.64,0,7,1.73,10.42,5.54,10.47,12.46.11,14.78.13,29.57-.05,44.35C300.9,429.32,299.72,431.88,299.07,434.46Zm-14.74-3.61c.74-1.38,2.11-2.75,2.12-4.14q.24-21.87,0-43.75c0-1.35-1.12-2.68-1.72-4l-3.66-1.05v53.37Z" transform="translate(-146.26 -170.42)"/><path class="cls-9" d="M290.52,369.93c-6.55,0-13.1.15-19.64,0-3.1-.07-4.17,1-4.15,4.14.14,21.88.13,43.76.17,65.65l-1.69,0V368.46Z" transform="translate(-146.26 -170.42)"/><path class="cls-8" d="M265.21,439.78l1.69,0,21.76.17a3.72,3.72,0,0,0-.38.71l-21.45.24Z" transform="translate(-146.26 -170.42)"/><path class="cls-17" d="M338.63,431c0,.58-.05,1.16-.07,1.73-.28.1-.74.11-.82.29-2.42,5.47-8,5-12.47,6.26-1.51.44-3.61-1.15-5.85-2l-1.54,2.14c-1.14-1-2.08-2.33-3.34-2.81-4.79-1.83-4.8-5.58-4.73-9.79q.27-16.11,0-32.23c-.07-3.65,1.36-5.76,4.39-7.49,7-4,14.14-3.36,21.27-.72,1.28.48,2.1,2.17,3.13,3.3,0,.55.06,1.1.1,1.64,0,5.32-.35,10.66,0,15.95.27,4.38-1,6.31-5.62,5.79a60,60,0,0,0-9.76,0c-.57,0-1.09,1.15-1.63,1.77,0,.29.07.59.12.88l-.41.09-.42,0c-3.17,2.26-3,4.56.49,6.15q0,3.58,0,7.17L319,431c1.06,1.12,1.94,2.78,3.22,3.17,1,.29,2.43-1,3.67-1.66l-.06.07c.66-.55,1.32-1.1,2-1.66l.05-.89c2.72-2.09,2.67-4.2,0-6.32l.12-3.5,10.57-.07h0Q338.61,425.55,338.63,431Zm-10.82-41.27c-3.5-1.48-5.6-.81-6,1.92V407c4,1.34,5.35-.1,5.11-3.93-.23-3.55-.1-7.11-.13-10.67.34-.91.68-1.82,1-2.73l3-.55c-.2-.41-.39-.82-.58-1.23Zm8.2,37.37.06-1.13-2.23.15v.77ZM312.5,393.68a4.37,4.37,0,0,0-.37.62s.21.25.26.23a4.62,4.62,0,0,0,.55-.35Zm0,32.33a3.7,3.7,0,0,0-.38.53s.17.29.21.28a4.14,4.14,0,0,0,.59-.31Z" transform="translate(-146.26 -170.42)"/><path class="cls-18" d="M534,389.78c1.35-4.55,5.46-5.67,9.15-7.3,4.88.26,9.93-.15,14.61.95,7,1.65,8.92,4.72,8.95,11.86q.06,16.54,0,33.09c0,7.86-3.08,11.67-11,12.32a56.22,56.22,0,0,1-15-1,8,8,0,0,1-6.66-7.49q0-20.6.08-41.18C534.08,390.6,534,390.19,534,389.78Zm18,42.73-.06.08c.65-1,1.86-1.94,1.87-2.93q.21-17.73,0-35.48c0-.9-1.09-1.8-1.67-2.7l-4.31.11a19.32,19.32,0,0,0-1.11,4.48c-.1,10.19-.08,20.38,0,30.57a24.13,24.13,0,0,0,.75,4.25l1,1.58,2,1.84Z" transform="translate(-146.26 -170.42)"/><path class="cls-8" d="M533.31,431.71c0-12.16-.06-24.31,0-36.46a22,22,0,0,1,.83-4.25q0,20.6-.08,41.18Z" transform="translate(-146.26 -170.42)"/><path class="cls-15" d="M392.4,405.33c0,10.14-.09,20.29.06,30.43,0,3.13-1.08,4.17-4.17,4.11-9.83-.2-8.33.89-8.38-8.33-.08-18.79.1-37.58-.1-56.37-.05-4.13,1.17-5.47,5.31-5.31,7.2.27,7.25.05,7.27,5C392.42,385.05,392.4,395.19,392.4,405.33Z" transform="translate(-146.26 -170.42)"/><path class="cls-8" d="M499.23,382.15a50.1,50.1,0,0,1-.89-6.83c0-2.73-1.09-3.56-3.73-3.64-8.35-.26-8.32-.35-8.92,7.85a13.26,13.26,0,0,1-.88,2.86c.08-1.93.18-3.85.22-5.78,0-1.75,0-3.49,0-5.55h14.19Z" transform="translate(-146.26 -170.42)"/><path class="cls-9" d="M500.12,390.67c.48-.3.94-.63,1.44-.9,1.26-.67,2.54-1.33,3.81-2-1-1.33-2-2.66-2.91-4a9.72,9.72,0,0,1-.63-1.14h5.29v8Z" transform="translate(-146.26 -170.42)"/><path class="cls-17" d="M426.38,384.42c8.84,7.42,4.7,17.5,5.16,26.55.06,1.17-3.07,3.23-5,3.61-4.11.83-8.38.84-12.59,1.19a4.16,4.16,0,0,1-.2.79c-2.37,3-2.33,11.56.08,14.38a1.54,1.54,0,0,0,.63.23l.06,0,1.18,1.59c1.16,2.67,2.69,1.69,4,.24,1.71-1.91,2.58-4-.26-5.78,0-.55,0-1.1,0-1.65a19.93,19.93,0,0,1,1.64-2.37c1-1.09,2.16-2.91,3.27-2.92,2.43,0,5.9.09,7.08,1.6,2.15,2.73-.16,12.45-2.56,14.1-8.77,6-19.75,4.81-25.37-2.15a9.07,9.07,0,0,1-2-5.11c-.18-11.17-.16-22.34-.06-33.51a11.22,11.22,0,0,1,11.12-10.93C417.16,384.24,421.77,384.38,426.38,384.42Zm-7.19,15h0c0-1.94.3-3.95-.11-5.79-.23-1-1.65-2.43-2.52-2.42a3.53,3.53,0,0,0-2.47,2.44,83.59,83.59,0,0,0,0,11.63,3.32,3.32,0,0,0,2.52,2.05,3.36,3.36,0,0,0,2.47-2.11A28.72,28.72,0,0,0,419.19,399.38Z" transform="translate(-146.26 -170.42)"/><path class="cls-7" d="M414.06,419.27v4.48c0,1.19,0,2.37,0,3.55s-.14,2.43-.2,3.64c-2.41-2.82-2.45-11.41-.08-14.38C413.87,417.47,414,418.37,414.06,419.27Z" transform="translate(-146.26 -170.42)"/><path class="cls-7" d="M419.44,427.25c2.84,1.8,2,3.87.26,5.78-1.29,1.45-2.82,2.43-4-.24l1.92-.67.13-.15.81-1h0C418.89,429.76,419.16,428.5,419.44,427.25Z" transform="translate(-146.26 -170.42)"/><path class="cls-6" d="M527,378.91l-13.39,0c-.23-12.5-1.33-9.49,9.46-10,3.33-.17,4.67,1,4.26,4.31C527.06,375.05,527.06,377,527,378.91Z" transform="translate(-146.26 -170.42)"/><path class="cls-6" d="M321.65,414.84c.54-.62,1.06-1.74,1.63-1.77a60,60,0,0,1,9.76,0c4.66.52,5.89-1.41,5.62-5.79-.33-5.29,0-10.63,0-15.95.37.24,1.07.47,1.08.71.17,7.08.34,14.16.23,21.24,0,.54-2.06,1.45-3.18,1.48C331.76,414.91,326.7,414.83,321.65,414.84Z" transform="translate(-146.26 -170.42)"/><path class="cls-6" d="M322.48,431.67l3.42.83c-1.24.62-2.7,1.95-3.67,1.66-1.28-.39-2.16-2.05-3.22-3.17l2.41-1.88Z" transform="translate(-146.26 -170.42)"/><path class="cls-6" d="M338.58,420.13,328,420.2c0-.64,0-1.29,0-1.93a.33.33,0,0,1,.43,0,53.49,53.49,0,0,1,6.59.21C336.26,418.63,337.4,419.54,338.58,420.13Z" transform="translate(-146.26 -170.42)"/><path class="cls-6" d="M321.43,421.94c-3.48-1.59-3.66-3.89-.49-6.15Q321.18,418.86,321.43,421.94Z" transform="translate(-146.26 -170.42)"/><path class="cls-9" d="M328,418.27c0,.64,0,1.29,0,1.93l-.12,3.5,0,6.32c0,.3,0,.59-.05.89l-.92-.12q0-6.3.1-12.62Z" transform="translate(-146.26 -170.42)"/><path class="cls-6" d="M338.63,431q0-5.4,0-10.82C341.08,422.86,341.09,428.07,338.63,431Z" transform="translate(-146.26 -170.42)"/><path class="cls-10" d="M577.25,382.31l-1,0Z" transform="translate(-146.26 -170.42)"/><path class="cls-19" d="M588.85,383.17l-1.78-.51Z" transform="translate(-146.26 -170.42)"/><path class="cls-20" d="M302.05,221.11H310v14.56l1.85.16c.18-2.29.43-4.58.52-6.88.09-2.5,0-5,0-7.76h7.91v36.9h-7.74c-.55-6,.31-12-.51-17.91l-2,.1v18h-8Z" transform="translate(-146.26 -170.42)"/><path class="cls-20" d="M339.79,253.76v4.41H324.27V221.26h15.22v4.32h-7v9.67c2,1.92,7.62-2.07,6.53,4.72l-6.43.43v13Z" transform="translate(-146.26 -170.42)"/><path class="cls-20" d="M285.65,258.08V225.8l-4.29-.21v-4.45H298.1v4.28l-4.33.56v32.1Z" transform="translate(-146.26 -170.42)"/><path class="cls-21" d="M329.49,196.17l11,7" transform="translate(-146.26 -170.42)"/><path class="cls-21" d="M340.46,203.15l1.86,1.81Z" transform="translate(-146.26 -170.42)"/><path class="cls-8" d="M191.41,429c0-1.15,0-2.29,0-3.44q0-14.38,0-28.76c0-1.13,0-2.26-.05-3.39.07-.31.15-.62.23-.92a43.33,43.33,0,0,1,.68,5.65c-.1,10.53-.32,21.07-.49,31.61C191.66,429.5,191.53,429.25,191.41,429Z" transform="translate(-146.26 -170.42)"/><path class="cls-13" d="M586.9,439.74h-.44l-.44-.05c.05-14.51.05-29,.2-43.51,0-1.58.88-3.16,1.35-4.73-.18,4-.49,8-.52,12C586.94,415.57,586.94,427.65,586.9,439.74Z" transform="translate(-146.26 -170.42)"/><path class="cls-22" d="M588.81,390.7l-.8.78Z" transform="translate(-146.26 -170.42)"/><path class="cls-13" d="M284.33,430.85c.42-1.71,1.18-3.41,1.19-5.12q.15-21.23,0-42.46a22.6,22.6,0,0,0-.81-4.33c.6,1.34,1.71,2.67,1.72,4q.19,21.87,0,43.75C286.44,428.1,285.07,429.47,284.33,430.85Z" transform="translate(-146.26 -170.42)"/><path class="cls-6" d="M326.78,392.4l-5-.8c.41-2.73,2.51-3.4,6-1.92h0C327.46,390.58,327.12,391.49,326.78,392.4Z" transform="translate(-146.26 -170.42)"/><path class="cls-6" d="M327.86,430l0-6.32C330.53,425.82,330.58,427.93,327.86,430Z" transform="translate(-146.26 -170.42)"/><path class="cls-6" d="M327.81,389.68l2.41-1.79c.19.41.38.82.58,1.23l-3,.55Z" transform="translate(-146.26 -170.42)"/><path class="cls-6" d="M336,427.05l-2.17-.21v-.77l2.23-.15Z" transform="translate(-146.26 -170.42)"/><path class="cls-6" d="M312.5,393.68l.44.5a4.62,4.62,0,0,1-.55.35c-.05,0-.27-.19-.26-.23A4.37,4.37,0,0,1,312.5,393.68Z" transform="translate(-146.26 -170.42)"/><path class="cls-6" d="M312.51,426l.42.5a4.14,4.14,0,0,1-.59.31s-.24-.23-.21-.28A3.7,3.7,0,0,1,312.51,426Z" transform="translate(-146.26 -170.42)"/><path class="cls-6" d="M326.89,430.79l.92.12c-.65.56-1.31,1.11-2,1.66Z" transform="translate(-146.26 -170.42)"/><path class="cls-9" d="M551.93,432.59c.11-.62.22-1.24.32-1.86l.07-.22c.2-8.29.52-16.58.54-24.87,0-4.72-.45-9.44-.7-14.16.58.9,1.67,1.8,1.67,2.7q.17,17.74,0,35.48C553.79,430.65,552.58,431.62,551.93,432.59Z" transform="translate(-146.26 -170.42)"/><path class="cls-13" d="M547.85,391.59q-.18,19.65-.37,39.3a24.13,24.13,0,0,1-.75-4.25c-.07-10.19-.09-20.38,0-30.57A19.32,19.32,0,0,1,547.85,391.59Z" transform="translate(-146.26 -170.42)"/><path class="cls-9" d="M548.44,432.47l3.55,0-1.52,1.8Z" transform="translate(-146.26 -170.42)"/><path class="cls-23" d="M414.05,427.3c.14,1.29.29,2.58.43,3.87" transform="translate(-146.26 -170.42)"/><path class="cls-23" d="M418.58,431l-.81,1Z" transform="translate(-146.26 -170.42)"/><path class="cls-23" d="M414.06,423.75v-.92a3.65,3.65,0,0,1,.2.64C414.27,423.55,414.13,423.66,414.06,423.75Z" transform="translate(-146.26 -170.42)"/></svg>