<svg id="Layer_1" data-name="Layer 1" xmlns="http://www.w3.org/2000/svg" viewBox="0 0 608.38 231.16"><defs><style>.cls-1{fill:#eb9e23;}.cls-2{fill:#eb9e22;}.cls-3{fill:#e89e26;}.cls-4{fill:#b59647;}.cls-5{fill:#f9b233;}.cls-6{fill:#c6ae64;}.cls-7{fill:#e9d785;}.cls-8{fill:#e5e4e8;}.cls-9{fill:#d7aa97;}.cls-10{fill:#3d3d64;}.cls-11{fill:#c5c5d0;}.cls-12{fill:#3c375d;}.cls-13{fill:#89879d;}.cls-14{fill:#7f7d9b;}.cls-15{fill:#9d99b1;}.cls-16{fill:#bdbdcb;}.cls-17{fill:#332b3f;}.cls-18{fill:#292636;}.cls-19{fill:#39344f;}.cls-20{fill:#58465d;}.cls-21{fill:#69637c;}.cls-22{fill:#d5ced7;}.cls-23{fill:#1b1c1c;}.cls-24{fill:#ec9e21;}.cls-25{fill:#131412;}.cls-26{fill:#f4f1f5;}</style></defs><path class="cls-1" d="M464.66,301.64l-1.35,0c-.48-2.07-1.36-4.13-1.37-6.21-.11-19.41-.07-38.82-.07-58.23,0-13.19,0-26.37,0-39.56,0-3.37,1.34-4.93,4.81-4.81,3.91.14,7.84-.14,11.74.1a47.72,47.72,0,0,1,6.9,1.41v1.47l-1.05.72,1,.74V236l6.86-.55a25.55,25.55,0,0,0,.61-3.84q.08-17,0-34c0-2.31.5-4.49,3-4.59,6.17-.24,12.37-.08,18-.08,1,1.85,1.73,3.11,2.44,4.36q0,51.16.08,102.34c0,.58-.12,1.17-.2,1.94H492.19V297.4q0-21.45,0-42.91c0-6,0-6-6.88-5.1V295.7c-.46.73-1.36,1.51-1.28,2.18.35,3.31-1.4,3.72-4.13,3.65C474.82,301.41,469.74,301.59,464.66,301.64Z" transform="translate(-91.81 -190.42)"/><path class="cls-2" d="M681.18,192.85c11,1.17,18.81,9.21,18.89,20.16q.24,33.74,0,67.48c-.07,11.53-8.92,20.53-21,21-10.14.43-20.32.08-30.47.07-1-1.54-2.77-3.08-2.78-4.63-.16-33.51-.09-67-.2-100.54,0-3.1,1.23-3.61,3.92-3.59C660.11,193,670.64,192.86,681.18,192.85Zm-6,92.53c.5-1.08,1.42-2.15,1.43-3.23q.1-34.92,0-69.85a10.43,10.43,0,0,0-1.09-3.11c-1.66-2.47-3.86-3.63-6.87-2.82a12.53,12.53,0,0,0-.8,3q-.06,38,0,76a6.15,6.15,0,0,0,.74,2C671.27,288.37,673.29,287.13,675.16,285.38Z" transform="translate(-91.81 -190.42)"/><path class="cls-3" d="M119,279.59l-1.44-.17-.33-1.78a25.86,25.86,0,0,1-15.39,2.63c-5.64-.78-9.13-4.44-9.55-10.22-.28-3.76-.41-7.53-.5-11.29-.15-6.61,2.29-11.84,8.25-15.18,4.79-2.68,9.54-5.42,14.31-8.13.53-.39,1.51-.76,1.52-1.16.13-4.46.19-8.92,0-13.38,0-.51-1.49-1-2.28-1.44-4.42-.2-4.4,3.27-4.65,6-.32,3.69-.08,7.43-.08,11.41H93c0-5.86-.19-11.09,0-16.31.22-4.55,2.88-7.66,7-9.51,1.65-.74,3.37-1.32,5.06-2l0,0c4.16-.06,8.32-.35,12.46-.14,10,.49,14.85,5.59,14.88,15.57q0,18.14,0,36.26c0,6.21-.17,12.43-.27,18.64l-1.38.1Zm-3.65-11.83,0-19c-4.09,0-5.91,1.6-6,5.37s-.15,7.54,0,11.3c.07,1.28.84,3.47,1.51,3.56C112.36,269.2,113.89,268.25,115.37,267.76Z" transform="translate(-91.81 -190.42)"/><path class="cls-4" d="M605.81,357.29c-6,0-11.76.09-17.5-.09a3.44,3.44,0,0,1-2.3-2.05,18.35,18.35,0,0,0-27.11-8.86,8.88,8.88,0,0,0-4.33,9.08c.5,3.63,3.3,5.13,6.6,6,8.77,2.24,17.54,4.48,26.28,6.83A32.06,32.06,0,0,1,603,377.53a19.4,19.4,0,0,1,4.82,18.19C604,412.82,592.57,422,575,421.57c-7.4-.18-14.9.6-22.1-2.42-12.3-5.16-17.21-15.14-19.14-28,6.19,0,12.12,0,18,.07a2.44,2.44,0,0,1,1.68,1.52c3.23,11.91,11.37,12.74,21.16,12.26a29.22,29.22,0,0,0,8.51-2c4-1.47,5.42-4.13,5.43-8.22s-2.23-6.12-5.69-7.13c-8-2.34-16-4.41-24-6.81-5.95-1.79-12.25-3.23-16.57-8.14-12-13.63-8.26-32.83,7.94-41.11,10.52-5.38,21.83-5.7,33-3.23C595.67,331,605.8,344.62,605.81,357.29ZM538.2,394.66c2.13,10.9,7.29,18.73,17.72,21.5,5.46,1.45,11.39,1,17,1.85,6.4.94,12.25-.66,17.77-3.44,9.72-4.92,15-14.41,13.94-24.61s-8.38-15-16.83-17.85c-8.89-3-18.13-5.08-27.29-7.25-4.9-1.16-8.44-3.8-9.48-8.55s1-9.14,5-12.19c8.78-6.66,27.76-6.19,32.65,7.87a4.08,4.08,0,0,0,2.75,2.29,54.9,54.9,0,0,0,7.7.1c1.93,0,2.69-1,2.06-2.88-2.49-7.4-6.49-13.56-13.49-17.63-6.83-4-14.29-3.48-21.48-2.79A43.65,43.65,0,0,0,550,335.91c-8.06,4.39-11.84,11.91-10.81,21.22,1,9,5.56,15.49,14.67,18.16,2.93.85,5.83,1.82,8.77,2.67,7.4,2.14,14.87,4,22.19,6.43,5.08,1.66,7.54,5.67,7.48,11A10.38,10.38,0,0,1,585,405.76a52.44,52.44,0,0,1-13.52,2.87c-9.36.56-16.77-2.82-20.58-12.09a3.35,3.35,0,0,0-2.3-1.8C545.28,394.53,542,394.66,538.2,394.66Z" transform="translate(-91.81 -190.42)"/><path class="cls-4" d="M475.92,421c-15.68-2.51-24.51-13.38-26.06-29.6a6.36,6.36,0,0,1,1.36-.3c5.75,0,11.5,0,17.43,0,.51,1.44.93,2.81,1.48,4.13,2.1,5.08,5.74,7.83,11.2,9.52,6.16,1.91,11.47.33,16.93-1.55,4.37-1.5,6.29-4.46,6.19-8.53s-2.59-6.18-6.16-7.23c-7.62-2.22-15.28-4.3-22.91-6.5-2.59-.74-5.14-1.58-7.68-2.47-10.8-3.76-15.91-11.87-16.51-22.8-.58-10.54,4.63-18.26,13.58-23.43,5.09-2.94,10.53-4.79,16.7-4.35,4.85.35,9.87-.83,14.61-.07a32.22,32.22,0,0,1,12.06,4.83c7.64,5,12.52,14.34,13.57,24.68H503.08c-.55-1-1.18-2-1.63-3.09-4.35-10.12-17.73-14-27-7.81a9,9,0,0,0-4.13,8.85c.4,3.61,3.22,5.22,6.52,6.06,8.41,2.15,16.8,4.37,25.22,6.47a34.38,34.38,0,0,1,15.55,8.62c6.14,5.84,7.57,13,6.07,21.18-2.05,11.12-13.59,22.19-24.25,23Zm-22-26.35c2.35,11.74,8.31,19.79,19.81,22.1A91.26,91.26,0,0,0,493.09,418a28.27,28.27,0,0,0,22.82-11.44c6-7.76,6.5-19.29.83-25.91a28.91,28.91,0,0,0-14.74-9.2c-9-2.38-18-4.62-27-7-8.3-2.23-11-11.38-5.53-18.08,7.22-8.81,29.72-9.89,35,5.62.28.83.94,2.15,1.47,2.17,3.79.19,7.6.11,11.95.11-3.5-11.73-9.2-20.39-20.59-22.65-10.25-2-20.83-1.91-30.41,3.42-8.29,4.62-12.74,11.73-11.91,21.43.78,9.23,5.14,15.91,14.44,18.69,2.11.63,4.17,1.42,6.28,2,8.33,2.41,16.74,4.57,25,7.23,4.93,1.58,7.4,5.52,7.44,10.69s-2.68,9.13-7.5,10.64a57.68,57.68,0,0,1-15.36,2.84c-8.55.25-15.06-3.54-18.57-11.78a4.1,4.1,0,0,0-2.87-2.08C460.72,394.47,457.54,394.64,453.93,394.64Z" transform="translate(-91.81 -190.42)"/><path class="cls-5" d="M301.54,191.56h25.78c0,6.71,0,13.28,0,19.85q0,33.6,0,67.19c0,14.84-5.81,21.9-20.67,24.28-8.69,1.4-17.33.8-25.56-2.77-7.16-3.1-11.4-8.25-11.41-16.32q0-45.35,0-90.69a12.83,12.83,0,0,1,.2-1.56h25.46v4q0,43.14.05,86.28c0,1.38.18,3.13,1,4,.64.69,2.7.78,3.65.26s1.45-2.11,1.46-3.25c.09-15.42.06-30.84.06-46.26v-45Zm-30.06,60,0,2.9,0,8.82,0,22.19c.59,1.95.76,4.21,1.89,5.78,1.34,1.86,3.51,3.12,5.31,4.64l1.63,1.24,4.94,2.59,6.6,1.51c4.26.06,8.59.62,12.77.07,7.07-.93,13.91-2.81,18.26-9.3l2.25-7.42a4.56,4.56,0,0,1,0-.64,6.58,6.58,0,0,0,.46-1.68q.11-19.31.12-38.61a5.39,5.39,0,0,0-.57-1.63c.17-.73.33-1.47.49-2.21s0-1.38,0-2.07c0-1.29,0-2.58,0-3.87l-.05-5c0-4.12,1.14-8.67-.25-12.24-1.2-3.07-1.05-5,.35-7.46,0-4.26,0-8.52.06-12.77.05-2-.6-2.87-2.71-2.83-5.6.09-11.21.07-16.81,0-1.92,0-2.58.79-2.55,2.62.07,3.53-.18,7.07.1,10.58.1,1.26,1.35,2.43,2.08,3.64l-1.38.19-.81.61a2.34,2.34,0,0,0-.18.64c-.07.09-.22.19-.21.28a4,4,0,0,0,.16.66l0,2,0,3.81v2l-.05.95.3,8c0,2,0,3.95,0,5.93l-.09,3.22c0,1.63,0,3.26-.05,4.9l.14,2.16.06,2.79c0,.53,0,1.06,0,1.59q0,13.18,0,26.39l2.18,2.84-.74,0c-.51,1.42-1,2.83-1.52,4.24l-.08,1.41c-1.6,3.14-4.29,3.51-7.38,2.87l-2.7-2.71c-.06-1.93-.16-3.86-.15-5.79.05-10.2.17-20.41.14-30.62,0-1.1-.83-2.21-1.28-3.32l.73-1.92c.17-1.28.35-2.55.53-3.83v-3.63c0-1.72,0-3.43,0-5.15,0-3.43,0-6.86,0-10.29l0-8.85c0-5.11-.09-10.22,0-15.34,0-2.13-.59-3.08-2.89-3-5.49.11-11,.09-16.47,0-2.1,0-2.75.82-2.72,2.82.09,5.72.05,11.44.06,17.17,0,1.19.05,2.38.07,3.57,0,2.68,0,5.36,0,8.05l0,3.54c.31,3.75-1.64,7.9,2,11.06-3.07,1.19-1.82,3.78-1.94,5.93C271.49,247.68,271.49,249.64,271.48,251.6Z" transform="translate(-91.81 -190.42)"/><path class="cls-5" d="M365.86,230.5c6.57,6.74,13.23,13.42,19.71,20.26a23.06,23.06,0,0,1,6.45,17c-.09,3.91,0,7.83,0,11.75,0,13.76-6,21.1-19.72,23.29a50.81,50.81,0,0,1-22.2-1c-9.11-2.61-14.1-8.11-14.51-17.45-.4-8.91-.09-17.85-.09-27.16h23.2c-1.21-1.39-1.84-2.18-2.54-2.9-4.92-5.12-9.87-10.21-14.78-15.34a21.31,21.31,0,0,1-5.95-15.66c0-3.18,0-6.36,0-9.54.05-12.67,5.49-19.67,17.85-22.24a49.08,49.08,0,0,1,23.29.56c7.34,2,12.56,7.48,13.06,15s.11,15.37.11,23.42h-24a13.58,13.58,0,0,0,.58-2.76c.05-5.59,0-11.18,0-16.78,0-1.87.09-3.95-2.5-4s-3.47,1.83-3.59,4.15C359.94,218.25,360.59,225,365.86,230.5Zm-3.32,3.57q-2.44-9.21-4.9-18.41l-.19-.76.75-4.22c.83-4.69,2.06-5.72,6.17-5.35,3.94.37,4.09,3.13,4.06,6.12-.05,5.59,0,11.18,0,17.37,4.81,0,9.25.08,13.7,0s6.1-1.7,6.1-6.13c0-3.91.19-7.84,0-11.74-.6-10.49-4.08-14.13-13.78-17.34-7-2.31-14.29-1.81-21.3,0-3.66.95-7.62,2.5-10.33,5-5.12,4.68-5.66,11.29-5.19,17.91,0,1.18-.07,2.36-.11,3.54,0,2.21,0,4.42,0,6.62.48,1.35,1,2.71,1.43,4.06l2.1,3.07,3,5.36c.71.74,1.41,1.49,2.12,2.24l3.78,3.63,8,8.48,8.12,9.63,1.75,4.76c.06.45.11.9.17,1.35,0,1,.08,2,.13,3l0,6.62c-.09,1.57-.25,3.15-.26,4.72,0,3.47-2.06,4.28-5.05,4s-5.7-.46-5.51-4.51c.09-1.94-.06-3.9-.1-5.85s0-3.88,0-5.82V261.18c-.55-.78-1.09-2.23-1.66-2.24-4.76-.1-9.52.07-14.28.16H337.2l.58,5.21-.87,13,1.23,6.15c0,1.86-.41,3.81,0,5.56,1.52,6.07,6,10.19,11.7,10.75a130.91,130.91,0,0,0,27.28-.18,13.6,13.6,0,0,0,12.06-11.83c1-7.89.53-16,.7-24-1.41-3.43-2.12-7.43-4.36-10.19-4.6-5.65-10-10.63-15.1-15.89A7.09,7.09,0,0,0,362.54,234.07Zm-3.61,23.14c0,9,0,17.28,0,25.52,0,2.57,1.86,3.26,4,3.18s3.37-1.07,3.29-3.45a64.16,64.16,0,0,1,0-8.77C366.93,267.13,364,262.22,358.93,257.21Z" transform="translate(-91.81 -190.42)"/><path class="cls-5" d="M141.07,191.52h25.32v43.4h5.05V191.64h25.5V302.17H171.61V250.3h-5.18v52H141.07Zm23.54,66-.07-3.69,0-3.68,2.21-2.06,2.23.1,4.2.67c.12,1.57.22,2.89.31,4.21,0,1,.05,2.05.07,3.08l0,1.34-.12,22-.06,6.6,0,10.31v4.16h22v-7.84c0-2.43,0-4.86,0-7.29L194,280.25c.5-1.18,1.41-2.36,1.43-3.54.1-6.9,0-13.8-.05-20.69l0-4.47q0-6.17.07-12.35c0-1.74,0-3.48,0-5.22l0-1.45,0-9.55c0-.73,0-1.46,0-2.19v-2.94l-.75-6.44c.29-2.5.57-5,.86-7.49,0-2.69-.11-5.38,0-8,.12-2.25-.74-3.06-3-2.94-5.35.28-10.72.55-16.08.57-2.45,0-3.13.91-3.1,3.23.12,8.78.09,17.57.11,26.36l-.08,1.4.15,6.68-.16,3.6-2.9,2.18-4.85.59c-.59-1.83-1.17-3.66-1.76-5.48L164,232l.6-18.57c0-5.61,0-11.22.1-16.82,0-2.08-.48-3.14-2.84-3.09q-8.23.16-16.48,0c-2.38-.06-2.86,1-2.82,3.11.11,6.34.1,12.68.13,19l-.05,30.81c0,4-.12,8.06,0,12.08a13.51,13.51,0,0,0,1.13,3.58l-1.08,6.45v32.08h22.15l-.21-4.18c0-3.41,0-6.82,0-10.23l0-24.3C164.59,260.45,164.6,259,164.61,257.52Z" transform="translate(-91.81 -190.42)"/><path class="cls-5" d="M448.17,295.65c.15.5.29,1,.44,1.51l-2.07-2.83-1.32,1.49-3.82-2.42c.82-1.26,1.64-2.52,3.13-4.79l-7.63,1.21-.28-.71-3.56-.46-2.06-.24-7.6.77c0-1.24,0-2.49,0-3.73l-.06-1.59-.24-10.14c.39-3.53.89-7.06,1.09-10.6.05-.86-.87-1.78-1.34-2.66l.76-11.74,2.17-.87,4.33.81,1.54-1.43a1.16,1.16,0,0,1,.1-.71l8.91,1.45c3,.48,3.92-.94,3.5-3.67,0-2.2,0-4.4-.05-6.6a.91.91,0,0,0,.13-.33c0-.09-.11-.25-.17-.25q-7-.08-14-.11h-4.3c-.56-1.26-1.12-2.51-1.67-3.77,0-.92.05-1.84.07-2.76l-.05-22.94c1-.73,1.95-2,3-2.09,4.15-.24,8.32-.09,12.48-.09,7.51,0,7.51,0,7.43-7.74a2.29,2.29,0,0,1,0-.37c.33-2.87-.94-3.83-3.81-3.8-10.29.13-20.58.06-30.86.06s-10.3,0-10.16,10.39q0,13.91,0,27.83l-.29.88c0,1.17,0,2.34.08,3.52l-.12,3.84,0,5.79,0,2.16v3l-.06,2.16.06,19.75c0,.76,0,1.53,0,2.29l.17.74-.11,22.06V299l3.29,1,7.94.72,4.62-.68,1.55-.66.9,0,3.35.67,9.66.68,2-2.39,1.49.07c.81.81,1.67,2.36,2.42,2.31,3.17-.21,6.3-.89,9.45-1.4v2.93H400.36V191.7h48v15.42H426.07v28h20.18v15H426v36.55h23c-.27,3-.51,5.68-.75,8.35-.07.06-.2.13-.19.17A2.54,2.54,0,0,0,448.17,295.65Z" transform="translate(-91.81 -190.42)"/><path class="cls-4" d="M438.17,419.76c-5.34,0-10.67,0-16-.07a24.09,24.09,0,0,1-3.81-.65q0-42,.09-84c0-1.83.17-3.66.26-5.48l19.38,0c.12,1.21.34,2.42.34,3.63q0,41.63,0,83.26C438.43,417.57,438.26,418.66,438.17,419.76Zm-3.25-3.84V333.49H422v82.43Z" transform="translate(-91.81 -190.42)"/><path class="cls-5" d="M205,247.45q0-17.05,0-34.11c0-12.29,5.67-19.43,17.79-21.83a50.54,50.54,0,0,1,22.91.49c10.25,2.7,15.71,8.94,15.81,19.63.23,23.84.18,47.69,0,71.53-.06,9.4-5.52,15.18-14,18a45.7,45.7,0,0,1-30.21-.23c-8.2-2.86-12.26-8.9-12.3-17.58C205,271.42,205,259.44,205,247.45Zm1.81-33.28,0,5.25q-.06,6.14-.1,12.27l.06,11.2.9,1.84c-.27,2.28-.53,4.56-.8,6.84,0,2.45,0,4.9,0,7.35l-.09,1.46V262l0,1.31,0,22c.77,6.33,3.6,11.15,9.91,13.41l-.06-.07.82.48c10.9,3.73,21.86,4,32.34-1,3.22-1.53,5.45-5.16,8.13-7.82.44-1.65.89-3.3,1.33-4.95l.19.13.19-.11c0-.49,0-1,0-1.48l-.18-.73-.62-2.37,0-1.81a12.64,12.64,0,0,0,.68-2.69c.06-5.31,0-10.62,0-15.93,0-.26-.09-.51-.14-.77q0-4.37,0-8.73l.08-4.45.19-4.24c.09-.72.19-1.44.28-2.16-.13-2.24-.27-4.49-.41-6.73l-.08-5.91.09-7c0-.86,0-1.72,0-2.58-.13-1.83-.26-3.65-.38-5.47a15.68,15.68,0,0,0-9-16.63c-6.39-3.07-13.17-3.82-20.15-3.45l-4.88,1.12-3.19.17-5.92,2.55-6,4.76C206.91,204.83,206.69,209.45,206.85,214.17Z" transform="translate(-91.81 -190.42)"/><path class="cls-6" d="M343.55,419.1a24,24,0,0,1-.25-2.54q0-41.83,0-83.68c0-.95.12-1.9.2-3h19.82V402c-.4.63-.79,1.26-1.48,2.37,6.85,0,13.12-.07,19.4.06,1.1,0,2.2.82,3.3,1.26l-24.24-.06q0-32.84,0-65.65a19.34,19.34,0,0,0-.54-3.16l0-.78c.23-.43.44-.86.67-1.28,1.91-3.46,1.74-3.79-2.16-3.82-3.56,0-7.12.17-10.66-.05-2.82-.16-3.52.9-3.51,3.59.09,24.11,0,48.22.07,72.33a26.3,26.3,0,0,0,.31,2.92l.95-.1V334.76h.84v3.89q0,36.72,0,73.44a18.41,18.41,0,0,0,.91,4l21.14.13c-1.66.93-3.29,2.59-5,2.68C356.77,419.25,350.16,419.08,343.55,419.1Z" transform="translate(-91.81 -190.42)"/><path class="cls-6" d="M310.93,330.4c15.07,3.24,26.77,26.08,8.82,40.76.1.21.15.54.32.62,15.72,7.88,14.82,32.29-.25,43.43a7,7,0,0,0-.77.77l-5.88,2.26-4.37-2.12a12.5,12.5,0,0,1,1.65-.69c9.21-2.34,15.94-10.07,17.28-20.52,1.18-9.11-2.85-15.81-10.6-20.45l-5.35-3.21c2-1.23,3.57-2.12,5.07-3.16,9.62-6.72,11.1-18.41,3.59-27.45-3.17-3.82-7.35-5.89-11.91-7.41l.79-.51c-.05-.08-.11-.23-.16-.23l-12.24-.07.19-1.52Z" transform="translate(-91.81 -190.42)"/><path class="cls-4" d="M384.54,405.73c-1.1-.44-2.2-1.24-3.3-1.26-6.28-.13-12.55-.06-19.4-.06.69-1.11,1.08-1.74,1.48-2.37,7.34,0,14.68.11,22,.13s14.65,0,22.47,0c0,5.46.08,10.56-.09,15.65a2.77,2.77,0,0,1-2,1.81c-20.44.1-40.88.08-61.33.05-.28,0-.56-.39-.84-.59,6.62,0,13.23.15,19.83-.18,1.7-.09,3.33-1.75,5-2.68h35.71V405.73Z" transform="translate(-91.81 -190.42)"/><path class="cls-3" d="M242,357c-.21.54-.42,1.09-.62,1.63l0,0,.88.53,3.23,2.59-2.83,2.09-.89.94a23.4,23.4,0,0,0-.58,3.48c-.06,5.94,0,11.89,0,17.84,0,5.38-.94,5.94-6,3.65,0-7.41.12-14.82,0-22.22,0-1.16-.87-2.3-1.34-3.45-2.92-.72-3-2.27-1.39-4.45.74-1,1.2-2.24,1.89-3.3,1-1.61,2.17-3.17,3.26-4.74h8.83v3.52L242,357Z" transform="translate(-91.81 -190.42)"/><path class="cls-3" d="M567.06,192.86l10.15,5.92c3.93,6.18,3.86,13.07,3.82,20-.11,19.91,0,39.82-.07,59.73,0,3.26-.39,6.52-.61,9.78a14.3,14.3,0,0,1-7.3,9.57c-13.22,6.9-26.58,7-39.86.2-1.51-.77-2.56-2.45-3.82-3.71,0-.54.11-1.08.16-1.63a11.44,11.44,0,0,0,2.35,2.49c5.88,3.29,11.89,6.45,18.85,6.25A52.06,52.06,0,0,0,562.82,300c4-1.09,8.33-2.43,11.34-5,2.63-2.27,5.07-6.41,5.13-9.77.42-25.28.27-50.58.15-75.87a12.63,12.63,0,0,0-1.82-6.82c-1.53-2.19-4.06-3.72-6.24-5.42-1.88-1.46-3.87-2.75-5.81-4.11Z" transform="translate(-91.81 -190.42)"/><path class="cls-7" d="M297.11,330.9c-.06.51-.13,1-.19,1.52-11,0-22.05,0-33.08.06a20.21,20.21,0,0,0-3.48.63c-.25.62-.5,1.23-.74,1.84a18.88,18.88,0,0,0-.75,3.72q-.08,33,0,66c0,1.23-.16,2.46-.24,3.69h-1.1c-.07-1.36-.2-2.71-.2-4.06q0-34.11,0-68.23c0-2.17.36-4.34.55-6.51l39.25,0C297.1,330,297.11,330.47,297.11,330.9Z" transform="translate(-91.81 -190.42)"/><path class="cls-4" d="M529.53,292.76c0,.55-.11,1.09-.16,1.63-1.19-3.49-3.37-7-3.42-10.48-.3-24.2-.25-48.4-.1-72.6.06-9.75,5-16,14.51-18.67a45.42,45.42,0,0,1,26.7.22l-1.49.11c-7.56.21-15.17-.08-22.63.86-3.54.45-7.1,2.82-10.05,5.1s-4.46,6.08-4.91,10c-.46,1-1.32,2-1.33,3-.07,23.55-.16,47.1.07,70.65,0,2.95,1.78,5.87,2.74,8.81C529.48,291.83,529.51,292.3,529.53,292.76Z" transform="translate(-91.81 -190.42)"/><path class="cls-8" d="M257.85,329.58c-.19,2.17-.54,4.34-.55,6.51q-.06,34.13,0,68.23c0,1.35.13,2.7.2,4.06h1.1c.08-1.23.24-2.46.24-3.69q0-33,0-66a19.12,19.12,0,0,1,.75-3.73c.05,9,.14,18.06.13,27.09,0,17.7-.11,35.39-.16,53.09-.47-1.51-.93-3-1.4-4.53l-.78.13v8.36h-.78q-.06-43.81-.06-87.63C256.57,330.83,257.4,330.2,257.85,329.58Z" transform="translate(-91.81 -190.42)"/><path class="cls-6" d="M681.18,192.85c-10.54,0-21.07.1-31.61,0-2.69,0-3.93.49-3.92,3.59.11,33.51,0,67,.2,100.54,0,1.55,1.81,3.09,2.78,4.63l-3.56.18V192H652c8.2,0,16.4,0,24.6.07A31,31,0,0,1,681.18,192.85Z" transform="translate(-91.81 -190.42)"/><path class="cls-4" d="M485.3,194.36a47.72,47.72,0,0,0-6.9-1.41c-3.9-.24-7.83,0-11.74-.1-3.47-.12-4.82,1.44-4.81,4.81.06,13.19,0,26.37,0,39.56,0,19.41,0,38.82.07,58.23,0,2.08.89,4.14,1.37,6.21a7,7,0,0,1-2.11-1.05c-.32-.32-.11-1.17-.11-1.78q0-52,0-104.11c0-.72.11-1.44.21-2.77H472.6c3.55,0,7.1.06,10.65,0C485.05,191.91,485.73,192.61,485.3,194.36Z" transform="translate(-91.81 -190.42)"/><path class="cls-8" d="M436.9,289.82l7.63-1.21c-1.49,2.27-2.31,3.53-3.13,4.79l3.82,2.42,1.32-1.49,2.07,2.83v2.21c-3.15.51-6.28,1.19-9.45,1.4-.75.05-1.61-1.5-2.42-2.31.29-.88.59-1.76.88-2.64l.27-2.27-1.23-2.3Z" transform="translate(-91.81 -190.42)"/><path class="cls-4" d="M516.22,197.28c-.71-1.25-1.41-2.51-2.44-4.36-5.61,0-11.81-.16-18,.08-2.54.1-3.05,2.28-3,4.59q.08,17,0,34a25.55,25.55,0,0,1-.61,3.84V192.1h24.07Z" transform="translate(-91.81 -190.42)"/><path class="cls-6" d="M307.52,419.23a41.63,41.63,0,0,1-4.29.46q-22.94.15-45.89.23l-.71-.84h.78c5.86,0,11.71,0,17.57,0C285.82,419.11,296.67,419.18,307.52,419.23Z" transform="translate(-91.81 -190.42)"/><path class="cls-4" d="M464.66,301.64c5.08-.05,10.16-.23,15.23-.11,2.73.07,4.48-.34,4.13-3.65-.08-.67.82-1.45,1.28-2.18v5.94Z" transform="translate(-91.81 -190.42)"/><path class="cls-9" d="M297.11,330.9c0-.43,0-.86,0-1.29l13.83.79Z" transform="translate(-91.81 -190.42)"/><path class="cls-6" d="M475.92,421l23.53-.4c-3.84.26-7.68.68-11.53.74S479.92,421.12,475.92,421Z" transform="translate(-91.81 -190.42)"/><path class="cls-6" d="M246,359c.14,1.5.27,3,.45,4.84h-3.85l2.83-2.09-3.23-2.59Z" transform="translate(-91.81 -190.42)"/><path class="cls-4" d="M485.29,197.29l-1-.74,1.05-.72C485.3,196.32,485.29,196.8,485.29,197.29Z" transform="translate(-91.81 -190.42)"/><path class="cls-8" d="M448.17,295.65a2.54,2.54,0,0,1-.17-.46s.12-.11.19-.17A.64.64,0,0,0,448.17,295.65Z" transform="translate(-91.81 -190.42)"/><polygon class="cls-6" points="150.14 166.56 150.14 166.63 150.35 166.6 150.14 166.56"/><path class="cls-6" d="M241.35,358.63l0,0Z" transform="translate(-91.81 -190.42)"/><path class="cls-6" d="M668.63,206.37q0,40.47,0,80.93a6.29,6.29,0,0,1-.74-2q-.06-38,0-76A12.53,12.53,0,0,1,668.63,206.37Z" transform="translate(-91.81 -190.42)"/><path class="cls-6" d="M675.16,285.38a55.17,55.17,0,0,0,.65-6.13q.08-32.83,0-65.69c0-1.46-.23-2.92-.34-4.37a10.43,10.43,0,0,1,1.09,3.11q.09,34.92,0,69.85C676.58,283.23,675.66,284.3,675.16,285.38Z" transform="translate(-91.81 -190.42)"/><path class="cls-6" d="M114.37,235.45c1.22-5.4,2.31-10.79-.74-16,.79.48,2.26.93,2.28,1.44.17,4.46.11,8.92,0,13.38C115.88,234.69,114.9,235.06,114.37,235.45Z" transform="translate(-91.81 -190.42)"/><path class="cls-6" d="M115.37,267.76l0-19Z" transform="translate(-91.81 -190.42)"/><path class="cls-10" d="M325.65,209.18c-1.4,2.44-1.55,4.39-.35,7.46,1.39,3.57.28,8.12.25,12.24-4.81.49-9.6,1.12-14.41,1.39a53.31,53.31,0,0,1-7.54-.59l-.3-8c0-.32,0-.63.05-.95v-2l0-3.81c0-.68,0-1.37,0-2,0-.31,0-.63.05-.94a2.34,2.34,0,0,1,.18-.64l.81-.61,1.38-.19c1.32,0,2.65,0,4-.07C315.08,210,320.36,209.57,325.65,209.18Z" transform="translate(-91.81 -190.42)"/><path class="cls-11" d="M271.36,213.57c0-5.73,0-11.45-.06-17.17,0-2,.62-2.85,2.72-2.82,5.49.09,11,.11,16.47,0,2.3-.05,2.93.9,2.89,3-.1,5.12,0,10.23,0,15.34l-8.87,0c.3-1.95.59-3.91.94-6.22l-3.28.28,1,5.93Z" transform="translate(-91.81 -190.42)"/><path class="cls-11" d="M325.65,209.18c-5.29.39-10.57.8-15.86,1.17-1.32.09-2.65.05-4,.07-.73-1.21-2-2.38-2.08-3.64-.28-3.51,0-7.05-.1-10.58,0-1.83.63-2.64,2.55-2.62,5.6.07,11.21.09,16.81,0,2.11,0,2.76.84,2.71,2.83C325.61,200.66,325.66,204.92,325.65,209.18Z" transform="translate(-91.81 -190.42)"/><path class="cls-9" d="M303.65,276.66q0-13.2,0-26.4l8.14-.09,1.52,3c0,7.15,0,14.3-.1,21.45,0,1.12-.9,3.2-1.28,3.18A77.46,77.46,0,0,1,303.65,276.66Z" transform="translate(-91.81 -190.42)"/><path class="cls-12" d="M322.8,292c-4.35,6.49-11.19,8.37-18.26,9.3-4.18.55-8.51,0-12.77-.07.71-1.61,1.43-3.21-1.3-3.56l.68-1.28,3-1.45,1.47-.75h8.59c.11-1.34.17-2.14.23-3h2.21l9.57-1.47h1.47l-3,3.38Z" transform="translate(-91.81 -190.42)"/><path class="cls-13" d="M280.23,297.17l-1.63-1.24q2.64-3.94,5.29-7.9,1.83-2.89,3.67-5.79c-.07-4.37-1.24-9,3.28-12.17.23-.16.29-.68.29-1-.05-4.13-.12-8.25-.18-12.38-.17-2.9-.35-5.8-.52-8.7,0-.24,0-.49,0-.73l1.71-1.62c.45,1.11,1.27,2.22,1.28,3.32,0,10.21-.09,20.42-.14,30.62,0,1.93.09,3.86.15,5.79-3.41-.6-5.38.84-7,3.88S282.31,294.54,280.23,297.17Z" transform="translate(-91.81 -190.42)"/><path class="cls-10" d="M271.36,213.57l11.79-1.6h1.35l8.87,0,0,8.85c-.24.66-.5,1.31-.71,2-.31,1-.59,1.95-.88,2.93l-2.53-1.89c-2.35-1.74-4.47-4.17-7.1-5-3.13-1-6.7-.69-10.08-.94l-.61-.71C271.41,216,271.39,214.76,271.36,213.57Z" transform="translate(-91.81 -190.42)"/><path class="cls-14" d="M305.09,279.54l.74,0a75.44,75.44,0,0,1,7.67,0c3.17.32,4.29-.61,4.12-4-.35-7.26-.28-14.55-.38-21.83,3.59-.28,6.51.19,5.72,5,0,.21.64.54,1,.82q.06,8.13.14,16.27a12.59,12.59,0,0,0-1.42-2.87,3.82,3.82,0,0,0-2.46-1.32,2.35,2.35,0,0,0-1.67,1.63c0,2.34.34,4.69.56,7l-1.48,1.48a12.82,12.82,0,0,0-3.23-1.39C311.31,280,308.19,279.8,305.09,279.54Z" transform="translate(-91.81 -190.42)"/><path class="cls-15" d="M271.4,285.51l0-22.19,5,.06v19.5l1.19.32,3.17-4.41.7,1.36c.06.56.12,1.12.19,1.69L279,284.57Z" transform="translate(-91.81 -190.42)"/><path class="cls-16" d="M317.24,253.73c.1,7.28,0,14.57.38,21.83.17,3.36-.95,4.29-4.12,4a75.44,75.44,0,0,0-7.67,0l-2.18-2.84a77.46,77.46,0,0,0,8.26,1.18c.38,0,1.26-2.06,1.28-3.18.13-7.15.08-14.3.1-21.45l1-1c.46,1.09.87,2.08,1.41,3.38.43-3.61.81-6.74,1.19-9.87.12.21.24.42.37.63C317.27,248.83,317.25,251.28,317.24,253.73Z" transform="translate(-91.81 -190.42)"/><path class="cls-17" d="M306.6,291.29h-2.21c-2.62.28-5.25.47-7.84.93-.43.07-.66,1.32-1,2l-1.47.75-3,1.45-.68,1.28c2.73.35,2,2,1.3,3.56l-6.6-1.51c.23-1.13.08-2.68.77-3.3,3.26-2.94,6.76-5.63,10.17-8.4,3.09.64,5.78.27,7.38-2.87l9.75.13c-.3.47-.64,1.37-.91,1.35C308.93,286.43,308.29,289.5,306.6,291.29Z" transform="translate(-91.81 -190.42)"/><path class="cls-12" d="M272,217.85c3.38.25,6.95-.08,10.08.94,2.63.86,4.75,3.29,7.1,5l2.53,1.89c.29-1,.57-2,.88-2.93.21-.67.47-1.32.71-2,0,3.43,0,6.86,0,10.29l-10.29.67c1.3-.63,2.61-1.26,3.9-1.91.84-.43,1.65-.91,2.41-1.33l-4.38-2.7c-1.4-.85-2.77-1.78-4.24-2.49-2.73-1.32-5.55-2.46-8.27-3.8C272.14,219.36,272.18,218.43,272,217.85Z" transform="translate(-91.81 -190.42)"/><path class="cls-15" d="M273.43,239.79c-3.61-3.16-1.66-7.31-2-11.06l7.64,5.21,7.81,6.65-1.83,2-.76.61-4.94.47C279,239.88,276.22,239.83,273.43,239.79Z" transform="translate(-91.81 -190.42)"/><path class="cls-18" d="M303.6,229.68a53.31,53.31,0,0,0,7.54.59c4.81-.27,9.6-.9,14.41-1.39,0,1.68,0,3.36.05,5l-22,1.7C303.57,233.63,303.59,231.65,303.6,229.68Z" transform="translate(-91.81 -190.42)"/><path class="cls-19" d="M271.4,285.51l7.56-.94h5.1l-.17,3.46q-2.65,3.95-5.29,7.9c-1.8-1.52-4-2.78-5.31-4.64C272.16,289.72,272,287.46,271.4,285.51Z" transform="translate(-91.81 -190.42)"/><path class="cls-19" d="M272,217.85c.14.58.1,1.51.45,1.68,2.72,1.34,5.54,2.48,8.27,3.8,1.47.71,2.84,1.64,4.24,2.49l4.38,2.7c-.76.42-1.57.9-2.41,1.33-1.29.65-2.6,1.28-3.9,1.92l-.75,2.22c-1-1.55-2.09-3.11-3.53-5.27.59-3-2.74-5.07-7.37-3.53,0-2.69,0-5.37,0-8.05Z" transform="translate(-91.81 -190.42)"/><path class="cls-18" d="M303.42,243.73c0-1.64,0-3.27.05-4.9a43.79,43.79,0,0,0,4.71.22c5.81-.37,11.62-.84,17.43-1.27,0,.69,0,1.38,0,2.07-2.51,2.53-5.75,2.05-8.88,2.31C312.25,242.52,307.84,243.19,303.42,243.73Z" transform="translate(-91.81 -190.42)"/><path class="cls-18" d="M296.11,288.06c-3.41,2.77-6.91,5.46-10.17,8.4-.69.62-.54,2.17-.77,3.3l-4.94-2.59c2.08-2.63,4.55-5,6.14-7.94s3.63-4.48,7-3.88Z" transform="translate(-91.81 -190.42)"/><path class="cls-13" d="M325.61,237.78c-5.81.43-11.62.9-17.43,1.27a43.79,43.79,0,0,1-4.71-.22l.09-3.22,22-1.7C325.6,235.2,325.61,236.49,325.61,237.78Z" transform="translate(-91.81 -190.42)"/><path class="cls-18" d="M282.32,234l.75-2.22,10.29-.68c0,1.72,0,3.43,0,5.15l-6.42.84c1.54,3,4,2.89,6.42,2.79-.18,1.28-.36,2.55-.53,3.83l-1.06-.12-4.88-3-7.81-6.65Z" transform="translate(-91.81 -190.42)"/><path class="cls-20" d="M303.42,243.73c4.42-.54,8.83-1.21,13.27-1.57,3.13-.26,6.37.22,8.88-2.31-.16.74-.32,1.48-.49,2.21q-.6,3.24-1.22,6.46c-1.5-2.83-3.72-3.48-6.58-2.15-.13-.2-.25-.41-.37-.62a5.84,5.84,0,0,0-1.89-.6c-3.82.19-7.64.48-11.46.74Z" transform="translate(-91.81 -190.42)"/><path class="cls-15" d="M323.86,248.52q.61-3.22,1.22-6.46a5.39,5.39,0,0,1,.57,1.63q0,19.31-.12,38.61a6.58,6.58,0,0,1-.46,1.68c-.33-.67-.92-1.32-1-2-.12-2.05,0-4.11,0-6.17q-.07-8.13-.14-16.27Z" transform="translate(-91.81 -190.42)"/><path class="cls-15" d="M303.56,245.89c3.82-.26,7.64-.55,11.46-.74a5.84,5.84,0,0,1,1.89.6c-.38,3.13-.76,6.26-1.19,9.87-.54-1.3-1-2.29-1.41-3.38l-1,1c-.51-1-1-2-1.52-3l1-1.49h-9.16Z" transform="translate(-91.81 -190.42)"/><path class="cls-19" d="M322.8,292l-8.14,1.16c1.19-1.35,2.08-2.37,3-3.38-.21-1-.42-2.05-.67-3.25l2.12-1.79,2.91-.42,3.05.26Z" transform="translate(-91.81 -190.42)"/><path class="cls-12" d="M282.32,234l-3.22-.05-7.64-5.21c0-1.18,0-2.36,0-3.54,4.63-1.54,8,.54,7.37,3.53C280.23,230.88,281.28,232.44,282.32,234Z" transform="translate(-91.81 -190.42)"/><path class="cls-13" d="M325.05,284.62l-3.05-.26c1.19-2.88-.46-3.77-2.9-4.09-.22-2.34-.56-4.69-.56-7a2.35,2.35,0,0,1,1.67-1.63,3.82,3.82,0,0,1,2.46,1.32,12.59,12.59,0,0,1,1.42,2.87c0,2.06-.1,4.12,0,6.17,0,.69.63,1.34,1,2A4.56,4.56,0,0,0,325.05,284.62Z" transform="translate(-91.81 -190.42)"/><path class="cls-13" d="M276.42,263.38l-5-.06c0-2.94,0-5.88,0-8.82l.54-2.89h0l4.43,3C276.43,257.51,276.42,260.44,276.42,263.38Z" transform="translate(-91.81 -190.42)"/><path class="cls-16" d="M305.09,279.54c3.1.26,6.22.41,9.3.82a12.82,12.82,0,0,1,3.23,1.39l-.72,1.5c-2.75-.23-5.5-.65-8.24-.61a24.38,24.38,0,0,0-5.09,1.14C304.07,282.37,304.58,281,305.09,279.54Z" transform="translate(-91.81 -190.42)"/><path class="cls-20" d="M273.43,239.79c2.79,0,5.57.09,5.95,3.84l0,0c-2.7-1.75-3,.09-3.14,2.12l-4.79,0C271.61,243.57,270.36,241,273.43,239.79Z" transform="translate(-91.81 -190.42)"/><path class="cls-13" d="M303.57,283.78a24.38,24.38,0,0,1,5.09-1.14c2.74,0,5.49.38,8.24.61l0,1.32-2.3.68-1.39.07-9.75-.13C303.52,284.72,303.54,284.25,303.57,283.78Z" transform="translate(-91.81 -190.42)"/><path class="cls-21" d="M271.49,245.72l4.79,0,0,4.39c-1.23,1.11-4.09-2.44-4.31,1.51h-.52C271.49,249.64,271.49,247.68,271.49,245.72Z" transform="translate(-91.81 -190.42)"/><path class="cls-14" d="M293.38,239.87c-2.45.1-4.88.17-6.42-2.79l6.42-.84Z" transform="translate(-91.81 -190.42)"/><path class="cls-13" d="M303.62,248.68h9.16l-1,1.49-8.14.09C303.63,249.74,303.62,249.21,303.62,248.68Z" transform="translate(-91.81 -190.42)"/><path class="cls-20" d="M291.79,243.58l1.06.12c-.25.64-.49,1.28-.73,1.92l-1.71,1.62-.75,0c-.24-.5-.49-1-.73-1.49Z" transform="translate(-91.81 -190.42)"/><path class="cls-13" d="M303.38,214.85l0,3.81Z" transform="translate(-91.81 -190.42)"/><path class="cls-14" d="M271.48,251.6H272l-.54,2.89Z" transform="translate(-91.81 -190.42)"/><path class="cls-13" d="M304.44,210.61l-.81.61Z" transform="translate(-91.81 -190.42)"/><path class="cls-13" d="M303.45,211.86c0,.31,0,.63-.05.94a4,4,0,0,1-.16-.66C303.23,212.05,303.38,212,303.45,211.86Z" transform="translate(-91.81 -190.42)"/><path class="cls-13" d="M303.35,220.69c0,.32,0,.63-.05.95C303.32,221.32,303.34,221,303.35,220.69Z" transform="translate(-91.81 -190.42)"/><path class="cls-11" d="M337.58,216.52c-.47-6.62.07-13.23,5.19-17.91,2.71-2.49,6.67-4,10.33-5,7-1.84,14.3-2.34,21.3,0,9.7,3.21,13.18,6.85,13.78,17.34.23,3.9,0,7.83,0,11.74,0,4.43-1.51,6-6.1,6.13s-8.89,0-13.7,0c0-6.19,0-11.78,0-17.37,0-3-.12-5.75-4.06-6.12-4.11-.37-5.34.66-6.17,5.35l-.75,4.22-5.28.65Z" transform="translate(-91.81 -190.42)"/><path class="cls-10" d="M389.9,263.81c-.17,8,.31,16.08-.7,24a13.6,13.6,0,0,1-12.06,11.83,130.91,130.91,0,0,1-27.28.18c-5.7-.56-10.18-4.68-11.7-10.75-.43-1.75,0-3.7,0-5.56l1.58-1.72,4.25.35-1.67-2.05a27.59,27.59,0,0,0,3.68,0c2.2-.33,4.4-.74,6.57-1.25,1.57-.38,3.09-1,4.64-1.5,0,2,.19,3.91.1,5.85-.19,4.05,2.66,4.23,5.51,4.51s5-.53,5.05-4c0-1.57.17-3.15.26-4.72,3.13-1.87,5.91-4.32,10.18-3.21,1.69.44,4.69,1.36,5.59-2.7l-5.19.66h0l5.09-2.5-.16-.5-9,.88,0-1.55H389l.28.15L389,270Z" transform="translate(-91.81 -190.42)"/><path class="cls-12" d="M378.69,273.67l5.19-.66c-.9,4.06-3.9,3.14-5.59,2.7-4.27-1.11-7.05,1.34-10.18,3.21,0-2.21,0-4.42,0-6.62,1-1.06,3.06-2.16-.13-3l-.17-1.35c.85-.09,2.34,0,2.44-.29,1.33-4.22,5-1.86,7.45-2.76.28-.11.57-.17.93-.27L375.89,263l2-3c-2.79-1.79-6.32-3.15-3.78-6.44-3-3.37-5.73-6.47-8.66-9.79l3-1.54c-4-.26-6-2.5-6.68-6.08q.36,0,.72-.06c2.62.69,4.95,2.78,7.95,1.57,5.08,5.26,10.5,10.24,15.1,15.89,2.24,2.76,2.95,6.76,4.36,10.19L389,270H374.59l0,1.55,9-.88.16.5-5.09,2.5h-4.64l.14.81Zm-8.39.57c-.19-.09-.42-.27-.55-.22s-.18.35-.26.53c.19.08.42.27.55.22S370.22,274.42,370.3,274.24Z" transform="translate(-91.81 -190.42)"/><path class="cls-19" d="M361.77,236.22c.68,3.58,2.64,5.82,6.68,6.08l-3,1.54c2.93,3.32,5.67,6.42,8.66,9.79-2.54,3.29,1,4.65,3.78,6.44l-2,3,2.76,1.55c-.36.1-.65.16-.93.27-2.46.9-6.12-1.46-7.45,2.76-.1.32-1.59.2-2.44.29-.58-1.59-1.16-3.17-1.75-4.76-.43-2.06-.47-4.33-1.42-6.12s-2-2.85,0-4.63c.43-.39-.42-2.44-1-3.6-.36-.78-1.6-1.26-1.76-2-.68-3.25-1.11-6.55-1.63-9.83Zm8.28,28.1.51-.17-.39-1.27-.57.19Z" transform="translate(-91.81 -190.42)"/><path class="cls-18" d="M336.91,277.33l.87-13,3.48-5.21c4.76-.09,9.52-.26,14.28-.16.57,0,1.11,1.46,1.66,2.24-3.72.92-7.87,1.39-7.62,7.13h4.51a2.7,2.7,0,0,1-1.76,1.36,83.81,83.81,0,0,0-8.27,3.14A75.34,75.34,0,0,0,336.91,277.33Z" transform="translate(-91.81 -190.42)"/><path class="cls-18" d="M361.77,236.22l-1.48.73-5,3.14c2.68,3.36,3.78,9.22,2.7,13.43q-4-4.25-8-8.48c5.81-5.48,6.49-10.82,2.17-16.91l4.44-8.26,1.72,5.08c-2.29,4.45-1.76,6.45,2.55,9.6l1.68.5v1.11Q362.13,236.18,361.77,236.22Z" transform="translate(-91.81 -190.42)"/><path class="cls-17" d="M336.91,277.33a75.34,75.34,0,0,1,7.15-4.52,83.81,83.81,0,0,1,8.27-3.14,2.7,2.7,0,0,0,1.76-1.36h-4.51c-.25-5.74,3.9-6.21,7.62-7.13v10.28a8.67,8.67,0,0,0-2.52.31,86.49,86.49,0,0,0-10.48,4.94c-1.84,1.13-3,3.33-4.48,5.05l-1.58,1.72Z" transform="translate(-91.81 -190.42)"/><path class="cls-17" d="M358,253.52c1.08-4.21,0-10.07-2.7-13.43l5-3.14c.52,3.28.95,6.58,1.63,9.83.16.76,1.4,1.24,1.76,2,.54,1.16,1.39,3.21,1,3.6-2,1.78-.91,2.88,0,4.63s1,4.06,1.42,6.12Z" transform="translate(-91.81 -190.42)"/><path class="cls-12" d="M352.17,215.55l5.28-.65c.07.25.13.51.19.76l-1,.77-6.25,7.94a19.25,19.25,0,0,1-3.27,1.44c-3.14.76-6.13,3.51-9.58.87,0-2.2,0-4.41,0-6.62,2.4.4,4.78,1,7.19,1.16C348.89,221.49,351.48,219.42,352.17,215.55Z" transform="translate(-91.81 -190.42)"/><path class="cls-19" d="M339.72,281.76c1.47-1.72,2.64-3.92,4.48-5.05a86.49,86.49,0,0,1,10.48-4.94,8.67,8.67,0,0,1,2.52-.31c0,1.94,0,3.88,0,5.82-1.55.51-3.07,1.12-4.64,1.5-2.17.51-4.37.92-6.57,1.25a27.59,27.59,0,0,1-3.68,0l1.67,2.05Z" transform="translate(-91.81 -190.42)"/><path class="cls-16" d="M350.37,224.37l6.25-7.94c0,1.15-.05,2.29-.08,3.44l-4.44,8.26c-2.91,1.75.42,3.43.07,5.15-1.12.29-2.78,1.2-3.26.77-2.67-2.37-5.27-.32-7.87-.24L339,230.74a75.31,75.31,0,0,0,8.14-3C348.41,227.09,349.29,225.52,350.37,224.37Z" transform="translate(-91.81 -190.42)"/><path class="cls-10" d="M352.17,215.55c-.69,3.87-3.28,5.94-7.51,5.67-2.41-.16-4.79-.76-7.19-1.16,0-1.18.07-2.36.11-3.54Z" transform="translate(-91.81 -190.42)"/><path class="cls-21" d="M352.17,233.28c.35-1.72-3-3.4-.07-5.15,4.32,6.09,3.64,11.43-2.17,16.91l-3.78-3.63,4.09-2.14a2.84,2.84,0,0,0,2.12-2,24.24,24.24,0,0,0,.6-4Zm-2.86,8-.39-.11.28.22.36.89a1.48,1.48,0,0,0,.25-.19C349.66,241.83,349.48,241.56,349.31,241.3Z" transform="translate(-91.81 -190.42)"/><path class="cls-15" d="M352.17,233.28H353c-1.15.75-2.31,1.49-3.46,2.25q-2.75,1.81-5.47,3.65l-3-5.36c2.59-.08,5.19-2.13,7.86.24C349.39,234.48,351.05,233.57,352.17,233.28Z" transform="translate(-91.81 -190.42)"/><path class="cls-14" d="M356.54,219.87c0-1.15,0-2.29.08-3.44l1-.77q2.46,9.21,4.9,18.41c0,.33,0,.65-.05,1l-1.68-.5-.45-.87v-1.32l-2.1-7.41Z" transform="translate(-91.81 -190.42)"/><path class="cls-14" d="M344,239.17q2.73-1.83,5.47-3.65c1.15-.76,2.31-1.5,3.46-2.25a24.24,24.24,0,0,1-.6,4,2.84,2.84,0,0,1-2.12,2l-4.09,2.14C345.44,240.66,344.74,239.91,344,239.17Z" transform="translate(-91.81 -190.42)"/><path class="cls-17" d="M350.37,224.37c-1.08,1.15-2,2.72-3.28,3.37a75.31,75.31,0,0,1-8.14,3c-.48-1.35-.95-2.71-1.43-4.06,3.45,2.64,6.44-.11,9.58-.87A19.25,19.25,0,0,0,350.37,224.37Z" transform="translate(-91.81 -190.42)"/><path class="cls-20" d="M362.49,235.05c0-.33,0-.65.05-1a7.09,7.09,0,0,1,7.9,3.66c-3,1.21-5.33-.88-7.95-1.57Z" transform="translate(-91.81 -190.42)"/><path class="cls-14" d="M341.26,259.1l-3.48,5.21c-.18-1.6-.36-3.2-.58-5.21Z" transform="translate(-91.81 -190.42)"/><path class="cls-19" d="M368,269.26c3.19.88,1.1,2,.13,3C368.08,271.29,368,270.27,368,269.26Z" transform="translate(-91.81 -190.42)"/><path class="cls-22" d="M164.56,213.43,164,232c-4.1.75-7.14,2.74-8.15,7.05l-4.48,5.2h0l-.75.75,0,0-1.37.19c-1.17-.5-2.47-1.59-3.46-1.35-1.2.29-2.13,1.69-3.18,2.62q0-15.41.05-30.81a54.14,54.14,0,0,1,6.5-2.86C154.32,211.22,159.48,212,164.56,213.43Z" transform="translate(-91.81 -190.42)"/><path class="cls-11" d="M173.51,223.09c0-8.79,0-17.58-.11-26.36,0-2.32.65-3.22,3.1-3.23,5.36,0,10.73-.29,16.08-.57,2.23-.12,3.09.69,3,2.94-.15,2.67,0,5.36,0,8l-8.13,6.52c-.07.09-.2.18-.19.25a2.72,2.72,0,0,0,.17.53l0,0-.75.76,0,0-.76.76,0,0-.76.76,0,0-.76.76,0,0-1.5.78,0,0-1.5,1.49,0,0-.76.76v0l-3.7,3.68,0,0-.76.75,0,0-.76.77,0,0-.78.76,0,0Z" transform="translate(-91.81 -190.42)"/><path class="cls-11" d="M164.56,213.43c-5.08-1.46-10.24-2.21-15.41-.67a54.14,54.14,0,0,0-6.5,2.86c0-6.34,0-12.68-.13-19,0-2.06.44-3.17,2.82-3.11q8.24.19,16.48,0c2.36-.05,2.88,1,2.84,3.09C164.55,202.21,164.59,207.82,164.56,213.43Z" transform="translate(-91.81 -190.42)"/><path class="cls-19" d="M164.6,296.43l.21,4.19H142.66v-3.45l8.39.69-2.8-5.47,4.26-.19-1.72-2,6.76-1.66-5.92-1.69-1.06-.92c5.27-.07,3.18-3,3.19-5,0-1.76-.68-3.52-1.15-5.71l-4.2,1.38c.8-3.12,1.53-5.94,2.25-8.76a24.54,24.54,0,0,1,2.25-3.44c1.39-1.51,2.17-2.93.55-4.71l.08-.75q1.83-1.44,3.68-2.86l1.38-.06c-.1,8.76-.25,17.51-.25,26.27,0,1.32.73,2.65,1.13,4l1.67,3.14-2.87,4Z" transform="translate(-91.81 -190.42)"/><path class="cls-21" d="M195.44,239.2q0,6.18-.07,12.35l-21.86,1.52c-.09-1.32-.19-2.64-.31-4.21l-4.2-.67a31.83,31.83,0,0,1,4.08-2.9c1.57-.8,1.5-1.49.33-2.49h0l8.11-.68c1.52-.12,3.82.34,4.44-.48,2.26-3,5.28-2.26,8.16-2.49Z" transform="translate(-91.81 -190.42)"/><path class="cls-12" d="M150.66,267.85c-.72,2.82-1.45,5.64-2.25,8.76l4.2-1.38c.47,2.19,1.16,3.95,1.15,5.71,0,1.93,2.08,4.9-3.19,5l1.06.92,5.92,1.69-6.76,1.66,1.72,2-4.26.19,2.8,5.47-8.39-.69V276.63h2.79C146,272.82,146.62,269.29,150.66,267.85Z" transform="translate(-91.81 -190.42)"/><path class="cls-9" d="M195.42,256c0,6.89.15,13.79.05,20.69,0,1.18-.93,2.36-1.43,3.54l-7.57-.22q0-6.94.07-13.9l-.06-8.64.28-.73Z" transform="translate(-91.81 -190.42)"/><path class="cls-17" d="M173.47,296.44c0-3.44,0-6.87,0-10.31l22-.66c0,2.43,0,4.86,0,7.29-.47.09-1.22,0-1.37.3-.75,1.39-1.35,2.87-2,4.32-1.26-.78-2.48-2.17-3.78-2.24C183.31,294.89,178.19,293.7,173.47,296.44Zm9.12-3.49c.19.08.42.27.55.22s.18-.35.27-.54c-.19-.08-.42-.27-.56-.21S182.67,292.76,182.59,293Z" transform="translate(-91.81 -190.42)"/><path class="cls-14" d="M187.38,210.44l8.13-6.52c-.29,2.5-.57,5-.86,7.49l-21.07,19.76-.15-6.68,1.47-1.56,0,0,.78-.76,0,0c.26-.25.51-.51.76-.77l0,0,.76-.75,0,0,3.7-3.68v0l.76-.76,0,0,1.5-1.49,0,0,1.5-.78,0,0,.76-.76,0,0,.76-.76,0,0,.76-.76,0,0,.75-.76,0,0,.53-.22Z" transform="translate(-91.81 -190.42)"/><path class="cls-19" d="M173.47,296.44c4.72-2.74,9.84-1.55,14.81-1.3,1.3.07,2.52,1.46,3.78,2.24.65-1.45,1.25-2.93,2-4.32.15-.27.9-.21,1.37-.3v7.84h-22Z" transform="translate(-91.81 -190.42)"/><path class="cls-15" d="M195.48,285.47l-22,.66.06-6.6,1.61.09,11.37.41,7.57.22Z" transform="translate(-91.81 -190.42)"/><path class="cls-23" d="M173.58,231.17l21.07-19.76.75,6.44c-2,1.3-4.05,2.47-5.9,3.94s-3.24,3.62-5.24,4.7-2.89,2.4-2.73,4.56l-.72,1.51-7.39,2.21Z" transform="translate(-91.81 -190.42)"/><path class="cls-18" d="M158.6,256l-1.38.06-1.4,0c0-.21,0-.41-.09-.62-.79-1.77-1.57-3.54-2.36-5.32l2.6-3.41-.15-.12,1.53-.75v0q4.14-4.19,8.29-8.38l0,.06,4.84-.59c-2.32,4.92-2.29,5,2.15,5.05l.75.8h0l-2.89.79-4.35,2.21c0,.24-.07.47-.11.7l-5.07.71c-2.51,0-2.26,1.34-1.5,3q0,.36,0,.72c0,1,0,1.93-.05,2.89Z" transform="translate(-91.81 -190.42)"/><path class="cls-8" d="M142.6,246.43c1.05-.93,2-2.33,3.18-2.62,1-.24,2.29.85,3.46,1.35l-.15,1.31,0,0-.77.77,0,0-2.95,3.09,3.63,3.6,4.65,1.41-.16.76,0,0-9.81,6a13.51,13.51,0,0,1-1.13-3.58C142.48,254.49,142.59,250.45,142.6,246.43Z" transform="translate(-91.81 -190.42)"/><path class="cls-13" d="M164.59,261.91l0,24.3-3.71-.26q0-12,.1-24Z" transform="translate(-91.81 -190.42)"/><path class="cls-15" d="M195.42,256l-8.66.74a8.73,8.73,0,0,0-2.83-1c-2.76,0-5.51.28-8.27.45l-.75.08-1.33-.09c0-1-.05-2.06-.07-3.08l21.86-1.52C195.39,253,195.41,254.53,195.42,256Z" transform="translate(-91.81 -190.42)"/><path class="cls-13" d="M165.67,237.54l0,0c-3.61,2-8.14,3-8.29,8.37v0l-1.53.75.15.12-1.53-.15-.82.69,0,0-.7.79-.69.68-.79.69,0,0-1.42.71-.05.05a4.33,4.33,0,0,0-.72,0l0,0-2.18-.72,1.44-2.27,0,0,.77-.77,0,0,1.52-1.5,0,0,.75-.75h0l5.91-5.18-.05.05.75-.78,0,0,.81-1.12,5.18-5.19C164.5,233.88,165.08,235.71,165.67,237.54Z" transform="translate(-91.81 -190.42)"/><path class="cls-20" d="M150.66,267.85c-4,1.44-4.62,5-5.21,8.78h-2.79v-8.09c4.13.09,5.64-3.13,7.62-5.87a22,22,0,0,1,3.18-3c1.62,1.78.84,3.2-.55,4.71A24.54,24.54,0,0,0,150.66,267.85Z" transform="translate(-91.81 -190.42)"/><path class="cls-19" d="M180.81,232.56l.72-1.51c3.51-2.82,7-5.68,10.56-8.44a23.6,23.6,0,0,1,3.32-1.82l0,2.19c-5,1.77-5.38,5.81-5.12,10.2l-2.91.65-3.65.31Z" transform="translate(-91.81 -190.42)"/><path class="cls-21" d="M175.1,279.62l-1.61-.09.12-22h12.87l.06,8.64c-.43-.73-1.15-1.44-1.23-2.22-.47-4.91-.42-4.92-5.38-5-.73,0-1.47,0-2.2,0-2-.15-2.84.71-2.8,2.78C175.06,267.66,175.05,273.64,175.1,279.62Z" transform="translate(-91.81 -190.42)"/><path class="cls-21" d="M153.46,259.7a22,22,0,0,0-3.18,3c-2,2.74-3.49,6-7.62,5.87l1.08-6.45,9.81-6c0,1,0,1.94,0,2.91Z" transform="translate(-91.81 -190.42)"/><path class="cls-15" d="M183.75,234.14l3.65-.31,8,.15c0,1.74,0,3.48,0,5.22l-1.32,0c-.86-.52-1.7-1.43-2.59-1.49-3.61-.25-7.22-.17-9.95,2.81l-1.51-2.07v-2.91Z" transform="translate(-91.81 -190.42)"/><path class="cls-17" d="M160.85,286l3.71.26c0,3.41,0,6.82,0,10.22l-6.32-3,2.87-4-1.67-3.14Z" transform="translate(-91.81 -190.42)"/><path class="cls-21" d="M183.75,234.14l-3.68,1.35-6,1.86.3,1,2.81.2a18.78,18.78,0,0,0-2.44,1.39,21.72,21.72,0,0,0-2.08,2.1c-4.44-.06-4.47-.13-2.15-5.05l2.91-2.18,7.39-2.21Z" transform="translate(-91.81 -190.42)"/><path class="cls-20" d="M190.31,233.18c-.26-4.39.15-8.43,5.12-10.2l0,9.55Z" transform="translate(-91.81 -190.42)"/><path class="cls-18" d="M195.41,220.79a23.6,23.6,0,0,0-3.32,1.82c-3.57,2.76-7.05,5.62-10.56,8.44-.16-2.16.66-3.44,2.73-4.56s3.4-3.25,5.24-4.7,3.93-2.64,5.9-3.94C195.41,218.83,195.41,219.81,195.41,220.79Z" transform="translate(-91.81 -190.42)"/><path class="cls-20" d="M166.06,246.5c0-.23.08-.46.11-.7l4.35-2.21,2.89-.79c1.17,1,1.24,1.69-.33,2.49a31.83,31.83,0,0,0-4.08,2.9l-2.23-.1C166.54,247.56,166.3,247,166.06,246.5Z" transform="translate(-91.81 -190.42)"/><path class="cls-8" d="M163.91,232.06l-5.18,5.19-.81,1.12,0,0-.75.78.05-.05-1.43,0c1-4.31,4.05-6.3,8.15-7.05Z" transform="translate(-91.81 -190.42)"/><path class="cls-20" d="M186.48,257.49H173.61l0-1.34,1.33.09.75-.08c2.76-.17,5.51-.45,8.27-.45a8.73,8.73,0,0,1,2.83,1Z" transform="translate(-91.81 -190.42)"/><path class="cls-19" d="M166.06,246.5c.24.53.48,1.06.71,1.59l-2.21,2.06-5.07.74q0-.36,0-.72l1.5-3Z" transform="translate(-91.81 -190.42)"/><path class="cls-20" d="M159.49,250.89l5.07-.74c0,1.22,0,2.45,0,3.68l-3.64.79-1.46-.84C159.46,252.82,159.47,251.85,159.49,250.89Z" transform="translate(-91.81 -190.42)"/><path class="cls-14" d="M164.59,261.91H161c0-1.47,0-2.94,0-4.41h3.62Z" transform="translate(-91.81 -190.42)"/><path class="cls-21" d="M164.61,257.52H161l-.09-2.89,3.64-.79C164.56,255.06,164.58,256.29,164.61,257.52Z" transform="translate(-91.81 -190.42)"/><path class="cls-14" d="M190.31,233.18l5.15-.65,0,1.45-8-.15Z" transform="translate(-91.81 -190.42)"/><path class="cls-12" d="M174.9,222.93l-1.47,1.56c0-.47,0-.93.08-1.4Z" transform="translate(-91.81 -190.42)"/><path class="cls-11" d="M402.2,231.74q0-13.92,0-27.83c2.9-.13,5.92-.79,8.69-.25,4.5.88,8.83,2.55,13.23,3.89l.05,22.94L403,231.93Z" transform="translate(-91.81 -190.42)"/><path class="cls-12" d="M401.85,245.77c0-1.93,0-3.86,0-5.79l1.13-.08c1.41,1,2.91,1.91,4.21,3s2.66,1.74,3.79,1l3.13,4.08c3.19,1.49,3.24-2.89,5.6-4.18a3.71,3.71,0,0,0,1.37-2.38c.5-2.66.76-5.37,1.23-8,0-.14,1.17-.09,1.79-.13.55,1.26,1.11,2.51,1.67,3.77l2.75,3.45-3,5.55,1.56.63-1.33,1.2-2.17.87c-.49.44-1.33.83-1.4,1.33-.61,4.19-1.08,8.4-1.6,12.61l-4.68,1.87a15.15,15.15,0,0,1-2.57,1c-2.72.56-5.46,1-8.19,1.5l-.28-.15.27.15H417.3l.2,1.07-3.45,1.72,1,1.23,2.67-.35q-.74,4.41-1.48,8.82l-3.12-2.36v-5.1l-10.1.82-1.08-.07-.06-19.75.06-2.16v-3C401.88,247.21,401.87,246.49,401.85,245.77Zm.9,17.39h6.85c-1.56-1.35-2.48-2.67-3.06-2.54C405.4,260.87,404.46,262,402.75,263.16Zm10.18,7.11-.24-.88-2.31.66.2.75ZM409.1,259.4l-.42-.13.06.24Z" transform="translate(-91.81 -190.42)"/><path class="cls-16" d="M424.14,207.55c-4.4-1.34-8.73-3-13.23-3.89-2.77-.54-5.79.12-8.69.25-.14-10.38-.14-10.38,10.16-10.39s20.57.07,30.86-.06c2.87,0,4.14.93,3.81,3.8a2.29,2.29,0,0,0,0,.37c.08,7.74.08,7.74-7.43,7.74-4.16,0-8.33-.15-12.48.09C426.09,205.52,425.13,206.82,424.14,207.55Z" transform="translate(-91.81 -190.42)"/><path class="cls-10" d="M403,272.91l10.1-.82v5.1l3.12,2.36c-.4,1.11-1.17,2.22-1.14,3.31.05,1.87-2.33,4.12.68,5.62-.09.44-.17.89-.26,1.33L414,290l0,.39,1.37.15-2.19,8.76-8,.69-3.29-1c0-.35,0-.71,0-1.06l.11-22.06,2.27-1L403,273.66Z" transform="translate(-91.81 -190.42)"/><path class="cls-10" d="M424.12,233.25c-.62,0-1.76,0-1.79.13-.47,2.67-.73,5.38-1.23,8a3.71,3.71,0,0,1-1.37,2.38c-2.36,1.29-2.41,5.67-5.6,4.18L411,243.9c-1.13.79-2.37.3-3.79-1s-2.8-2-4.21-3c-.33-1.25-.67-2.51-1-3.76,0-1.18-.05-2.35-.08-3.52l1.07-.69,21.21-1.44C424.17,231.41,424.14,232.33,424.12,233.25ZM405,232.91l0,.57h4.67l0-.57Z" transform="translate(-91.81 -190.42)"/><path class="cls-22" d="M433.21,300.78l-9.66-.68-.66-8,.5-.86.91-.23-.91-.57v-1.28l7.6-.77-.27,1.38c.17.76.33,1.51.5,2.27l1.66,5.56v0Z" transform="translate(-91.81 -190.42)"/><path class="cls-22" d="M430.09,237q7,0,14,.11c.06,0,.16.16.17.25a.91.91,0,0,1-.13.33c-3.13.42-6.25.9-9.39,1.25-2.85.32-3,2.25-1.7,3.8,1,1.15,3,1.73,4.6,1.9a39,39,0,0,0,6.54-.35c.42,2.73-.54,4.15-3.5,3.67l-8.91-1.45Q430.92,241.77,430.09,237Z" transform="translate(-91.81 -190.42)"/><path class="cls-21" d="M444.17,244.3a39,39,0,0,1-6.54.35c-1.62-.17-3.65-.75-4.6-1.9-1.29-1.55-1.15-3.48,1.7-3.8,3.14-.35,6.26-.83,9.39-1.25C444.14,239.9,444.15,242.1,444.17,244.3Z" transform="translate(-91.81 -190.42)"/><path class="cls-19" d="M415.74,288.48c-3-1.5-.63-3.75-.68-5.62,0-1.09.74-2.2,1.14-3.31q.75-4.41,1.48-8.82c.49-.91,1.6-2.08,1.35-2.69-1-2.38.75-3.7,1.59-5.38.52-4.21,1-8.42,1.6-12.61.07-.5.91-.89,1.4-1.33l-.76,11.74q-1.35,5.49-2.71,11l-1.08,3.63c-.45,2.23-.9,4.45-1.34,6.68Z" transform="translate(-91.81 -190.42)"/><path class="cls-22" d="M415.74,288.48c.66-2.24,1.32-4.49,2-6.73l1.36,1.59a64.59,64.59,0,0,0-1.28,7.24c-.22,3.14-.06,6.32-.06,9.48l-4.62.68.06-1.41,2.19-8.76.1-.76C415.57,289.37,415.65,288.92,415.74,288.48Z" transform="translate(-91.81 -190.42)"/><path class="cls-18" d="M430.09,237q.82,4.76,1.67,9.51a1.16,1.16,0,0,0-.1.71l-1.54,1.43-4.33-.81,1.33-1.2-1.56-.63,3-5.55L425.79,237Z" transform="translate(-91.81 -190.42)"/><path class="cls-22" d="M420.15,271.44q1.37-5.49,2.71-11c.47.88,1.39,1.8,1.34,2.66-.2,3.54-.7,7.07-1.09,10.6l-1.77-1.57Z" transform="translate(-91.81 -190.42)"/><path class="cls-13" d="M422.89,292.12l.66,8-3.35-.67.12-15.59,1.13.1Z" transform="translate(-91.81 -190.42)"/><path class="cls-8" d="M420.32,283.84l-.12,15.59-.9,0-.21-16.06-1.36-1.59c.44-2.23.89-4.45,1.34-6.68C419.49,278,419.9,280.92,420.32,283.84Z" transform="translate(-91.81 -190.42)"/><path class="cls-21" d="M422.89,292.12l-1.44-8.18c0-3.93-.07-7.86-.11-11.79l1.77,1.57.24,10.14.06,1.59c0,1.24,0,2.49,0,3.73,0,.43,0,.85,0,1.28v.8Z" transform="translate(-91.81 -190.42)"/><path class="cls-15" d="M419.09,283.34l.21,16.06-1.55.66c0-3.16-.16-6.34.06-9.48A64.59,64.59,0,0,1,419.09,283.34Z" transform="translate(-91.81 -190.42)"/><path class="cls-21" d="M431.23,292.06c-.17-.76-.33-1.51-.5-2.27l2.76.95-.43-2.09,3.56.46c0,.71,0,1.43,0,2.14l1.23,2.3-2.54-.06Z" transform="translate(-91.81 -190.42)"/><path class="cls-21" d="M413.19,299.33l-.06,1.41-7.94-.72Z" transform="translate(-91.81 -190.42)"/><path class="cls-19" d="M433.21,300.78l-.33-3.14,1.11-.45h1.24l0,1.2Z" transform="translate(-91.81 -190.42)"/><path class="cls-21" d="M435.25,298.39c0-.4,0-.8,0-1.2s.06-1,.08-1.54l2.31.17c-.29.88-.59,1.76-.88,2.64Z" transform="translate(-91.81 -190.42)"/><path class="cls-12" d="M403,273.66l1.34,1.22-2.27,1-.17-.74Z" transform="translate(-91.81 -190.42)"/><path class="cls-21" d="M402,236.14c.34,1.25.68,2.51,1,3.76l-1.13.08Z" transform="translate(-91.81 -190.42)"/><path class="cls-17" d="M433.06,288.65l.43,2.09-2.76-.95.27-1.38Z" transform="translate(-91.81 -190.42)"/><path class="cls-22" d="M430.12,248.66l1.54-1.43Z" transform="translate(-91.81 -190.42)"/><path class="cls-21" d="M403,273.66l-1.1,1.47c0-.76,0-1.53,0-2.29l1.08.07Z" transform="translate(-91.81 -190.42)"/><path class="cls-22" d="M423.41,285.45l-.06-1.59Z" transform="translate(-91.81 -190.42)"/><path class="cls-20" d="M436.66,291.25c0-.71,0-1.43,0-2.14.09.24.19.47.28.71Z" transform="translate(-91.81 -190.42)"/><path class="cls-21" d="M401.85,245.77c0,.72,0,1.44,0,2.16C401.88,247.21,401.87,246.49,401.85,245.77Z" transform="translate(-91.81 -190.42)"/><path class="cls-21" d="M401.9,250.93l-.06,2.16Z" transform="translate(-91.81 -190.42)"/><path class="cls-21" d="M403,231.93l-1.07.69c.1-.3.19-.59.29-.88Z" transform="translate(-91.81 -190.42)"/><path class="cls-21" d="M401.91,297.93c0,.35,0,.71,0,1.06C401.9,298.64,401.9,298.28,401.91,297.93Z" transform="translate(-91.81 -190.42)"/><path class="cls-19" d="M258,290.37c-2.68,2.66-4.91,6.29-8.13,7.82-10.48,5-21.44,4.71-32.34,1l-.82-.48.06.07c-.08-1.16-.15-2.32-.22-3.6h10.34c1.11-1.23,1.91-2.9,3.12-3.3,2.07-.67,4-1.55,6.64-1.34,3.1.25,6.71-1.26,10.19-1.82C251.16,288,254.5,288.38,258,290.37Z" transform="translate(-91.81 -190.42)"/><path class="cls-11" d="M230.06,192.32c7-.37,13.76.38,20.15,3.45a15.68,15.68,0,0,1,9,16.63l-5.45-2.83-14.06-7.25q-4.8-3-9.58-6C230.09,195,230.08,193.67,230.06,192.32Z" transform="translate(-91.81 -190.42)"/><path class="cls-17" d="M258,290.37c-3.52-2-6.86-2.37-11.16-1.67-3.48.56-7.09,2.07-10.19,1.82-2.68-.21-4.57.67-6.64,1.34-1.21.4-2,2.07-3.12,3.3H216.57c.07,1.28.14,2.44.22,3.6-6.31-2.26-9.14-7.08-9.91-13.41l5.43-.53,2.28,1.87,14.21-.12c2.81,2,5.65,2.54,8.58.24l22-1.39Z" transform="translate(-91.81 -190.42)"/><path class="cls-9" d="M259.42,259.66c.05.26.1.51.14.77-6.78.05-5.87-.56-5.91,5.77,0,2.19-.11,4.39,0,6.57.18,2.57,0,4.94-2.22,6.69l-5.17.07a47.08,47.08,0,0,0,.64-6.11c-.09-4.6-.42-9.19-.66-13.79,7.84.09,6.48.8,6.62-6.54,0-.25,0-.49,0-.74h.73a34.12,34.12,0,0,1,0,3.65c-.32,2.79.66,4.18,3.64,3.73A17.74,17.74,0,0,1,259.42,259.66Zm-8.08,16.55a3.7,3.7,0,0,0-.31.55s.2.23.24.21a2.9,2.9,0,0,0,.52-.34Z" transform="translate(-91.81 -190.42)"/><path class="cls-15" d="M259.55,233.35c.14,2.24.28,4.49.41,6.73l-4.88.57c-.54-.57-1.09-1.62-1.63-1.62a50.3,50.3,0,0,0-7.14.58c-.37.06-.62,1-.92,1.59l-6.56-1.31-.59-5.18,5.78-.55,1.54-.14,7.33-.28Z" transform="translate(-91.81 -190.42)"/><path class="cls-17" d="M245.56,234l-1.54.14v-9.95l-5.74,2.47v-3l10.19-3.66,11,7.38c0,2,.06,3.94.08,5.91l-6.66.38c.19-4.95-2.89-7.51-7.33-10Z" transform="translate(-91.81 -190.42)"/><path class="cls-14" d="M216.07,196.16l5.92-2.55a38.14,38.14,0,0,0,3.2,2.78c5,3.57,10.05,7.07,15.08,10.6l-1.86,1.32c-3.11-3.48-4.95-3.76-8.94-1.39l-6-4.48-1.45-.77-.72-.73-.82-.57Z" transform="translate(-91.81 -190.42)"/><path class="cls-15" d="M251.47,279.46c2.19-1.75,2.4-4.12,2.22-6.69-.15-2.18-.06-4.38,0-6.57,0-6.33-.87-5.72,5.91-5.77,0,5.31.05,10.62,0,15.93a12.64,12.64,0,0,1-.68,2.69Z" transform="translate(-91.81 -190.42)"/><path class="cls-13" d="M212.31,284.82l-5.43.53,0-22c.84.72,2.5,1.68,2.37,2.11-.95,3.2,1.38,2.74,3.08,3Q212.32,276.64,212.31,284.82Z" transform="translate(-91.81 -190.42)"/><path class="cls-15" d="M206.78,242.89l-.06-11.2,4.73-.47,1.42,1-.81,1,1.38-.36,2.74-2.42,1.5-1.45.63-.1,1.22.88c-.78,2.67-1.34,4.6-1.9,6.53l-4,4.18a1.84,1.84,0,0,0-.49.19L211.77,239Z" transform="translate(-91.81 -190.42)"/><path class="cls-15" d="M253.64,252.35h-.73c-1.94-2.63-4.32-1.41-6.63-.73h-1.35l-6.62.09,0-3.83,19.59-1.48,1.56.07c0,1.48-.05,3-.07,4.45Z" transform="translate(-91.81 -190.42)"/><path class="cls-18" d="M213.18,240.64a1.84,1.84,0,0,1,.49-.19l4.75.87,2.93,2L222,245c-3.14.6-6.35,2.41-9.38-1.71v5.55c0,1.43,0,2.87,0,4.31l-.13,0-5.53-1.52q.41-3.42.79-6.84Z" transform="translate(-91.81 -190.42)"/><path class="cls-10" d="M239.69,202.32l14.06,7.25,5.45,2.83c.12,1.82.25,3.64.38,5.47l-3.81-.68v0c-3.12-5.48-8.14-8.43-13.88-10.44Q240.8,204.55,239.69,202.32Z" transform="translate(-91.81 -190.42)"/><path class="cls-15" d="M259.47,227.44l-11-7.38c-.09-.21-.18-.41-.28-.61.35-.78.69-1.56,1-2.33l1.5-2.67,5.05,2.76v0l3.79,3.26Zm-8.07-8.08.34.13-.28-.19-.36-.13Z" transform="translate(-91.81 -190.42)"/><path class="cls-19" d="M239.69,202.32q1.11,2.24,2.21,4.45l-1.63.22c-5-3.53-10.08-7-15.08-10.6a38.14,38.14,0,0,1-3.2-2.78l3.19-.17,4.93,2.92Q234.9,199.34,239.69,202.32Z" transform="translate(-91.81 -190.42)"/><path class="cls-16" d="M258.89,280.86c.21.79.41,1.58.62,2.37l-21.23,1.53c.25-1.29.5-2.58.74-3.86l4.88.06Z" transform="translate(-91.81 -190.42)"/><path class="cls-14" d="M259.49,246.48l-1.56-.07a16.48,16.48,0,0,0-3.42-.6c-5.41.16-10.81.46-16.22.71l0-2.25a32.73,32.73,0,0,0,5.32.19,13,13,0,0,0,3.48-1.46l2.11-.18h5.9l1.46,0,1.54-.64,1.56.05C259.61,243.65,259.55,245.07,259.49,246.48Z" transform="translate(-91.81 -190.42)"/><path class="cls-20" d="M211.45,231.22l-4.73.47q0-6.13.1-12.27l2.23.79c.37,1.36.74,2.73,1.12,4.09C213.85,226.75,214.12,228.18,211.45,231.22Z" transform="translate(-91.81 -190.42)"/><path class="cls-13" d="M253.64,252.35l5.78-1.42v8.73a17.74,17.74,0,0,0-2.19.07c-3,.45-4-.94-3.64-3.73A34.12,34.12,0,0,0,253.64,252.35Z" transform="translate(-91.81 -190.42)"/><path class="cls-13" d="M238.28,284.76l21.23-1.53c.06.24.12.49.17.73,0,.49,0,1,.05,1.48l-.19.11-.19-.13-22,1.39Z" transform="translate(-91.81 -190.42)"/><path class="cls-20" d="M206.88,251.57l5.53,1.52c-.06,1.95-.11,3.9-.17,5.85l-5.35,0C206.89,256.47,206.88,254,206.88,251.57Z" transform="translate(-91.81 -190.42)"/><path class="cls-21" d="M206.89,258.92l5.35,0,.06,9.52c-1.7-.3-4,.16-3.08-3,.13-.43-1.53-1.39-2.37-2.11,0-.44,0-.87,0-1.31l2.81-.31-2.81-1.31Z" transform="translate(-91.81 -190.42)"/><path class="cls-23" d="M216.07,196.16l4.41,4.21.09.64-8.84.71-1.66-.8Z" transform="translate(-91.81 -190.42)"/><path class="cls-17" d="M210.07,200.92l1.66.8L209.67,207c0,1.91-.09,3.82-.14,5.73l-.3,2.91-2.38-1.46C206.69,209.45,206.91,204.83,210.07,200.92Z" transform="translate(-91.81 -190.42)"/><path class="cls-22" d="M258.89,280.86l-15,.1c.35-1.2.69-2.41,1-3.61.46.72.91,1.45,1.37,2.18l5.17-.07,7.4-.41C258.88,279.65,258.89,280.25,258.89,280.86Z" transform="translate(-91.81 -190.42)"/><path class="cls-14" d="M213.18,240.64l-5.51,4.09c-.29-.61-.59-1.23-.89-1.84l5-3.87Z" transform="translate(-91.81 -190.42)"/><path class="cls-16" d="M230.11,196.36l-4.93-2.92,4.88-1.12C230.08,193.67,230.09,195,230.11,196.36Z" transform="translate(-91.81 -190.42)"/><path class="cls-19" d="M206.85,214.17l2.38,1.46-.18,4.58-2.23-.79Z" transform="translate(-91.81 -190.42)"/><path class="cls-20" d="M259.68,242.24l-1.56-.05-1.54.64-1.46,0c0-.72,0-1.45,0-2.18l0,0,4.88-.57C259.87,240.8,259.77,241.52,259.68,242.24Z" transform="translate(-91.81 -190.42)"/><path class="cls-17" d="M259.56,220.45l-3.79-3.26,3.81.68Z" transform="translate(-91.81 -190.42)"/><path class="cls-13" d="M206.8,260.38l2.81,1.31-2.81.31Z" transform="translate(-91.81 -190.42)"/><path class="cls-22" d="M259.73,285.44c0-.49,0-1-.05-1.48C259.7,284.45,259.72,285,259.73,285.44Z" transform="translate(-91.81 -190.42)"/><path class="cls-17" d="M216.73,298.69l.82.48Z" transform="translate(-91.81 -190.42)"/><path class="cls-4" d="M359.76,336.08c0-1.75-.34-3-2.7-2.83-3.14.24-6.32.06-9.81.06a32.47,32.47,0,0,0-.36,3.34q0,38.28,0,76.56a25.94,25.94,0,0,0,.31,2.9,18.41,18.41,0,0,1-.91-4q-.09-36.72,0-73.44v-3.89h-.84v74.91l-.95.1a26.3,26.3,0,0,1-.31-2.92c0-24.11,0-48.22-.07-72.33,0-2.69.69-3.75,3.51-3.59,3.54.22,7.1,0,10.66.05,3.9,0,4.07.36,2.16,3.82C360.2,335.22,360,335.65,359.76,336.08Z" transform="translate(-91.81 -190.42)"/><path class="cls-4" d="M360.3,405.67a6.82,6.82,0,0,1-.62-1.92q0-33.45.1-66.89a19.34,19.34,0,0,1,.54,3.16Q360.35,372.84,360.3,405.67Z" transform="translate(-91.81 -190.42)"/><path class="cls-7" d="M259.59,415.12a12.8,12.8,0,0,0,3.32.93c15.3.07,30.59.06,45.89.07l4.37,2.12-5.65,1c-10.85-.05-21.7-.12-32.54-.15-5.86,0-11.71,0-17.57,0v-8.36l.78-.13C258.66,412.1,259.12,413.61,259.59,415.12Z" transform="translate(-91.81 -190.42)"/><path class="cls-9" d="M308.53,333.23l-48.18-.11a19.59,19.59,0,0,1,3.49-.64c11-.06,22.05-.05,33.08-.06l12.24.07s.11.15.16.23Z" transform="translate(-91.81 -190.42)"/><path class="cls-1" d="M628.07,301.55H591.34q0-52.85,0-105.67c1.62-3.68,4.9-3,7.91-3h9.17c5.94,0,6.3.35,6.3,6.18q0,42.3,0,84.61c0,4.72,0,4.73,4.87,4.75s9.54,0,14.31.05c.5,2.92,1,5.84,1.48,8.77.33,2.2-.7,3-2.92,3C631,300.3,629.55,301.09,628.07,301.55Z" transform="translate(-91.81 -190.42)"/><path class="cls-4" d="M634,288.47q-7.16,0-14.31-.05c-4.85,0-4.87,0-4.87-4.75q0-42.3,0-84.61c0-5.83-.36-6.18-6.3-6.18h-9.17c-3,0-6.29-.7-7.91,3v-3.56H615.3v95.44c6,0,11.48,0,17,0a25.14,25.14,0,0,1,3.81.6Z" transform="translate(-91.81 -190.42)"/><path class="cls-6" d="M634,288.47l2.11-.09q.08,6.62.13,13.22l-8.12-.05c1.48-.46,2.95-1.25,4.44-1.28,2.22,0,3.25-.83,2.92-3C635,294.31,634.45,291.39,634,288.47Z" transform="translate(-91.81 -190.42)"/><path class="cls-4" d="M234.51,391.72l-.31,0-.32,0q-.07-12.76-.13-25.52c0-.72,0-1.43.05-2.15.47,1.15,1.33,2.29,1.34,3.45.1,7.4,0,14.81,0,22.22C234.92,390.41,234.72,391.06,234.51,391.72Z" transform="translate(-91.81 -190.42)"/><path class="cls-6" d="M234.51,391.72c.21-.66.41-1.31.61-2,5,2.29,6,1.73,6-3.65,0-6,0-11.9,0-17.84a23.4,23.4,0,0,1,.58-3.48v26.94Z" transform="translate(-91.81 -190.42)"/><path class="cls-24" d="M529.53,292.76c0-.46,0-.93-.07-1.39-.48-6.63-1.3-13.26-1.37-19.9-.19-20.84-.1-41.69-.11-62.53.45-3.93,1.86-7.66,4.91-10s6.51-4.65,10.05-5.1c7.46-.94,15.07-.65,22.63-.86,1.94,1.36,3.93,2.65,5.81,4.11,2.18,1.7,4.71,3.23,6.24,5.42a12.63,12.63,0,0,1,1.82,6.82c.12,25.29.27,50.59-.15,75.87-.06,3.36-2.5,7.5-5.13,9.77-3,2.6-7.36,3.94-11.34,5a52.06,52.06,0,0,1-12.09,1.51c-7,.2-13-3-18.85-6.25A11.44,11.44,0,0,1,529.53,292.76Zm19.81-7.5c1,1,1.78,2.42,3,2.85,2.87,1.05,5.13-1.29,5.14-5.13,0-24,0-47.94-.06-71.91,0-1.57-1-4.33-1.86-4.47-1.86-.32-3.95.72-5.95,1.21a14.9,14.9,0,0,0-.92,3.6q-.09,35,0,70A20.31,20.31,0,0,0,549.34,285.26Z" transform="translate(-91.81 -190.42)"/><path class="cls-3" d="M528,208.94c0,20.84-.08,41.69.11,62.53.07,6.64.89,13.27,1.37,19.9-1-2.94-2.71-5.86-2.74-8.81-.23-23.55-.14-47.1-.07-70.65C526.66,210.92,527.52,209.93,528,208.94Z" transform="translate(-91.81 -190.42)"/><path class="cls-3" d="M211.83,361.91l1.47-1.43c3.81-.27,7.66-1,11.41-.67,3.17.3,4.95,2.66,4.88,6.22-.13,6.34,0,12.69,0,19-.05,4.56-1.77,6.46-6.26,6.89-2.17.2-4.56.49-6.52-.2s-3.43-2.54-5.12-3.88q0-12.36,0-24.73Zm7.09,2.88c-.42.62-1.21,1.24-1.22,1.88q-.13,9.1,0,18.21c0,.63.8,1.25,1.23,1.88,2.12,1.59,2.92.24,3-1.58q.17-9.44,0-18.88C221.85,364.37,221,363.11,218.92,364.79Z" transform="translate(-91.81 -190.42)"/><path class="cls-6" d="M211.69,363.14q0,12.36,0,24.73c-.22-4.18-.63-8.37-.63-12.55S211.45,367.2,211.69,363.14Z" transform="translate(-91.81 -190.42)"/><path class="cls-25" d="M232.35,366.19l-1.52-1.44Z" transform="translate(-91.81 -190.42)"/><path class="cls-20" d="M437.62,295.82l-2.31-.17c0-.72,0-1.44,0-2.16l2.54.06Z" transform="translate(-91.81 -190.42)"/><path class="cls-12" d="M284.5,212h-1.35c-.31-1.87-.62-3.74-1-5.93l3.28-.28C285.09,208.07,284.8,210,284.5,212Z" transform="translate(-91.81 -190.42)"/><path class="cls-19" d="M313.24,285.32l1.4-.07,1.53,4.57-9.57,1.47c1.69-1.79,2.33-4.86,5.73-4.62C312.6,286.69,312.94,285.79,313.24,285.32Z" transform="translate(-91.81 -190.42)"/><path class="cls-19" d="M295.57,294.23c.32-.7.55-2,1-2,2.59-.46,5.22-.65,7.84-.93-.06.81-.12,1.61-.23,3Z" transform="translate(-91.81 -190.42)"/><path class="cls-17" d="M316.17,289.82l-1.53-4.57,2.29-.68,2.16.21L317,286.57c.25,1.2.46,2.22.67,3.25Z" transform="translate(-91.81 -190.42)"/><path class="cls-19" d="M291.15,296.43l3-1.45Z" transform="translate(-91.81 -190.42)"/><path class="cls-21" d="M281.67,281.84c-.07-.57-.13-1.13-.19-1.69l2.16-1.06-2.57-1.83-.15-1.39,2.7-1.07-2.52-2-.14-1.24,2.7-1.51L281,267.71c.06-1.21.12-2.43.19-3.65l4.39,2.82a17.09,17.09,0,0,1,1.21-3.84c1.27-2.19.29-5.9,4.18-6.37.06,4.13.13,8.25.18,12.38,0,.34-.06.86-.29,1-4.52,3.14-3.35,7.8-3.28,12.17Z" transform="translate(-91.81 -190.42)"/><path class="cls-20" d="M291,256.67c-3.89.47-2.91,4.18-4.18,6.37a17.09,17.09,0,0,0-1.21,3.84l-4.39-2.82-1.41-16.15H281l3.93,5.1,3.44-4.18,1.37-.85h.74C290.6,250.87,290.78,253.77,291,256.67Z" transform="translate(-91.81 -190.42)"/><path class="cls-17" d="M281.67,281.84l5.89.4q-1.85,2.89-3.67,5.79c.05-1.09.11-2.17.17-3.46H279Z" transform="translate(-91.81 -190.42)"/><path class="cls-17" d="M290.43,248h-.74q0-.36,0-.72l.75,0C290.42,247.48,290.42,247.73,290.43,248Z" transform="translate(-91.81 -190.42)"/><path class="cls-21" d="M323.86,248.52l.09,11c-.35-.28-1-.61-1-.82.79-4.79-2.13-5.26-5.72-5,0-2.45,0-4.9,0-7.35C320.14,245,322.36,245.69,323.86,248.52Z" transform="translate(-91.81 -190.42)"/><path class="cls-15" d="M319.09,284.78l-2.16-.21,0-1.32.72-1.5,1.48-1.48c2.44.32,4.09,1.21,2.9,4.09Z" transform="translate(-91.81 -190.42)"/><path class="cls-11" d="M280.92,275.87l.15,1.39c-.1.51-.19,1-.29,1.53l-3.17,4.41-1.19-.32v-19.5c0-2.94,0-5.87,0-8.81a3,3,0,0,0,.07-.66c2.76-.31,2.85,1.51,2.9,3.5.13,5.71.32,11.42.49,17.14Z" transform="translate(-91.81 -190.42)"/><path class="cls-14" d="M280.78,278.79c.1-.51.19-1,.29-1.53l2.57,1.83-2.16,1.06Z" transform="translate(-91.81 -190.42)"/><path class="cls-23" d="M289.66,247.26q0,.36,0,.72l-1.37.84c-2.57.61-5.14,1.22-7.37-.91h-1.19c-.11-1.44-.22-2.88-.34-4.33l0,0,4.94-.47,1.61.54,1.53,1.33.78.62a4.16,4.16,0,0,1,.69.12C289.17,246.26,289.42,246.76,289.66,247.26Z" transform="translate(-91.81 -190.42)"/><path class="cls-21" d="M288.93,245.77a4.16,4.16,0,0,0-.69-.12l-.78-.62-1.53-1.33-.85-1.15,1.83-2,4.88,3Z" transform="translate(-91.81 -190.42)"/><path class="cls-20" d="M285.08,242.55l.85,1.15-1.61-.54Z" transform="translate(-91.81 -190.42)"/><path class="cls-14" d="M276.5,253.91a3,3,0,0,1-.07.66l-4.43-3c.22-3.95,3.08-.4,4.31-1.51C276.37,251.36,276.44,252.63,276.5,253.91Z" transform="translate(-91.81 -190.42)"/><path class="cls-15" d="M276.5,253.91c-.06-1.28-.13-2.55-.19-3.82l0-4.39c.15-2,.44-3.87,3.14-2.12.12,1.45.23,2.89.34,4.33l1.41,16.15c-.07,1.22-.13,2.44-.2,3.65s0,2.56,0,3.84c.05.41.09.83.13,1.25l-1.2,1.75c-.17-5.72-.36-11.43-.49-17.14C279.35,255.42,279.26,253.6,276.5,253.91Z" transform="translate(-91.81 -190.42)"/><path class="cls-12" d="M389,270l.27.15L389,270Z" transform="translate(-91.81 -190.42)"/><path class="cls-10" d="M378.69,273.67l-4.5.81-.14-.81Z" transform="translate(-91.81 -190.42)"/><path class="cls-10" d="M370.3,274.24c-.08.18-.12.47-.26.53s-.36-.14-.55-.22c.08-.18.12-.48.26-.53S370.11,274.15,370.3,274.24Z" transform="translate(-91.81 -190.42)"/><path class="cls-12" d="M370.05,264.32l-.45-1.25.57-.19.39,1.27Z" transform="translate(-91.81 -190.42)"/><path class="cls-17" d="M358.26,225l2.1,7.41v1.32l.45.87C356.5,231.4,356,229.4,358.26,225Z" transform="translate(-91.81 -190.42)"/><path class="cls-14" d="M349.32,241.3c.16.26.34.53.49.81a1.48,1.48,0,0,1-.25.19l-.36-.89Z" transform="translate(-91.81 -190.42)"/><path class="cls-14" d="M349.2,241.41l-.28-.22.4.11Z" transform="translate(-91.81 -190.42)"/><path class="cls-18" d="M360.36,233.68v0Z" transform="translate(-91.81 -190.42)"/><path class="cls-20" d="M155.81,239.05l1.43,0-5.91,5.18C152.82,242.52,154.31,240.78,155.81,239.05Z" transform="translate(-91.81 -190.42)"/><path class="cls-20" d="M150.61,245l-1.52,1.5.15-1.31Z" transform="translate(-91.81 -190.42)"/><path class="cls-20" d="M151.34,244.24l-.75.75Z" transform="translate(-91.81 -190.42)"/><path class="cls-12" d="M180.77,217.08l-3.7,3.68Z" transform="translate(-91.81 -190.42)"/><path class="cls-12" d="M183,214.87l-1.5,1.49Z" transform="translate(-91.81 -190.42)"/><path class="cls-12" d="M184.47,214.12l-1.5.78Z" transform="translate(-91.81 -190.42)"/><path class="cls-12" d="M187.39,211.19l-.75.76Z" transform="translate(-91.81 -190.42)"/><path class="cls-12" d="M186.66,211.92l-.76.76Z" transform="translate(-91.81 -190.42)"/><path class="cls-12" d="M185.92,212.66l-.76.76Z" transform="translate(-91.81 -190.42)"/><path class="cls-12" d="M185.19,213.39l-.76.76Z" transform="translate(-91.81 -190.42)"/><path class="cls-12" d="M181.52,216.34l-.76.76Z" transform="translate(-91.81 -190.42)"/><path class="cls-12" d="M177.1,220.74l-.76.75Z" transform="translate(-91.81 -190.42)"/><path class="cls-12" d="M176.36,221.47c-.25.26-.5.52-.76.77C175.86,222,176.11,221.73,176.36,221.47Z" transform="translate(-91.81 -190.42)"/><path class="cls-12" d="M175.64,222.21l-.78.76Z" transform="translate(-91.81 -190.42)"/><path class="cls-12" d="M187.38,210.44l.51.56-.53.22a2.72,2.72,0,0,1-.17-.53C187.18,210.62,187.31,210.53,187.38,210.44Z" transform="translate(-91.81 -190.42)"/><path class="cls-16" d="M160.9,254.62l.09,2.89c0,1.47,0,2.94,0,4.41q-.06,12-.1,24l-1.37.33c-.4-1.33-1.13-2.66-1.13-4,0-8.76.15-17.51.25-26.27l.84-2.25Z" transform="translate(-91.81 -190.42)"/><path class="cls-20" d="M153.54,259c0-1,0-1.94,0-2.91l0,0,2.24,0,1.4,0Q155.38,257.52,153.54,259Z" transform="translate(-91.81 -190.42)"/><path class="cls-20" d="M172.66,242a21.72,21.72,0,0,1,2.08-2.1,18.78,18.78,0,0,1,2.44-1.39l2.89-.11,1.51,2.07-.06,1.65-8.11.68Z" transform="translate(-91.81 -190.42)"/><path class="cls-19" d="M181.52,242.12l.06-1.65c2.73-3,6.34-3.06,9.95-2.81.89.06,1.73,1,2.59,1.49-2.88.23-5.9-.47-8.16,2.49C185.34,242.46,183,242,181.52,242.12Z" transform="translate(-91.81 -190.42)"/><path class="cls-4" d="M175.1,279.62c0-6,0-12-.17-17.94,0-2.07.78-2.93,2.8-2.78.73.05,1.47,0,2.2,0,5,.06,4.91.07,5.38,5,.08.78.8,1.49,1.23,2.22q0,7-.07,13.9Z" transform="translate(-91.81 -190.42)"/><path class="cls-19" d="M182.59,293c.08-.19.13-.48.26-.53s.37.13.56.21c-.09.19-.13.48-.27.54S182.78,293,182.59,293Z" transform="translate(-91.81 -190.42)"/><path class="cls-15" d="M157.34,245.86c.15-5.36,4.68-6.41,8.29-8.37Z" transform="translate(-91.81 -190.42)"/><path class="cls-17" d="M153.74,255.26l-4.65-1.41a.8.8,0,0,0,.13-.62l4.15-3.13c.79,1.78,1.57,3.55,2.36,5.32Z" transform="translate(-91.81 -190.42)"/><path class="cls-15" d="M153.37,250.1l-4.15,3.13.69-3,.05-.05,1.42-.71,0,0,.79-.69.69-.68c.23-.27.46-.53.7-.79l0,0,.82-.69,1.53.15Z" transform="translate(-91.81 -190.42)"/><path class="cls-19" d="M170.52,243.59l-4.35,2.21Z" transform="translate(-91.81 -190.42)"/><path class="cls-20" d="M161,247.21l-1.5,3C158.73,248.55,158.48,247.18,161,247.21Z" transform="translate(-91.81 -190.42)"/><path class="cls-21" d="M153.74,255.26l2,.16c0,.21.07.41.09.62l-2.24,0C153.63,255.77,153.69,255.51,153.74,255.26Z" transform="translate(-91.81 -190.42)"/><path class="cls-15" d="M155.82,246.57l1.53-.75Z" transform="translate(-91.81 -190.42)"/><path class="cls-14" d="M149.91,250.22l-.69,3a.8.8,0,0,1-.13.62l-3.63-3.6,1.51-.82,2.18.72-.14.3.18-.25A4.33,4.33,0,0,1,149.91,250.22Z" transform="translate(-91.81 -190.42)"/><path class="cls-20" d="M147,249.43l-1.51.82,2.95-3.09Z" transform="translate(-91.81 -190.42)"/><path class="cls-20" d="M149.14,246.43l-.77.77Z" transform="translate(-91.81 -190.42)"/><path class="cls-21" d="M175.66,256.16l-.75.08Z" transform="translate(-91.81 -190.42)"/><path class="cls-14" d="M151.38,249.46l-1.42.71Z" transform="translate(-91.81 -190.42)"/><path class="cls-14" d="M154.44,246.54l-.82.69Z" transform="translate(-91.81 -190.42)"/><path class="cls-14" d="M152.2,248.74l-.79.69Z" transform="translate(-91.81 -190.42)"/><path class="cls-14" d="M153.59,247.27c-.24.26-.47.52-.7.79C153.12,247.79,153.35,247.53,153.59,247.27Z" transform="translate(-91.81 -190.42)"/><path class="cls-20" d="M157.19,239.12l.75-.78Z" transform="translate(-91.81 -190.42)"/><path class="cls-20" d="M157.92,238.37l.81-1.12Z" transform="translate(-91.81 -190.42)"/><path class="cls-13" d="M180.07,238.4l-2.89.11-2.81-.2-.3-1,6-1.86Z" transform="translate(-91.81 -190.42)"/><path class="cls-10" d="M420.62,262.66c-.84,1.68-2.59,3-1.59,5.38.25.61-.86,1.78-1.35,2.69l-2.67.35-1-1.23,3.45-1.72-.2-1.07H405.18c2.73-.49,5.47-.94,8.19-1.5a15.15,15.15,0,0,0,2.57-1Z" transform="translate(-91.81 -190.42)"/><path class="cls-10" d="M402.75,263.16c1.71-1.21,2.65-2.29,3.79-2.54.58-.13,1.5,1.19,3.06,2.54Z" transform="translate(-91.81 -190.42)"/><path class="cls-10" d="M412.93,270.27l-2.35.53-.2-.75,2.31-.66Z" transform="translate(-91.81 -190.42)"/><path class="cls-10" d="M409.1,259.4l-.36.11-.06-.24Z" transform="translate(-91.81 -190.42)"/><path class="cls-10" d="M405.17,267.06l-.27-.15.28.15Z" transform="translate(-91.81 -190.42)"/><path class="cls-19" d="M415.48,289.81l-.1.76-1.37-.15,0-.39Z" transform="translate(-91.81 -190.42)"/><path class="cls-21" d="M405,232.91h4.67l0,.57H405Z" transform="translate(-91.81 -190.42)"/><path class="cls-17" d="M435.35,293.49c0,.72,0,1.44,0,2.16,0,.51-.05,1-.08,1.54H434l-1.1.43-1.66-5.56Z" transform="translate(-91.81 -190.42)"/><path class="cls-26" d="M423.39,291.26v-.8l.91.57Z" transform="translate(-91.81 -190.42)"/><path class="cls-21" d="M432.89,297.62l1.1-.43-1.11.45Z" transform="translate(-91.81 -190.42)"/><path class="cls-16" d="M421.34,272.15c0,3.93.07,7.86.11,11.79l-1.13-.1c-.42-2.92-.83-5.84-1.25-8.77l1.08-3.63Z" transform="translate(-91.81 -190.42)"/><path class="cls-5" d="M238.28,284.76l-.9,2.05c-2.93,2.3-5.77,1.75-8.58-.24l-1.62-12.17v-1.46l.12-7.38a1.16,1.16,0,0,0-.08-.71l0-1.32,0-1.85a.51.51,0,0,0,0-.48,1,1,0,0,0,.13-.69,7.88,7.88,0,0,0,1-2.39c.15-3.39.13-6.79.16-10.19a.79.79,0,0,0-.07-.7l-.05-3c0-.94,0-1.89.05-2.84q0-3,0-6l0-7.95,0-8.18a.71.71,0,0,0-.05-.68c0-2.46,0-4.91-.07-7.37.35-1.44.71-2.88,1.06-4.32,4-2.37,5.83-2.09,8.94,1.39l-.15,1.41.12,3.74.07,3.85c-.06,2.13-.11,4.27-.17,6.41v3c0,2.68,0,5.35,0,8,.2,1.73.39,3.46.59,5.18-.17,1.46-.35,2.92-.52,4.38l0,2.25.05,1.37,0,3.83c0,8.83-.09,17.67-.06,26.5a10.14,10.14,0,0,0,.77,2.68C238.78,282.18,238.53,283.47,238.28,284.76Zm-8.16-37.83c0,11.85.06,23.71,0,35.57,0,2.48.57,4.14,3.28,4.15s3.24-1.85,3.24-4.21q-.07-35.58,0-71.15c0-2.4-.52-4.15-3.3-4.13s-3.23,1.8-3.22,4.2C230.16,223.21,230.12,235.07,230.12,246.93Z" transform="translate(-91.81 -190.42)"/><path class="cls-15" d="M227.18,274.4l1.62,12.17-14.21.12q.34-6.07.7-12.15Zm-11,7.87.1,1,5.37-.33,5.25-.25v-.44Z" transform="translate(-91.81 -190.42)"/><path class="cls-16" d="M215.29,274.54q-.34,6.07-.7,12.15l-2.28-1.87q0-8.18,0-16.36l-.06-9.52c.06-1.95.11-3.9.17-5.85l.13,0,2.38-1.9.17,2.11-.23,9.27.38,2.28.06,1.55c0,2.41-.05,4.82-.07,7.23Z" transform="translate(-91.81 -190.42)"/><path class="cls-13" d="M246.28,251.62c2.31-.68,4.69-1.9,6.63.73,0,.25,0,.49,0,.74-.14,7.34,1.22,6.63-6.62,6.54Z" transform="translate(-91.81 -190.42)"/><path class="cls-16" d="M246.28,251.62v8c.24,4.6.57,9.19.66,13.79a47.08,47.08,0,0,1-.64,6.11c-.46-.73-.91-1.46-1.37-2.18V251.63Z" transform="translate(-91.81 -190.42)"/><path class="cls-15" d="M251.34,276.21l.45.42a2.9,2.9,0,0,1-.52.34s-.26-.18-.24-.21A3.7,3.7,0,0,1,251.34,276.21Z" transform="translate(-91.81 -190.42)"/><path class="cls-12" d="M245.56,234V223.71c4.44,2.51,7.52,5.07,7.33,10Z" transform="translate(-91.81 -190.42)"/><path class="cls-12" d="M238.24,234.71c0-2.68,0-5.35,0-8l5.74-2.47v9.95Z" transform="translate(-91.81 -190.42)"/><path class="cls-21" d="M238.31,244.27c.17-1.46.35-2.92.52-4.38l6.56,1.31,1.72,1.8a13,13,0,0,1-3.48,1.46A32.73,32.73,0,0,1,238.31,244.27Z" transform="translate(-91.81 -190.42)"/><path class="cls-20" d="M247.11,243l-1.72-1.8c.3-.55.55-1.53.92-1.59a50.3,50.3,0,0,1,7.14-.58c.54,0,1.09,1.05,1.63,1.62l0,0c-1.92.83-5.23-2-5.88,2.19Z" transform="translate(-91.81 -190.42)"/><path class="cls-23" d="M238.28,223.72c.06-2.14.11-4.28.17-6.41,2.5-2,4.8-2,7.06.47a11.67,11.67,0,0,0,2.68,1.67c.1.2.19.4.28.61Z" transform="translate(-91.81 -190.42)"/><path class="cls-17" d="M229.47,206.92c-.35,1.44-.71,2.88-1.06,4.32-3.2.92-3.88,3.38-3.37,6.17.19,1,1.47,1.85,2.26,2.77l-6.66,5.88-2.28-2.26,2.86-2.27c2.62.11,2.9-1.67,2.89-3.62,0-3.64-.07-7.27-.1-10.9l-.54-4.57h0Z" transform="translate(-91.81 -190.42)"/><path class="cls-17" d="M238.26,209.72l.15-1.41,1.86-1.32,1.63-.22c5.74,2,10.76,5,13.88,10.44l-5.05-2.76c-1.42-1.1-2.89-2.14-4.25-3.3C244,209.05,241.56,207,238.26,209.72Z" transform="translate(-91.81 -190.42)"/><path class="cls-17" d="M222,201.67l1.45.77h0L222,201.7Z" transform="translate(-91.81 -190.42)"/><path class="cls-17" d="M220.57,201l-.09-.64.82.57,0,0A2.07,2.07,0,0,1,220.57,201Z" transform="translate(-91.81 -190.42)"/><path class="cls-17" d="M221.3,200.94l.72.73,0,0-.73-.74Z" transform="translate(-91.81 -190.42)"/><path class="cls-14" d="M220.64,226.06l6.66-5.88-.11-.07.76-.76,0,.05a1.13,1.13,0,0,0,.6-.11l0,8.18-9.42,8.05-1.45.75c.56-1.93,1.12-3.86,1.9-6.53l-1.22-.88.87-1.39h-.1l.75-.76h0l.74-.75Z" transform="translate(-91.81 -190.42)"/><path class="cls-19" d="M217.63,236.27l1.45-.75,6.21.3-6.87,5.5-4.75-.87Z" transform="translate(-91.81 -190.42)"/><path class="cls-17" d="M211.45,231.22c2.67-3,2.4-4.47-1.28-6.92l3.91-.27a13,13,0,0,0-.07,3.88c.26.93,1.37,1.62,2.1,2.42l.07.08-2.74,2.42-.57-.65Z" transform="translate(-91.81 -190.42)"/><path class="cls-17" d="M217.68,229l-1.5,1.45-.07-.08,1.47-1.47Z" transform="translate(-91.81 -190.42)"/><path class="cls-17" d="M219.18,227.47l-.87,1.39-.63.1-.1-.1Z" transform="translate(-91.81 -190.42)"/><path class="cls-17" d="M213.44,232.83l-1.38.36.81-1Z" transform="translate(-91.81 -190.42)"/><path class="cls-20" d="M244.93,251.63v25.72c-.34,1.2-.68,2.41-1,3.61L239,280.9a10.14,10.14,0,0,1-.77-2.68c0-8.83,0-17.67.06-26.5Z" transform="translate(-91.81 -190.42)"/><path class="cls-21" d="M238.34,247.89l-.05-1.37c5.41-.25,10.81-.55,16.22-.71a16.48,16.48,0,0,1,3.42.6Z" transform="translate(-91.81 -190.42)"/><path class="cls-14" d="M218.42,241.32l6.87-5.5,3.19-.4q0,3,0,6a36.9,36.9,0,0,0-5.36,0c-.65.08-1.16,1.22-1.73,1.88Z" transform="translate(-91.81 -190.42)"/><path class="cls-20" d="M215.09,253.35c-.06-.7-.11-1.41-.17-2.11.54-2.08.13-3.25-2.34-2.41v-5.55c3,4.12,6.24,2.31,9.38,1.71l.14.13,1.23,3.44c-5.61.28-6.41.86-5.78,4.52Z" transform="translate(-91.81 -190.42)"/><path class="cls-20" d="M221.35,243.27c.57-.66,1.08-1.8,1.73-1.88a36.9,36.9,0,0,1,5.36,0c0,1,0,1.9-.05,2.84l-6.29.87L222,245Z" transform="translate(-91.81 -190.42)"/><path class="cls-14" d="M212.58,248.83c2.47-.84,2.88.33,2.34,2.41l-2.38,1.9C212.56,251.7,212.57,250.26,212.58,248.83Z" transform="translate(-91.81 -190.42)"/><path class="cls-13" d="M238.26,209.72c3.3-2.77,5.74-.67,8.22,1.43,1.36,1.16,2.83,2.2,4.25,3.3l-1.5,2.67c-1.27-.9-2.61-1.71-3.8-2.7-2.18-1.82-4.39-2.89-7.05-1Z" transform="translate(-91.81 -190.42)"/><path class="cls-14" d="M238.38,213.46c2.66-1.93,4.87-.86,7.05,1,1.19,1,2.53,1.8,3.8,2.7-.35.77-.69,1.55-1,2.33a11.67,11.67,0,0,1-2.68-1.67c-2.26-2.43-4.56-2.49-7.06-.47C238.43,216,238.4,214.74,238.38,213.46Z" transform="translate(-91.81 -190.42)"/><path class="cls-14" d="M251.4,219.36l-.3-.19.36.13Z" transform="translate(-91.81 -190.42)"/><path class="cls-14" d="M251.46,219.3l.28.19-.34-.13Z" transform="translate(-91.81 -190.42)"/><path class="cls-21" d="M249.22,242.82c.65-4.21,4-1.36,5.88-2.19,0,.73,0,1.46,0,2.18Z" transform="translate(-91.81 -190.42)"/><path class="cls-21" d="M256.58,242.83l1.54-.64Z" transform="translate(-91.81 -190.42)"/><path class="cls-15" d="M214.08,224l-3.91.27c-.38-1.36-.75-2.73-1.12-4.09l.18-4.58.3-2.91,3.11,1.59v1.2c.16,1.63.32,3.26.49,5l-2.31.39-.26.15.31.36,10.34.08-2.86,2.27Z" transform="translate(-91.81 -190.42)"/><path class="cls-20" d="M221.27,201l.73.74,1.47.74L224,207c-1.11-.58-2.86-.91-3.19-1.77-.92-2.42-2.82-2.49-4.43-1.9-2.37.86-4.49,2.4-6.72,3.65l2.06-5.27,8.84-.71A2.07,2.07,0,0,0,221.27,201Z" transform="translate(-91.81 -190.42)"/><path class="cls-14" d="M209.67,207c2.23-1.25,4.35-2.79,6.72-3.65,1.61-.59,3.51-.52,4.43,1.9.33.86,2.08,1.19,3.19,1.77,0,3.63.09,7.26.1,10.9,0,2-.27,3.73-2.89,3.62l-10.34-.08a1.25,1.25,0,0,0,0-.51l2.31-.39c-.17-1.78-.33-3.41-.49-5l2.18-.76-.11-.44h-2.08l-3.11-1.59C209.58,210.81,209.62,208.9,209.67,207Zm3,3.36c.88.78,1.76,2.22,2.64,2.22,3.21,0,4.46-2.33,4.38-5.14,0-.9-1.79-2.63-2.22-2.47C215.25,205.72,212.54,206.38,212.63,210.35Z" transform="translate(-91.81 -190.42)"/><path class="cls-7" d="M273.2,368.68a46.89,46.89,0,0,1-.64-5.26c-.08-6.43,0-12.87,0-19.2h23.76c.61,3.36-2.08,2.55-3.79,3l-9.39-.06h-7v18.33h26.81c-4.77.95-9.51,2.24-14.34,2.75C283.48,368.76,278.32,368.56,273.2,368.68Z" transform="translate(-91.81 -190.42)"/><path class="cls-6" d="M304.91,380c4.72.26,9,6.66,9.74,11.11a14.27,14.27,0,0,1-14.28,16.79c-8.45,0-16.9-.11-25.35-.17,3.21-.17,6.49,0,9.63-.59,2.25-.41,4.33-1.77,6.48-2.71,3.17,0,6.34-.12,9.5-.14,6.48-.05,10.29-3.85,10.45-10.47.14-6.17-4.05-10.87-10-11.26l-3.27-.22c0-1,0-2,0-3h3.63C302.14,382.07,303.68,380.18,304.91,380Z" transform="translate(-91.81 -190.42)"/><path class="cls-7" d="M291.13,404.46c-2.15.94-4.23,2.3-6.48,2.71-3.14.57-6.42.42-9.63.59h-1.59l-.6-.36q0-14-.08-28l2.25-.22,7.35,0h.7l9.61,0h2.85l2.28.21c0,1,0,2,0,3-6.25.05-12.5,0-18.75.22-1.06,0-3,1-3,1.53-.21,6.67-.14,13.35-.14,20.34Z" transform="translate(-91.81 -190.42)"/><path class="cls-6" d="M273.2,368.68c5.12-.12,10.28.08,15.35-.46,4.83-.51,9.57-1.8,14.34-2.75.54-.28,1.09-.53,1.6-.85a9.81,9.81,0,0,0,3.76-10.89c-1.33-4.57-3.25-6-8.15-6.11-2.54-.07-5.07-.27-7.6-.41,1.71-.44,4.4.37,3.79-3,11.75-1.76,14.82,4.48,15.88,10.77a11.86,11.86,0,0,1-11.81,13.94C291.31,368.93,282.25,368.77,273.2,368.68Z" transform="translate(-91.81 -190.42)"/><path class="cls-7" d="M302.18,379.23l2.23.14.49.66c-1.22.15-2.76,2-3.48-.63v-.2Z" transform="translate(-91.81 -190.42)"/><path class="cls-20" d="M274.21,378.63l.79.52-2.25.22Z" transform="translate(-91.81 -190.42)"/><path class="cls-6" d="M272.83,407.39l.6.36Z" transform="translate(-91.81 -190.42)"/><path class="cls-6" d="M549.57,207.81l-.15,52.49q0,12.48-.08,25a20.31,20.31,0,0,1-.71-3.8q-.06-35,0-70A14.9,14.9,0,0,1,549.57,207.81Z" transform="translate(-91.81 -190.42)"/><path class="cls-4" d="M218.92,364.79q0,11,0,22c-.43-.63-1.22-1.25-1.23-1.88q-.15-9.11,0-18.21C217.71,366,218.5,365.41,218.92,364.79Z" transform="translate(-91.81 -190.42)"/><path class="cls-14" d="M279.89,274.55l1.2-1.75c.85.66,1.69,1.33,2.53,2l-2.7,1.07Z" transform="translate(-91.81 -190.42)"/><path class="cls-14" d="M281,271.55c0-1.28,0-2.56,0-3.84l2.69,2.33Z" transform="translate(-91.81 -190.42)"/><path class="cls-17" d="M281,247.91c2.23,2.13,4.8,1.52,7.37.91q-1.71,2.1-3.44,4.19Z" transform="translate(-91.81 -190.42)"/><path class="cls-20" d="M287.46,245l.78.62Z" transform="translate(-91.81 -190.42)"/><path class="cls-13" d="M149.19,250.2l-.18.25.14-.3Z" transform="translate(-91.81 -190.42)"/><path class="cls-15" d="M215.23,273.68c0-2.41.05-4.82.07-7.23l9.64-1.57h0l2.37.69q-.06,3.69-.13,7.38Z" transform="translate(-91.81 -190.42)"/><path class="cls-14" d="M215.09,253.35l2.46-.27L227,253l.06,3.72c-2.78.26-5.57.43-8.32.83a8.59,8.59,0,0,0-2.51,1.36c.8.5,1.58,1.38,2.41,1.44,2.79.19,5.6.08,8.41.09l.32,0a1,1,0,0,1-.13.69l-12.4,1.42Z" transform="translate(-91.81 -190.42)"/><path class="cls-21" d="M227,253l-9.47.05c-.63-3.66.17-4.24,5.78-4.52l-1.23-3.44,6.29-.87c0,1,0,2,.05,3-.17.26-.35.51-.52.76Z" transform="translate(-91.81 -190.42)"/><path class="cls-18" d="M228.48,235.42l-3.19.4-6.21-.3,9.42-8.05Q228.5,231.45,228.48,235.42Z" transform="translate(-91.81 -190.42)"/><path class="cls-13" d="M214.86,262.62l12.4-1.42a.51.51,0,0,1,0,.48c0,.62,0,1.23,0,1.85,0,.44,0,.88,0,1.32l-2.29,0h0l-9.7,0Z" transform="translate(-91.81 -190.42)"/><path class="cls-19" d="M227.3,220.18c-.79-.92-2.07-1.74-2.26-2.77-.51-2.79.17-5.25,3.37-6.17,0,2.46.05,4.91.07,7.37l-.55.79,0-.05c-.26.25-.51.5-.76.76Z" transform="translate(-91.81 -190.42)"/><path class="cls-15" d="M227,253l.9-5a3.8,3.8,0,0,0,.59-.06c0,3.4,0,6.8-.16,10.19a7.88,7.88,0,0,1-1,2.39l-.32,0c0-1.24,0-2.48,0-3.72Z" transform="translate(-91.81 -190.42)"/><path class="cls-14" d="M215.23,273.68l11.94-.74c0,.49,0,1,0,1.46l-11.89.14Z" transform="translate(-91.81 -190.42)"/><path class="cls-15" d="M227.24,263.53c0-.62,0-1.23,0-1.85C227.27,262.3,227.26,262.91,227.24,263.53Z" transform="translate(-91.81 -190.42)"/><path class="cls-14" d="M224.93,264.87l2.29,0a1.16,1.16,0,0,1,.08.71Z" transform="translate(-91.81 -190.42)"/><path class="cls-17" d="M227.93,219.4l.55-.79a.71.71,0,0,1,.05.68A1.13,1.13,0,0,1,227.93,219.4Z" transform="translate(-91.81 -190.42)"/><path class="cls-14" d="M228.51,247.93a3.8,3.8,0,0,1-.59.06c.17-.25.35-.5.52-.76A.79.79,0,0,1,228.51,247.93Z" transform="translate(-91.81 -190.42)"/><path class="cls-14" d="M216.2,282.27h10.72v.44l-5.25.25-5.37.33Z" transform="translate(-91.81 -190.42)"/><path class="cls-14" d="M215.24,264.9l9.7,0-9.64,1.57Z" transform="translate(-91.81 -190.42)"/><path class="cls-12" d="M214.08,224l4.28-.23,2.28,2.26-.07-.1-.74.75h0l-.75.76h.1l-1.6,1.39-1.47,1.47c-.73-.8-1.84-1.49-2.1-2.42A13,13,0,0,1,214.08,224Z" transform="translate(-91.81 -190.42)"/><path class="cls-17" d="M227.19,220.11c.25-.26.5-.51.76-.76C227.69,219.6,227.44,219.85,227.19,220.11Z" transform="translate(-91.81 -190.42)"/><path class="cls-17" d="M219.08,227.46l.75-.76Z" transform="translate(-91.81 -190.42)"/><path class="cls-17" d="M219.83,226.71l.74-.75Z" transform="translate(-91.81 -190.42)"/><path class="cls-21" d="M212.64,214.31h2.08l.11.44-2.18.76C212.65,215.11,212.64,214.71,212.64,214.31Z" transform="translate(-91.81 -190.42)"/><path class="cls-20" d="M210.83,220.94a1.25,1.25,0,0,1,0,.51l-.31-.36Z" transform="translate(-91.81 -190.42)"/><path class="cls-21" d="M212.63,210.35c-.09-4,2.62-4.63,4.8-5.39.43-.16,2.19,1.57,2.22,2.47.08,2.81-1.17,5.14-4.38,5.14C214.39,212.57,213.51,211.13,212.63,210.35Z" transform="translate(-91.81 -190.42)"/><path class="cls-6" d="M283.11,347.15h0Z" transform="translate(-91.81 -190.42)"/><path class="cls-20" d="M292.66,379.19h0Z" transform="translate(-91.81 -190.42)"/><path class="cls-20" d="M282.35,379.17h0Z" transform="translate(-91.81 -190.42)"/><path class="cls-20" d="M302.18,379.23l-.77,0Z" transform="translate(-91.81 -190.42)"/><path class="cls-13" d="M227.08,256.75c0,1.24,0,2.48,0,3.72-2.81,0-5.62.1-8.41-.09-.83-.06-1.61-.94-2.41-1.44a8.59,8.59,0,0,1,2.51-1.36C221.51,257.18,224.3,257,227.08,256.75Z" transform="translate(-91.81 -190.42)"/></svg>